<?xml version="1.0" encoding="UTF-8"?><svg id="_無題_-_2025年1月24日_13_画像" xmlns="http://www.w3.org/2000/svg" viewBox="0 0 119.42 99.11"><defs><style>.cls-1{fill:#fff;}</style></defs><path class="cls-1" d="M20.33,84.19c-.05-1.61-.22-25.72-.29-27.34-.12-2.78.14-5.54-.16-8.31-.53-4.96-.08-8.52-2.14-13.23-.22-.49-1.18-2.77-1.89-3.61-.45-.53-1.59-.82-1.96-.85-2.53-.22-3.9,1.23-5.94,2.36-1.05-.05-.42-.91-.03-1.4,1.51-1.9,3.11-3.83,4.67-5.7,2.5-2.98,6.67-6.64,10.76-6.78,3.87-.13,6.99,5.25,7,8.43.01,5.87.1,9.8,0,15.09-.05,2.67-.11,17.82-.11,18.01,0,.59.09,25.06.11,25.75.02.75-.75,1.73-4.42,1.73-2.67,0-5.53-1.25-5.61-4.13ZM45.94,49.57,18.76,24.12c-1.82.27-2.36,3.34-.23,3.49,3.12.22,2.39-3.81.23-3.49Z"/><path class="cls-1" d="M110.12,48.32c-.06-18.87-10.25-32.44-24.59-37.65-8.72-3.08-16.84-1.98-28.18-1.94-11.7.04-21.25.42-29.84,1.17-1.14-.03-1.03.96-.12.91l2.51.23c5.61.46,5.73,2.13,5.77,13.59l.15,48.16c.04,12.65-1.03,13.42-6.64,14.15l-2.62.37c-.95.24-.54,1.13.24,1.03,5.25-.26,10.62-.05,15.16-.07,4.42-.01,10.03.35,17.31.32,10.86-.03,21.13-1.5,29.59-5.82,14.78-7.56,21.31-21.19,21.27-34.44Z"/></svg>