<?xml version="1.0" encoding="UTF-8"?><svg xmlns="http://www.w3.org/2000/svg" viewBox="0 0 634.59 99.11"><defs><style>.cls-1{fill:#fff;}</style></defs><g id="_レイヤー_1"><path class="cls-1" d="M197.12,49.7c0,14.74-11.22,25.74-26.33,25.74-16.91,0-26.63-11.9-26.63-25.21,0-15.26,11.07-26.56,26.78-26.56,17.28,0,26.19,12.42,26.19,26.03ZM152.32,48.06c0,10.32,6.41,25.87,19.21,25.87,8.53,0,17.13-7.84,17.13-22.88,0-11.3-6.8-25.87-18.7-25.87-7.48,0-17.63,6.95-17.63,22.88Z"/><path class="cls-1" d="M249.74,61.52c0,2.25,0,11.07.22,12.79-.6.82-1.95,1.12-2.84,1.05-1.2-1.57-3.07-3.74-8.45-9.88l-17.51-19.98c-4.79-5.54-7.26-8.31-8.53-9.43-.22,0-.22.82-.22,4.79v14.59c0,5.61.07,13.77,1.35,16.01.67,1.12,1.95,1.86,3.82,2.08l1.65.23c.76.27.56.73-.15.69-2.77-.17-5.69-.23-8.53-.23-3.14,0-5.16.07-7.78.23-.68.04-.83-.39-.15-.69l1.65-.37c1.42-.3,2.77-.74,3.29-1.93.97-2.32.97-10.1.97-16.01v-17.73c0-5.84.07-8.56-2.47-10.73-.82-.67-2.92-1.27-3.97-1.5l-1.12-.23c-.54-.21-.54-.65.3-.64,2.84.3,6.96.23,8.83.23,1.57,0,3.37-.07,5.16-.23,0,0,11.78,15.19,12.05,15.49l7.48,8.08c3.14,3.44,10.1,11.37,10.85,11.82.23-.22.23-.6.23-1.79v-14.59c0-5.61-.08-13.77-1.42-16.01-.67-1.12-1.87-1.86-3.74-2.08l-1.72-.23c-.73-.05-.67-.73.15-.69,2.92.17,5.69.23,8.6.23,3.22,0,5.16-.07,7.86-.23.66,0,.8.49.15.69l-1.72.37c-1.42.3-2.69.74-3.22,1.93-1.05,2.32-1.05,10.1-1.05,16.01v17.88Z"/><path class="cls-1" d="M604.94,61.52c0,2.25,0,11.07.22,12.79-.6.82-1.95,1.12-2.84,1.05-1.2-1.57-3.07-3.74-8.45-9.88l-17.51-19.98c-4.79-5.54-7.26-8.31-8.53-9.43-.22,0-.22.82-.22,4.79v14.59c0,5.61.07,13.77,1.35,16.01.67,1.12,1.95,1.86,3.82,2.08l1.65.23c.4.24.34.69-.15.69-2.77-.01-5.69-.23-8.53-.23-3.14,0-5.16.07-7.78.23-.44,0-.52-.43-.15-.69l1.65-.37c1.42-.3,2.77-.74,3.29-1.93.97-2.32.97-10.1.97-16.01v-17.73c0-5.84.07-8.56-2.47-10.73-.82-.67-2.92-1.27-3.97-1.5l-1.12-.23c-.54-.21-.54-.65.3-.64,2.84.3,6.96.23,8.83.23,1.57,0,3.37-.07,5.16-.23,0,0,11.78,15.19,12.05,15.49l7.48,8.08c3.14,3.44,10.1,11.37,10.85,11.82.23-.22.23-.6.23-1.79v-14.59c0-5.61-.08-13.77-1.42-16.01-.67-1.12-1.87-1.86-3.74-2.08l-1.72-.23c-.73-.05-.67-.73.15-.69,2.92.17,5.69.23,8.6.23,3.22,0,5.16-.07,7.86-.23.66,0,.8.49.15.69l-1.72.37c-1.42.3-2.69.74-3.22,1.93-1.05,2.32-1.05,10.1-1.05,16.01v17.88Z"/><path class="cls-1" d="M387.98,34.11c0-7.93-.67-8.23-4.19-8.68l-1.2-.15c-.57-.05-.55-.73.15-.64,2.84.15,6.36.23,9.65.23h14.29c4.79,0,10.83-.07,11.8-.23.3,1.27.75,5.66,1.2,8.87-.3.6-.38.75-.98.3-1.2-4.34-1.47-6.13-3.86-6.81-1.72-.45-7.93-.67-9.95-.67h-5.01c-3.22,0-3.22.15-3.22,4.41v15.27c0,1.95.07,2.02,1.8,2.02h3.59c6.51,0,14.72-.07,15.39-3.29l.52-2.54c-.07-.76.79-.59.69.07-.29,2-.23,3.87-.23,6.63s-.06,4.12.23,6.5c.1.8-.65.75-.64.07l-.58-2.99c-.52-3.14-8.88-3.29-15.39-3.29h-3.59c-1.72,0-1.8.15-1.8,2.02v10.86c0,3.82.15,7.78,1.27,9.05.9,1.05,3.02,1.73,9.3,1.65,14.74-.2,13.5-5.67,14.98-5.49.5.2-.83,4.97-1.68,7.18-3.29-.15-10.86-.23-19.61-.23h-8.53c-3.29,0-7.86.07-11.22.23-.67.02-.7-.48-.15-.64l2.77-.3c3.52-.37,4.19-1.87,4.19-9.8v-29.61Z"/><path class="cls-1" d="M266.38,34.11c0-7.93-.67-8.23-4.19-8.68l-1.2-.15c-.57-.05-.55-.73.15-.64,2.84.15,6.36.23,9.65.23h14.29c4.79,0,10.83-.07,11.8-.23.3,1.27.75,5.66,1.2,8.87-.3.6-.38.75-.98.3-1.2-4.34-1.47-6.13-3.86-6.81-1.72-.45-7.93-.67-9.95-.67h-5.01c-3.22,0-3.22.15-3.22,4.41v15.27c0,1.95.07,2.02,1.8,2.02h3.59c6.51,0,14.72-.07,15.39-3.29l.52-2.54c-.07-.76.79-.59.69.07-.29,2-.23,3.87-.23,6.63s-.06,4.12.23,6.5c.1.8-.65.75-.64.07l-.58-2.99c-.52-3.14-8.88-3.29-15.39-3.29h-3.59c-1.72,0-1.8.15-1.8,2.02v10.86c0,3.82.15,7.78,1.27,9.05.9,1.05,3.02,1.73,9.3,1.65,14.74-.2,13.5-5.67,14.98-5.49.5.2-.83,4.97-1.68,7.18-3.29-.15-10.86-.23-19.61-.23h-8.53c-3.29,0-7.86.07-11.22.23-.67.02-.7-.48-.15-.64l2.77-.3c3.52-.37,4.19-1.87,4.19-9.8v-29.61Z"/><path class="cls-1" d="M329.23,34.56c0-7.18-.07-8.23-3.59-8.53l-1.57-.15c-.57.03-.64-.59.08-.57,5.39-.45,11.37-.67,18.7-.67s12.19-.67,17.66,1.27c8.98,3.29,15.34,11.82,15.34,23.64,0,8.31-4.11,16.83-13.39,21.55-5.31,2.69-11.75,3.59-18.55,3.59-4.56,0-8.08-.24-10.85-.24s-6.21-.14-9.5.01c-.49.06-.75-.5-.15-.64l1.65-.23c3.52-.45,4.19-.93,4.19-8.86v-30.18ZM337.91,61.83c0,7.26.52,11.4,8.45,11.4,13.32,0,19.3-10.95,19.3-23.6,0-14.81-8.6-23.52-21.1-23.52-3.14,0-5.54.6-6.06,1.05-.52.45-.6,2.02-.6,5.54v29.13Z"/><path class="cls-1" d="M432.48,72.86c-1.58-1.34-2.04-6.45-1.96-11.09.45-.75.69.08.73.55.82,3.93.37,10.61,14.31,10.97,5.66.15,8.9-3.44,8.9-8.01,0-4.26-2.02-8.55-7.63-11.7l-3.22-1.8c-5.61-3.14-10.55-8.55-10.55-15.29,0-7.41,5.54-12.84,16.46-12.84,3.89,0,7.68.66,10.53,2.82,1.47,1.11,1.29,4.49,1.29,8-.37.67-.02.75-.69.23-.94-3.73-.59-8.23-11.8-8.9-6.07-.37-8.45,3.89-8.45,7.86,0,3.14,2.17,7.36,7.11,9.98l4.64,2.47c4.86,2.54,10.25,8.03,10.25,15.59,0,8.53-6.51,13.74-17.36,13.74-6.88,0-11.22-1.45-12.55-2.58Z"/><path class="cls-1" d="M518.01,66.89c0,2.62.37,4.14,1.8,4.81.23.3.23.9-.07,1.12-.82,0-2.17.3-3.59.6-4.64,1.12-10.25,2.02-14.51,2.02-8.98,0-17.43-1.55-23.04-7.38-4.41-4.56-6.58-11.7-6.58-17.98s2.17-13.57,6.88-18.43c5.31-5.61,13.47-7.98,23.87-7.98,3.52,0,7.33.6,9.95,1.12,1.72.37,3.89.67,4.79.67.07,2.24.46,5.21.83,11.05-.37.75-.69.82-1.06.15.34-9.61-8.15-10.85-15.56-10.85-13.17,0-19.53,10.35-19.53,23.07,0,5.98,1.35,13.27,5.39,18.06,4.04,4.79,10.02,6.36,14.44,6.36,3.59,0,5.76-.6,6.66-1.72.45-.67.67-2.02.67-4.71v-3.97c0-5.31-.07-6.86-5.09-7.69l-2.69-.45c-.58-.16-.44-.59.07-.64,2.92.15,6.51.23,11.67.23,3.37,0,5.91-.08,9.13-.23.65-.03.68.46.15.64l-1.35.23c-2.77.45-3.22,2.15-3.22,6.71v5.19Z"/><path class="cls-1" d="M543.72,63.47c0,7.93.67,9.68,4.19,10.13l1.65.23c.48.12.39.65-.15.64-3.29-.15-6.66-.23-9.95-.23s-6.81.07-10.1.23c-.57.04-.67-.44-.15-.64l1.65-.23c3.52-.45,4.19-2.2,4.19-10.13v-29.1c0-7.93-.67-8.41-4.19-8.86l-1.65-.23c-.52-.06-.35-.65.15-.64,3.29.15,6.66.23,10.1.23s6.66-.07,9.95-.23c.46,0,.52.64.15.64l-1.65.23c-3.52.45-4.19.93-4.19,8.86v29.1Z"/></g><g id="_無題_-_2025年1月24日_13_画像"><path class="cls-1" d="M20.33,84.19c-.05-1.61-.22-25.72-.29-27.34-.12-2.78.14-5.54-.16-8.31-.53-4.96-.08-8.52-2.14-13.23-.22-.49-1.18-2.77-1.89-3.61-.45-.53-1.59-.82-1.96-.85-2.53-.22-3.9,1.23-5.94,2.36-1.05-.05-.42-.91-.03-1.4,1.51-1.9,3.11-3.83,4.67-5.7,2.5-2.98,6.67-6.64,10.76-6.78,3.87-.13,6.99,5.25,7,8.43.01,5.87.1,9.8,0,15.09-.05,2.67-.11,17.82-.11,18.01,0,.59.09,25.06.11,25.75.02.75-.75,1.73-4.42,1.73-2.67,0-5.53-1.25-5.61-4.13ZM45.94,49.57,18.76,24.12c-1.82.27-2.36,3.34-.23,3.49,3.12.22,2.39-3.81.23-3.49Z"/><path class="cls-1" d="M110.12,48.32c-.06-18.87-10.25-32.44-24.59-37.65-8.72-3.08-16.84-1.98-28.18-1.94-11.7.04-21.25.42-29.84,1.17-1.14-.03-1.03.96-.12.91l2.51.23c5.61.46,5.73,2.13,5.77,13.59l.15,48.16c.04,12.65-1.03,13.42-6.64,14.15l-2.62.37c-.95.24-.54,1.13.24,1.03,5.25-.26,10.62-.05,15.16-.07,4.42-.01,10.03.35,17.31.32,10.86-.03,21.13-1.5,29.59-5.82,14.78-7.56,21.31-21.19,21.27-34.44Z"/></g></svg>