<?xml version="1.0" encoding="UTF-8"?>
<svg width="577px" height="275px" viewBox="0 0 577 275" version="1.1" xmlns="http://www.w3.org/2000/svg" xmlns:xlink="http://www.w3.org/1999/xlink">
    <title>nav1</title>
    <g id="Page-1" stroke="none" stroke-width="1" fill="none" fill-rule="evenodd">
        <g id="Group-3" transform="translate(0.416600, 0.000000)" fill="#000000">
            <path d="M123.601,186.902 C127.801,186.902 154.501,193.802 154.501,214.502 C154.501,225.002 149.402,231.003 142.801,231.003 C137.702,231.003 137.102,229.202 132.001,212.702 C129.602,204.302 127.801,200.702 121.801,190.802 C121.501,190.202 120.601,188.702 121.202,187.802 C121.501,186.902 122.702,186.902 123.601,186.902 L123.601,186.902 Z M221.102,166.802 C213.302,166.802 212.403,169.502 212.403,189.002 C212.403,198.002 213.302,238.202 213.302,246.302 C213.302,273.603 192.302,273.603 189.002,273.603 C183.302,273.603 182.702,271.503 181.202,266.103 C179.402,259.203 174.602,256.503 168.002,253.802 C160.501,250.503 159.602,250.203 159.602,249.003 C159.602,248.103 162.001,247.802 162.902,247.802 C165.902,247.802 179.402,248.402 182.102,248.402 C188.102,248.402 194.102,248.402 194.102,234.902 C194.102,225.902 193.203,180.602 193.203,178.802 C193.203,172.202 193.203,166.802 184.802,166.802 L149.702,166.802 C141.001,166.802 129.602,166.802 118.202,167.402 C116.702,167.402 106.801,168.302 105.901,168.302 C104.702,168.302 104.702,168.302 102.901,166.202 L96.901,159.602 C96.301,159.002 95.702,158.102 95.702,157.801 C95.702,157.202 96.301,156.902 96.901,156.902 C99.001,156.902 108.601,157.801 110.402,157.801 C129.602,158.702 141.001,159.002 151.202,159.002 L184.502,159.002 C192.902,159.002 192.902,153.301 192.902,149.701 C192.902,145.502 191.703,127.501 191.703,123.902 C191.703,123.001 191.703,121.501 194.402,121.501 C195.902,121.501 213.602,124.501 214.502,124.801 C217.502,125.402 219.903,126.301 219.903,129.001 C219.903,130.501 215.102,135.601 214.502,136.801 C213.602,139.201 213.302,142.201 213.302,150.602 C213.302,159.002 218.703,159.002 224.703,159.002 C230.103,159.002 254.536,158.464 257.36,157.259 C260.717,155.827 265.203,158.402 265.203,162.602 C265.203,166.802 259.203,166.802 249.303,166.802 L221.102,166.802 Z M194.402,54.901 C185.703,54.901 185.703,60.001 185.703,66.601 C185.703,104.701 185.703,105.301 194.102,105.301 L219.602,105.301 C228.002,105.301 256.552,105.691 258.951,104.492 C261.651,103.292 269.535,105.301 269.535,109.501 C269.535,113.101 267.736,113.101 253.335,113.101 L144.001,113.101 C135.301,113.101 123.601,113.101 112.501,113.701 C110.402,113.701 101.702,114.601 100.202,114.601 C99.001,114.601 99.001,114.601 96.901,112.201 L91.501,105.901 C90.001,104.401 90.001,104.101 90.001,103.801 C90.001,103.501 90.601,103.201 91.202,103.201 C93.301,103.201 102.601,104.101 104.401,104.101 C123.601,105.001 135.301,105.301 145.501,105.301 L157.802,105.301 C165.302,105.301 166.202,101.101 166.202,95.401 C166.202,91.201 166.501,63.601 165.902,60.601 C165.001,54.901 159.602,54.901 157.501,54.901 C148.202,54.901 143.102,54.901 132.902,55.2 C129.902,55.2 117.301,56.401 114.902,56.401 C113.702,56.401 113.702,55.8 111.601,53.7 L106.202,47.7 C105.001,46.501 104.702,45.901 104.702,45.601 C104.702,45.001 105.301,44.7 105.901,44.7 C107.702,44.7 116.101,45.601 117.902,45.601 C121.501,45.901 143.102,46.8 154.802,46.8 C160.802,46.8 165.902,46.8 165.902,38.1 C165.902,33 165.602,21.3 165.302,16.5 C165.001,14.4 163.802,4.2 163.802,3 C163.802,1.8 163.802,0 165.902,0 C166.802,0 185.102,4.8 189.902,6.6 C190.502,6.9 193.203,8.1 193.203,9.6 C193.203,11.4 186.902,16.8 186.302,18.3 C185.402,21.3 185.402,33.3 185.402,37.501 C185.402,42.001 185.402,46.8 194.102,46.8 L207.002,46.8 C217.502,46.8 241.057,46.945 242.857,46.045 C245.257,44.845 249.568,46.2 249.568,50.7 C249.568,54.901 243.568,54.901 233.667,54.901 L194.402,54.901 Z M80.701,81.001 C76.201,81.001 72.601,82.501 72.001,87.001 C71.701,89.701 71.701,126.601 71.701,131.101 C71.701,136.801 71.701,138.301 74.701,138.301 C78.301,138.301 101.702,128.402 103.801,128.402 C104.401,128.402 105.001,128.402 105.001,129.001 C105.001,130.801 87.901,141.902 82.501,145.201 C71.701,151.801 71.701,155.102 71.701,165.002 C71.701,175.202 72.601,220.502 72.601,229.802 C72.601,234.602 72.601,262.203 72.001,264.603 C70.801,269.103 64.5,274.803 57,274.803 C52.201,274.803 50.101,273.303 50.101,267.603 C50.101,252.003 52.5,183.902 52.5,170.102 C52.5,168.902 52.5,166.202 49.8,166.202 C49.201,166.202 24.6,179.402 22.8,182.702 C20.401,187.202 20.1,187.802 18.6,187.802 C13.8,187.802 1.201,165.002 1.201,163.502 C1.201,161.702 2.701,161.102 7.5,160.802 C15.901,159.902 47.401,149.402 50.701,144.902 C52.5,142.801 52.801,140.701 52.801,137.402 C53.101,128.402 53.101,100.201 53.101,89.401 C53.101,86.101 52.801,81.001 44.701,81.001 L26.1,81.001 C19.5,81.001 18.901,82.501 14.701,91.201 C10.201,101.101 2.1,114.601 0.3,114.601 C0,114.601 0,114.001 0,113.701 C0,111.601 6.6,85.801 7.5,80.401 C8.701,74.101 12.6,53.101 12.6,34.8 C12.6,33.6 12,28.2 12,27 C12,25.2 12.3,24 14.701,24 C16.5,24 37.5,29.401 37.5,34.2 C37.5,36.3 31.8,44.401 31.201,46.2 C30.6,47.401 24.3,67.501 24.3,69.601 C24.3,72.301 26.401,72.901 28.5,72.901 L44.401,72.901 C49.8,72.901 52.801,70.501 52.801,65.101 C52.801,54.001 52.5,34.5 51.901,22.5 C51.901,19.5 50.401,6.3 50.401,3.3 C50.401,2.1 50.701,0.6 52.801,0.6 C54,0.6 80.101,6 80.101,11.4 C80.101,13.5 79.801,14.1 75.301,18.6 C73.201,21 73.201,22.5 72.601,36.901 C72.601,41.1 72.301,62.101 72.301,66.301 C72.301,68.401 72.301,72.601 76.501,72.601 C81.001,72.601 104.289,73.015 104.89,72.115 C114.001,69.856 114.001,72.001 114.001,76.201 C114.001,81.001 108.902,81.001 97.801,81.001 L80.701,81.001 Z" id="Fill-1"></path>
            <path d="M489.602,88.2008 C485.703,88.2008 481.802,88.2008 481.802,94.8008 C481.802,109.5008 499.203,176.7018 504.902,176.7018 C509.102,176.7018 525.002,130.8018 525.002,97.5008 C525.002,89.4008 521.703,88.2008 518.102,88.2008 L489.602,88.2008 Z M519.302,80.4008 C531.903,80.4008 551.251,80.5488 556.426,77.6788 C559.985,75.7048 564.603,81.0008 564.603,85.2008 C564.603,88.2008 560.403,88.2008 558.002,88.2008 L541.802,88.2008 C540.302,88.2008 539.403,88.2008 539.403,89.4008 C539.403,91.2008 544.537,98.2758 542.202,110.4008 C541.439,114.3648 537.002,137.4018 535.802,142.5018 C529.502,167.1018 522.302,181.8018 520.502,185.4018 C516.302,193.8018 515.703,194.7018 515.703,197.1018 C515.703,204.9018 541.502,238.2018 567.003,251.4028 C568.503,252.3028 576.003,254.7028 576.003,256.2028 C576.003,256.8028 569.703,257.7028 568.203,257.7028 C553.803,259.2028 551.703,259.5028 546.603,263.4028 C543.302,265.8028 542.103,266.7028 540.603,266.7028 C530.703,266.7028 509.403,226.2018 509.102,225.3028 C505.802,219.3028 504.302,217.8028 502.802,217.8028 C500.703,217.8028 497.703,221.4028 495.902,223.5018 C484.502,237.3028 465.902,258.3028 430.501,270.6028 C428.702,271.2028 428.101,271.2028 427.202,271.2028 C426.902,271.2028 425.702,271.2028 425.702,270.6028 C425.702,270.0028 448.202,253.8028 450.902,251.7028 C473.702,232.5028 495.002,204.6018 495.002,194.7018 C495.002,190.2018 488.402,170.4018 487.502,166.5018 C483.002,147.6018 480.002,123.9018 478.802,104.7008 C478.802,102.6008 478.802,101.1008 477.602,101.1008 C476.702,101.1008 466.202,117.3018 463.501,117.3018 C463.202,117.3018 462.902,117.0008 462.902,116.4008 C462.902,115.8018 472.802,90.3008 474.002,86.4008 C486.002,51.6008 491.703,21.3008 491.703,11.9998 C491.703,11.0998 490.502,5.9998 490.502,5.0998 C490.502,3.5998 491.703,2.9998 493.203,2.9998 C495.602,2.9998 524.103,13.4998 524.103,17.9998 C524.103,19.4998 517.802,23.0998 516.602,23.9998 C511.802,27.9008 489.902,76.8008 489.902,77.7008 C489.902,80.4008 492.902,80.4008 494.102,80.4008 L519.302,80.4008 Z M397.202,88.5008 C394.202,88.5008 391.501,88.8008 390.901,93.9008 C390.301,101.4008 386.101,108.6008 379.801,108.6008 C373.801,108.6008 373.201,100.5008 373.201,97.5008 C373.201,87.9008 374.101,45.9008 374.101,37.2008 C374.101,31.2008 373.501,28.8008 372.901,26.7008 C372.001,24.5998 371.701,22.2008 371.701,21.5998 C371.701,19.8008 372.601,18.5998 374.401,18.5998 C375.001,18.5998 394.202,23.7008 394.202,27.9008 C394.202,28.8008 391.801,31.8008 391.501,32.4008 C391.202,34.8008 390.001,67.5008 390.001,72.0008 C390.001,76.8008 390.001,80.7008 396.901,80.7008 L404.101,80.7008 C408.601,80.7008 412.202,80.4008 412.202,75.0008 L412.202,30.3008 C412.202,26.7008 411.301,9.2998 411.301,7.4998 C411.301,5.3998 411.601,3.5998 414.001,3.5998 C414.601,3.5998 432.001,7.4998 432.001,11.0998 C432.001,12.5998 428.101,17.0998 427.801,18.3008 C427.202,20.0998 427.202,42.0008 427.202,45.9008 C427.202,51.0008 427.202,75.9008 427.801,78.0008 C428.101,78.6008 429.301,80.7008 433.801,80.7008 L440.402,80.7008 C442.202,80.7008 446.102,80.4008 447.001,76.8008 C447.001,75.0008 448.202,46.5008 448.202,37.8008 C448.202,35.4008 447.302,25.2008 447.302,23.0998 C447.302,21.8998 447.602,19.4998 449.402,19.4998 C450.302,19.4998 471.002,23.9998 471.002,28.8008 C471.002,29.9998 465.902,34.4998 465.302,35.7008 C463.802,39.5998 463.802,49.2008 463.802,53.7008 C463.802,79.2008 463.802,79.5008 464.102,81.3008 C464.102,82.8008 464.702,89.4008 464.702,90.6008 C464.702,100.8008 455.702,104.7008 452.702,104.7008 C446.102,104.7008 446.102,96.6008 445.801,93.6008 C445.801,88.5008 441.301,88.5008 439.202,88.5008 L397.202,88.5008 Z M366.901,177.3018 C366,175.8018 366,175.8018 366,175.2018 C366,174.9018 366,174.6018 366.601,174.6018 C367.5,174.6018 372.601,175.2018 373.501,175.5018 C375.301,175.5018 390.901,176.7018 396.901,176.7018 C401.101,176.7018 406.202,176.1018 406.202,167.7018 C406.202,165.6018 406.202,145.2008 405.601,143.1018 C404.101,138.3018 401.401,138.3018 393.601,138.0018 C388.201,138.0018 378.601,138.3018 370.801,138.9018 C369.901,138.9018 366,139.8018 365.401,139.8018 C364.801,139.8018 364.5,139.2008 363.601,137.7008 L360,130.8018 C359.101,129.6008 359.101,129.3018 359.101,128.7008 C359.101,128.4018 359.101,128.1008 359.701,128.1008 C360,128.1008 365.701,129.0008 366.601,129.0008 C373.801,129.6008 387.601,130.2008 394.501,130.2008 L434.402,130.2008 C443.102,130.2008 447.656,127.8028 453.124,127.0798 C461.783,125.9348 469.202,132.3018 469.202,134.7008 C469.202,138.0018 465.001,138.0018 458.402,138.0018 L434.102,138.0018 C430.801,138.0018 426.301,138.3018 424.801,141.9018 C423.902,144.6018 423.902,164.7018 423.902,168.9018 C423.902,176.7018 430.801,176.7018 433.801,176.7018 C440.702,176.7018 449.697,174.5848 454.402,173.4228 C460.654,171.8798 469.202,177.9018 469.202,181.5018 C469.202,184.5018 466.202,184.5018 458.702,184.5018 L434.702,184.5018 C429.001,184.5018 423.601,185.1018 423.601,193.8018 C423.601,218.7018 423.601,221.4028 429.602,221.4028 C432.001,221.4028 464.102,214.8028 467.402,214.8028 C468.002,214.8028 468.602,214.8028 468.602,215.4018 C468.602,218.4028 388.801,245.4028 383.101,249.3028 C381.601,250.5028 375.901,257.7028 374.101,257.7028 C367.801,257.7028 355.801,233.7018 355.801,231.6018 C355.801,230.7018 356.401,228.9028 359.101,228.9028 C360,228.9028 364.201,230.4028 365.101,230.4028 C367.5,230.7018 369.301,230.7018 372.301,230.7018 C378.301,230.7018 401.101,228.3028 404.101,224.4028 C406.202,221.4028 406.202,200.7018 406.202,195.6018 C406.202,185.7018 403.501,184.5018 396.601,184.5018 C388.501,184.5018 381.001,184.8018 376.201,185.4018 C375.601,185.4018 372.601,186.0018 372.301,186.0018 C371.701,186.0018 371.101,185.7018 370.501,184.2018 L366.901,177.3018 Z M364.801,20.9998 C364.801,23.7008 363.301,23.9998 358.5,26.0998 C355.201,27.3008 354.301,28.4998 345,40.5008 C331.5,57.9008 305.701,80.1008 303,80.1008 L302.4,79.5008 C303.3,76.8008 316.8,57.6008 318.6,54.3008 C327,40.5008 339.901,13.4998 340.8,7.2008 C341.101,5.6998 341.701,1.7998 343.5,1.4998 C345,1.1998 364.801,16.7998 364.801,20.9998 L364.801,20.9998 Z M341.701,129.3018 C343.201,129.9018 345.901,141.0018 345.3,142.2008 C343.8,144.6018 343.8,189.0018 343.8,195.3018 C343.8,204.3018 344.401,249.0028 344.401,258.9028 C344.401,262.2028 344.401,274.5028 330.901,274.5028 C323.401,274.5028 323.401,268.8028 323.401,266.1028 C323.401,260.7028 325.201,233.7018 325.201,227.4028 C325.8,198.0018 325.8,171.3018 325.8,141.9018 C325.8,140.4018 325.5,138.9018 324.3,138.9018 C323.401,138.9018 302.4,162.9018 298.201,162.9018 C297.9,162.9018 297.6,162.6018 297.6,162.3018 C297.6,161.7018 298.201,161.1018 298.201,160.8018 C320.1,127.8018 338.401,90.9008 343.8,71.7008 C345.601,64.8008 345.901,64.5008 347.701,64.5008 C348.601,64.5008 369.601,77.7008 369.601,82.2008 C369.601,84.3008 360.301,88.5008 358.801,89.7008 C354,93.9008 334.201,121.5008 335.401,125.4018 C336,127.5008 340.201,129.0008 341.701,129.3018 L341.701,129.3018 Z" id="Fill-3"></path>
        </g>
    </g>
</svg>