<?xml version="1.0" encoding="UTF-8"?>
<svg width="576px" height="276px" viewBox="0 0 576 276" version="1.1" xmlns="http://www.w3.org/2000/svg" xmlns:xlink="http://www.w3.org/1999/xlink">
    <title>nav2</title>
    <g id="Page-1" stroke="none" stroke-width="1" fill="none" fill-rule="evenodd">
        <g id="Group-4" transform="translate(0.615000, 0.839500)" fill="#000000">
            <path d="M174.302,67.5005 C168.602,67.5005 165.302,60.9005 162.902,56.4005 C158.102,47.1005 155.102,44.4005 145.201,35.1005 C143.701,33.6005 143.402,33.3005 143.402,32.4005 C143.402,31.5005 144.001,31.5005 145.501,31.5005 C146.402,31.5005 182.702,37.2005 182.702,56.1005 C182.702,57.3005 182.702,67.5005 174.302,67.5005 L174.302,67.5005 Z M171.602,142.8015 C165.302,142.8015 164.402,139.2015 162.302,132.3015 C160.802,126.9015 150.002,107.1015 141.902,99.0005 C140.402,97.5005 138.902,96.3005 138.902,95.1015 C138.902,94.2005 140.102,93.9005 140.701,93.9005 C145.501,93.9005 181.502,109.2015 181.502,130.5015 C181.502,142.5015 173.102,142.8015 171.602,142.8015 L171.602,142.8015 Z M150.002,188.1025 C137.102,190.8015 121.201,194.4015 113.102,196.8015 C111.902,197.1025 107.701,198.6025 106.501,198.6025 C105.601,198.6025 105.001,198.3015 104.101,197.4015 L96.902,191.7025 C95.402,190.5015 95.402,190.5015 95.402,189.9015 C95.402,189.3015 96.001,189.3015 103.501,188.4015 C105.601,188.1025 128.402,184.8015 150.002,180.3015 L196.802,170.4015 C206.103,168.3015 206.103,160.2015 206.103,159.6015 C206.103,104.4005 204.602,48.9005 203.102,29.4005 C202.802,26.1005 200.403,10.5005 200.403,7.2005 C200.403,5.7005 201.302,4.5005 202.802,4.5005 C204.602,4.5005 228.002,21.9005 227.103,23.1005 C225.603,26.4005 224.403,31.2005 224.103,33.3005 C224.103,34.5005 223.803,81.3005 223.803,89.7005 C223.803,103.2015 223.803,147.9015 224.103,158.1015 C224.103,160.8015 226.803,163.2015 229.803,163.2015 C231.002,163.2015 251.837,154.3865 253.337,151.6865 C255.138,148.6865 273.303,153.6015 273.303,158.4015 C273.303,162.9015 264.303,165.0015 262.803,165.3015 L232.803,171.3015 C227.702,172.2015 224.702,175.8015 224.702,180.9015 C224.702,193.5015 227.702,252.6025 227.702,258.9025 C227.702,269.4025 218.103,274.2025 212.403,274.2025 C207.302,274.2025 203.702,270.3025 203.702,264.3025 C203.702,261.6025 204.602,248.7025 204.602,246.0025 C204.903,233.7025 205.802,199.8025 205.802,191.4015 C205.802,184.2015 205.802,176.7015 197.102,178.5015 L150.002,188.1025 Z M87.601,87.6015 C87.301,87.6015 87.001,87.6015 87.001,86.7005 C87.001,85.8005 92.701,73.8005 93.902,71.4005 C99.601,58.2005 106.801,35.7005 107.402,23.1005 C107.402,22.2005 107.701,20.4005 109.201,20.4005 C111.602,20.4005 133.201,35.1005 133.201,38.4005 C133.201,40.2005 131.402,41.4005 130.501,42.0005 C128.701,42.9005 123.902,45.3005 121.201,48.0005 C120.301,48.9005 91.201,87.6015 87.601,87.6015 L87.601,87.6015 Z M30,82.5005 C24,82.5005 23.101,77.7005 20.401,64.5005 C17.401,50.7005 10.5,39.6005 6,32.1005 C5.7,31.5005 5.1,30.6005 5.1,29.7005 C5.1,28.5005 6.3,27.9005 7.2,27.9005 C12.3,27.9005 42,48.9005 42,68.1005 C42,79.2005 33,82.5005 30,82.5005 L30,82.5005 Z M83.101,108.3015 C81.301,108.3015 74.101,108.6015 74.101,113.4005 C74.101,114.6015 75.301,115.8015 76.501,116.4015 C93.601,125.4015 123.301,147.0015 123.301,163.2015 C123.301,167.4015 120.902,175.8015 112.501,175.8015 C106.801,175.8015 105.601,172.2015 102.001,160.8015 C94.801,138.3015 76.201,121.2015 75.001,121.2015 C73.501,121.2015 73.501,122.1015 73.501,127.8015 C73.501,135.0015 74.101,170.1015 74.101,177.9015 C74.401,189.3015 75.301,244.5025 75.301,257.1025 C75.301,270.9025 62.401,273.0025 60.901,273.0025 C57.301,273.0025 52.501,270.3025 52.501,263.7025 C52.501,257.1025 54.901,224.7025 55.2,217.5015 C55.501,213.6025 57.001,159.9015 57.001,157.2015 C57.001,155.4015 56.401,153.9015 54.301,153.9015 C52.801,153.9015 52.2,154.8015 47.7,163.5015 C35.401,186.0015 9,221.7025 5.1,221.7025 C4.5,221.7025 4.2,221.4025 4.2,220.8025 C4.2,220.2025 8.401,212.7025 9.3,211.2025 C42.301,147.6015 48,117.0005 48,114.9015 C48,112.2015 46.2,108.3015 41.101,108.3015 C35.7,108.3015 19.2,109.2015 14.101,109.5005 C13.5,109.5005 10.5,109.8015 9.901,109.8015 C8.7,109.8015 8.1,109.2015 7.2,108.0005 L1.5,101.1015 C0,99.6015 0,99.6015 0,99.0005 C0,98.4005 0.6,98.4005 1.2,98.4005 C2.7,98.4005 10.2,99.3005 12,99.3005 C17.7,99.6015 45,100.5005 48.901,100.5005 C56.101,100.5005 57.901,97.8005 57.901,91.8005 C57.901,74.7005 57.301,44.1005 56.7,28.2005 C56.401,24.9005 54.601,9.6005 54.601,6.2995 C54.601,4.7995 55.2,3.0005 57.001,3.0005 C57.601,3.0005 86.701,8.7005 86.701,14.1005 C86.701,15.6005 86.101,15.8995 83.701,18.3005 C81.301,20.1005 78.901,22.8005 77.101,30.6005 C77.101,31.2005 74.401,89.4005 74.401,92.4005 C74.401,100.5005 80.101,100.5005 84.901,100.5005 C88.201,100.5005 122.62,100.4225 125.021,98.3215 C126.82,96.5225 133.802,100.2015 133.802,104.4005 C133.802,108.3015 130.501,108.3015 122.402,108.3015 L83.101,108.3015 Z" id="Fill-5"></path>
            <path d="M519.302,189.602 C519.302,192.002 518.403,192.602 509.403,195.902 C503.403,198.302 501.002,200.402 487.802,215.702 C479.102,225.602 459.002,244.203 456.902,244.203 C456.002,244.203 455.402,243.302 455.402,242.402 C455.402,240.302 461.102,232.802 462.002,231.302 C474.302,210.602 483.602,185.102 484.802,177.602 C485.403,174.602 486.002,171.001 488.102,171.001 C489.002,171.001 490.502,171.001 492.903,172.202 C496.502,174.002 519.302,186.002 519.302,189.602 L519.302,189.602 Z M398.701,220.802 C398.701,234.302 390.301,239.402 384.301,239.402 C376.801,239.402 376.501,237.002 371.401,216.002 C369.901,209.102 364.801,194.702 358.801,184.202 C358.2,183.002 354.901,178.202 354.901,177.002 C354.901,175.502 356.401,175.502 357.301,175.502 C360.901,176.402 398.701,193.802 398.701,220.802 L398.701,220.802 Z M499.502,251.402 C508.802,251.402 534.289,251.402 537.888,248.703 C540.588,246.302 545.403,241.802 550.202,245.402 C559.503,252.303 560.703,253.203 560.703,255.602 C560.703,259.203 554.702,259.502 542.702,259.502 L358.801,259.502 C351.901,259.502 331.5,259.502 321,260.102 C319.8,260.102 315.3,261.002 314.401,261.002 C313.5,261.002 312.901,260.102 312,258.903 L306,252.002 C305.401,251.402 304.8,250.502 304.8,250.203 C304.8,249.602 305.1,249.303 305.7,249.303 C307.8,249.303 317.101,250.203 319.2,250.502 C333,251.102 346.2,251.402 360.301,251.402 L412.801,251.402 C415.201,251.402 419.701,251.402 421.501,247.802 C422.402,245.703 422.402,211.502 422.402,205.802 C422.402,201.602 422.402,162.001 421.501,159.901 C419.701,156.302 416.102,156.302 413.701,156.302 L396.902,156.302 C390.001,156.302 369.601,156.302 358.801,156.901 C357.901,157.202 353.401,157.802 352.501,157.802 C351.601,157.802 351,156.901 349.801,155.702 L344.101,148.801 C343.2,148.202 342.901,147.301 342.901,147.001 C342.901,146.401 343.2,146.102 343.801,146.102 C345.901,146.102 355.2,147.001 357.301,147.301 C370.801,147.901 384.301,148.202 398.402,148.202 L413.402,148.202 C422.402,148.202 422.402,144.602 422.402,132.001 C422.402,104.701 422.402,104.701 413.402,104.701 C412.201,104.701 397.501,105.001 392.101,105.601 C391.201,105.601 387.601,106.201 387.001,106.201 C386.101,106.201 385.501,105.601 384.901,104.401 L380.101,97.501 C379.501,96.601 378.901,96.001 378.901,95.401 C378.901,94.801 379.201,94.801 379.801,94.801 C381.301,94.801 387.601,95.401 388.801,95.701 C398.402,96.301 414.602,96.901 424.201,96.901 L438.302,96.901 C449.701,96.901 473.562,95.177 475.217,94.801 C477.94,94.182 486.602,96.901 486.602,100.501 C486.602,104.701 481.502,104.701 473.402,104.701 L453.002,104.701 C443.701,104.701 443.701,108.601 443.701,121.801 C443.701,147.001 444.001,148.202 452.701,148.202 L465.002,148.202 C480.302,148.202 498.897,146.364 507.459,144.503 C513.312,143.231 520.802,149.401 520.802,152.401 C520.802,156.302 514.202,156.302 504.602,156.302 L452.701,156.302 C446.102,156.302 443.701,158.102 443.701,165.602 C443.701,174.902 443.701,240.602 444.001,243.602 C444.302,249.002 445.802,251.402 453.002,251.402 L499.502,251.402 Z M450.002,22.5 C450.002,24.3 451.802,26.7 454.802,30.9 C489.903,79.501 541.202,95.701 561.303,102.001 C563.403,102.601 575.103,105.001 575.103,105.601 C575.103,106.501 574.203,106.801 566.103,110.101 C562.503,111.601 552.603,116.701 550.503,121.501 C548.702,126.001 548.103,126.901 546.003,126.901 C541.502,126.901 522.903,114.001 517.202,110.101 C490.502,91.801 469.202,70.5 448.802,35.4 C443.402,26.1 442.802,25.2 441.001,25.2 C439.201,25.2 438.001,26.4 436.201,28.2 C422.102,42.9 406.501,59.101 402.301,63.301 C365.7,99.601 309.3,129.601 297.3,129.601 C296.7,129.601 295.2,129.601 295.2,128.401 C295.2,127.501 302.401,123.001 304.2,121.801 C369.301,80.401 410.102,23.1 417.001,7.2 C419.701,0.9 420.001,0 421.801,0 C423.001,0 450.602,12 451.502,16.8 C451.802,17.7 450.002,21.6 450.002,22.5 L450.002,22.5 Z" id="Fill-7"></path>
        </g>
    </g>
</svg>