<?xml version="1.0" encoding="UTF-8"?>
<svg width="1171px" height="277px" viewBox="0 0 1171 277" version="1.1" xmlns="http://www.w3.org/2000/svg" xmlns:xlink="http://www.w3.org/1999/xlink">
    <title>nav3</title>
    <g id="Page-1" stroke="none" stroke-width="1" fill="none" fill-rule="evenodd">
        <g id="Group-5" transform="translate(0.374500, 0.579700)" fill="#000000">
            <path d="M234.603,3 C235.502,3 256.203,14.44 255.603,21.301 C255.263,25.186 253.803,30.601 253.803,32.4 C253.803,47.7 253.503,63.301 253.503,78.601 C253.503,104.401 256.203,218.402 256.203,241.503 C256.203,247.503 256.203,258.603 243.303,266.402 C237.303,270.003 230.403,272.403 227.103,272.403 C222.903,272.403 222.302,270.903 219.002,263.402 C217.502,260.103 215.103,258.902 199.203,252.902 C197.703,252.303 194.102,250.503 194.102,249.003 C194.102,248.402 194.703,247.202 196.502,247.202 C198.302,247.202 215.703,249.003 219.603,249.003 C234.903,249.003 234.903,242.402 234.903,237.303 C234.903,204.002 232.803,57.301 232.502,27.301 C232.502,24 231.303,9.9 231.303,6.9 C231.303,6 231.603,4.2 231.903,3.601 C232.502,3 234.002,3 234.603,3 L234.603,3 Z M203.884,49.451 C200.907,57.995 200.703,62.4 200.703,64.801 C200.102,72.301 200.403,128.401 200.403,140.701 C200.403,149.701 201.002,189.302 201.002,197.402 C201.002,207.302 194.102,213.002 186.002,213.002 C180.002,213.002 180.002,207.302 180.002,204.902 C180.002,203.402 180.302,196.202 180.302,195.002 C180.902,183.302 181.203,112.201 181.203,105.901 C181.203,93.001 180.002,65.101 179.102,53.7 C178.802,52.2 177.902,45.601 177.902,44.101 C177.902,43.501 177.902,41.7 178.802,41.101 C179.402,40.501 206.122,43.029 203.884,49.451 L203.884,49.451 Z M46.801,63.601 C40.201,63.601 39.301,63.9 35.701,71.101 C29.701,84.001 25.201,93.301 20.401,93.301 C18.901,93.301 18.601,92.401 18.601,91.201 C18.601,90.301 24,71.101 24.901,66.001 C28.8,45.9 29.401,37.501 29.401,15.601 C29.401,13.8 29.701,12.3 32.101,12.3 C33,12.3 42.301,16.5 43.801,17.101 C54.301,21.601 55.501,22.2 55.501,25.5 C55.501,26.4 44.101,48.001 44.101,52.801 C44.101,55.801 46.201,55.801 49.801,55.801 L66.601,55.801 C75.301,55.801 75.301,55.501 75.301,27 C75.301,23.7 74.401,8.7 74.401,5.101 C74.401,1.8 75.301,1.5 77.702,1.5 C80.702,1.5 101.702,3 101.702,9.601 C101.702,11.101 97.202,16.8 96.301,18.301 C94.202,22.5 94.202,29.4 94.202,34.801 C94.202,53.7 94.202,55.801 106.801,55.801 C108.902,55.801 136.292,54.739 140.473,53.593 C142.273,52.392 149.402,56.101 149.402,59.701 C149.402,63.601 143.102,63.601 133.202,63.601 L103.801,63.601 C94.501,63.601 94.501,66.601 94.501,92.401 C94.501,99.001 94.501,103.801 103.801,103.801 L114.001,103.801 C121.202,103.801 151.277,102.964 153.678,102.064 C156.078,100.864 166.202,104.701 166.202,108.001 C166.202,111.602 159.902,111.602 150.302,111.602 L104.101,111.602 C94.202,111.602 94.202,116.102 94.202,127.201 C94.202,149.701 94.202,152.102 104.101,152.102 L121.501,152.102 C127.202,152.102 138.396,151.154 142.026,149.969 C148.944,147.71 154.589,154.771 154.45,159.569 C154.167,169.31 149.402,169.202 149.402,178.502 C149.402,186.302 149.702,224.702 149.702,233.402 C149.702,252.003 129.001,256.203 128.102,256.203 C126.902,256.203 125.102,255.902 124.501,253.803 C123.301,249.003 122.702,246.902 118.202,243.003 C116.402,241.503 104.402,236.402 104.402,233.702 C104.402,232.503 105.902,232.503 107.402,232.503 C108.902,232.503 115.801,232.803 117.602,232.803 C126.902,232.803 129.301,231.003 129.902,226.502 L129.902,197.702 C129.902,160.202 129.602,160.202 120.301,160.202 L103.501,160.202 C100.801,160.202 96.902,160.502 95.402,163.502 C94.202,165.602 94.202,184.802 94.202,193.802 C94.202,219.303 94.202,237.902 94.801,249.902 C94.801,251.103 95.402,257.703 95.402,259.203 C95.402,270.903 83.101,273.603 81.301,273.603 C74.101,273.603 74.101,267.603 74.101,264.603 C74.101,262.503 74.702,252.303 74.702,249.902 C75.601,225.002 75.601,196.202 75.601,171.002 C75.601,165.602 75.601,160.202 66.601,160.202 L46.801,160.202 C38.401,160.202 37.201,164.102 37.201,170.401 C37.201,182.402 39.301,238.503 39.301,246.003 C39.301,252.003 38.401,254.402 35.401,257.103 C34.201,258.003 28.201,262.503 23.701,262.503 C18.601,262.503 18.3,257.402 18.3,255.303 C18,250.803 18.601,229.202 18.601,224.103 C18.601,213.303 17.101,160.502 17.101,148.502 C17.101,146.401 17.401,143.401 20.401,143.401 C23.401,143.401 25.8,144.602 33.901,149.102 C39.901,152.401 43.801,152.102 46.5,152.102 L66.601,152.102 C75.901,152.102 75.901,149.701 75.901,127.501 C75.901,115.802 75.901,111.602 66.601,111.602 L54.001,111.602 C48.901,111.602 26.701,111.901 16.201,112.501 C15.3,112.501 10.8,113.401 9.901,113.401 C8.701,113.401 8.1,112.501 7.201,111.301 L1.5,104.401 C0.901,103.501 0,102.901 0,102.301 C0,101.701 0.901,101.701 1.201,101.701 C3,101.701 12.3,102.602 14.401,102.602 C23.101,103.201 38.401,103.801 55.501,103.801 L66.601,103.801 C75.601,103.801 75.601,98.701 75.601,93.301 C75.601,63.9 75.601,63.601 66.601,63.601 L46.801,63.601 Z" id="Fill-9"></path>
            <path d="M478.2026,198.3018 C469.8026,198.3018 469.8026,204.3018 469.8026,210.6028 C469.8026,214.8028 470.1016,229.8028 470.1016,232.8028 C470.1016,236.4028 471.3026,252.0028 471.3026,257.7028 C471.3026,271.8028 457.8026,274.8028 453.0026,274.8028 C445.2016,274.8028 445.2016,271.5028 445.2016,268.8028 C445.2016,266.4028 447.9016,213.9028 447.9016,206.1028 C448.5026,177.9028 448.2016,119.4018 448.2016,89.7008 C448.2016,84.3008 448.2016,80.1008 440.7016,80.1008 L429.0016,80.1008 C423.9016,80.1008 423.3016,81.3008 415.2016,92.7008 C400.5016,113.1018 383.1006,131.1018 380.1006,131.1018 C379.2016,131.1018 378.6006,130.5008 378.6006,129.6018 C378.6006,128.4018 391.2016,107.7008 393.6006,103.5008 C408.3016,75.9018 430.2016,23.1008 430.2016,5.6998 C430.2016,2.9998 430.5016,1.1998 432.9016,1.1998 C434.7016,1.1998 442.8026,5.1008 444.6016,5.9998 C450.3026,8.4008 463.8026,13.7998 463.8026,17.1008 C463.8026,18.9008 461.7016,20.4008 460.2016,21.9008 C455.1016,25.8008 453.6016,28.1998 441.9016,49.8008 C441.3026,51.0008 431.4016,68.4008 431.4016,69.3008 C431.4016,72.0008 433.8026,72.0008 437.7016,72.0008 L509.7026,72.0008 C520.5026,72.0008 550.0726,71.9328 560.0336,70.1438 C569.4546,68.4528 569.104302,72.6008 569.104302,75.9018 C569.104302,80.1008 563.1026,80.1008 552.9026,80.1008 L478.5026,80.1008 C471.6016,80.1008 470.4016,83.7008 470.4016,88.8008 C470.1016,94.5008 470.1016,113.1018 470.1016,119.1018 C470.1016,124.2008 470.1016,129.6018 478.5026,129.6018 L499.8026,129.6018 C507.0026,129.6018 549.9316,129.0338 552.3306,128.1338 C555.0316,126.6338 559.2026,129.6018 559.2026,133.5018 C559.2026,137.7008 553.2026,137.7008 543.0026,137.7008 L478.2026,137.7008 C469.8026,137.7008 469.8026,144.0018 469.8026,147.3018 L469.8026,182.1018 C469.8026,186.6018 471.6016,190.2018 478.2026,190.2018 L505.5026,190.2018 C512.7026,190.2018 551.4366,189.6458 553.8366,188.7458 C556.5376,187.2458 564.9026,189.9028 564.9026,194.1028 C564.9026,198.3018 558.9026,198.3018 548.7026,198.3018 L478.2026,198.3018 Z M297.5996,165.0018 C297.5996,163.5018 305.7006,150.9018 307.8006,147.9018 C336.0006,104.4018 357.0016,39.6008 360.3016,6.6008 C360.3016,4.7998 360.6006,1.1998 362.7006,1.1998 C365.1006,1.1998 395.4016,11.4008 395.4016,18.3008 C395.4016,20.4008 394.5016,20.6998 388.8016,23.6998 C385.5016,25.1998 385.2016,26.4008 381.0016,35.6998 C373.8016,51.6008 363.9006,74.7008 363.9006,77.4018 C363.9006,80.4018 364.8016,180.6018 364.8016,193.2018 C364.8016,203.1028 365.7006,247.5028 365.7006,256.5028 C365.7006,261.0028 365.7006,274.8028 347.1006,274.8028 C340.8016,274.8028 340.8016,269.7028 340.8016,265.2028 C340.8016,259.8028 342.6006,235.8028 342.9006,231.0028 C344.7006,179.4028 345.0006,162.0018 345.0006,144.0018 C345.0006,140.4018 345.0006,117.6018 343.5006,117.6018 C343.2006,117.6018 338.1006,125.1018 335.1006,129.6018 C328.5006,138.9018 307.8006,165.0018 300.0006,166.2018 C299.0996,166.5018 297.5996,166.5018 297.5996,165.0018 L297.5996,165.0018 Z" id="Fill-11"></path>
            <path d="M680.7017,105.001 C673.8017,105.001 659.1007,105.001 649.2007,105.602 C647.1007,105.602 638.7007,106.501 636.9007,106.501 C635.7007,106.501 635.1007,105.901 634.5007,105.001 L627.3007,96.901 C627.0007,96.602 626.7007,96.001 626.7007,95.701 C626.7007,95.401 627.3007,95.102 627.9007,95.102 C629.1007,95.102 644.1007,96.301 647.1007,96.602 C656.7007,97.201 674.1007,97.201 682.2017,97.201 L710.7017,97.201 C721.5017,97.201 722.7017,93.601 722.7017,88.801 C722.7017,84.301 722.1017,75.901 720.6017,69.001 C720.3017,68.101 719.4017,65.101 719.4017,63.9 C719.4017,62.4 720.0017,61.501 721.5017,61.501 C723.0017,61.501 735.9017,63.301 743.4017,64.801 C747.3027,65.701 751.5027,66.601 751.5027,69.9 C751.5027,71.4 750.0027,72.301 746.7017,74.701 C743.4017,76.801 742.2017,79.801 742.2017,86.401 C742.2017,94.501 744.0017,97.201 751.8027,97.201 L780.9017,97.201 C793.2027,97.201 812.9407,97.603 815.8607,96.322 C820.5947,94.245 825.6267,95.102 825.6267,100.201 C825.6267,105.001 817.2267,105.001 809.4267,105.001 L757.5027,105.001 C743.7017,105.001 741.6017,105.301 741.6017,129.001 C741.6017,138.602 750.6017,139.201 755.7017,139.201 L767.1017,139.201 C781.5027,139.201 799.1457,139.905 805.4127,137.263 C810.6227,135.067 813.9787,137.102 813.9787,142.201 C813.9787,147.002 808.5777,147.002 797.7787,147.002 L758.7017,147.002 C752.4017,147.002 742.2017,147.602 740.4017,153.302 C740.4017,153.602 736.8027,174.902 736.8027,175.502 C736.8027,180.302 739.5017,181.502 744.0017,181.502 L800.4787,181.502 C809.7787,181.502 840.2127,180.291 846.6417,178.769 C857.3707,176.228 857.4787,183.002 857.4787,185.402 C857.4787,189.602 851.4787,189.602 841.5787,189.602 L763.5027,189.602 C763.2017,189.602 758.1017,189.602 758.1017,192.302 C758.1017,200.402 800.4027,244.803 860.4027,244.803 C866.7037,244.803 867.9027,244.803 867.9027,246.003 C867.9027,246.003 856.5037,255.303 854.7027,257.103 C849.9027,262.203 847.8037,265.203 846.6027,268.203 C845.7027,270.303 845.4027,271.203 844.2027,271.203 C842.4027,271.203 803.7027,263.103 769.8027,225.603 C759.9017,214.803 756.9017,210.002 747.9017,195.902 C746.4017,193.802 744.0017,189.602 738.6017,189.602 C733.2017,189.602 732.3027,191.402 727.2017,202.802 C710.4017,239.103 680.1007,256.203 657.3017,263.402 C639.3017,268.803 617.4007,270.903 615.0007,270.903 C613.2007,270.903 610.2007,270.903 610.2007,268.803 C610.2007,267.303 610.5007,267.303 618.3007,265.503 C685.8017,250.803 708.6007,202.202 708.6007,193.202 C708.6007,189.902 705.3017,189.602 703.8017,189.602 L660.0017,189.602 C653.1007,189.602 638.4007,189.602 628.5007,189.902 C626.4007,189.902 618.0007,191.103 616.2007,191.103 C615.0007,191.103 614.4007,190.202 613.8007,189.602 L606.5997,181.202 C606.3007,180.902 606.0007,180.302 606.0007,180.302 C606.0007,179.702 606.5997,179.402 607.2007,179.402 C608.4007,179.402 623.4007,180.602 626.4007,180.902 C636.0007,181.502 653.4007,181.502 661.5017,181.502 L705.3017,181.502 C714.3017,181.502 719.1017,173.402 719.1017,153.002 C719.1017,148.502 717.0017,147.002 709.8017,147.002 L695.7017,147.002 C687.0017,147.002 675.3017,147.002 664.2007,147.602 C662.1007,147.602 653.7007,148.502 651.9007,148.502 C650.4007,148.502 650.4007,148.201 649.5007,147.302 L643.2007,139.502 C642.9007,139.201 641.7007,138.002 641.7007,137.701 C641.7007,137.401 642.3017,137.102 642.9007,137.102 C645.3017,137.102 655.8017,138.002 657.9007,138.302 C664.2007,138.602 682.2017,139.201 697.2017,139.201 L709.5017,139.201 C719.4017,139.201 722.1017,135.002 722.1017,114.602 C722.1017,108.602 722.1017,105.001 709.5017,105.001 L680.7017,105.001 Z M650.4007,45.9 C640.2007,45.9 640.2007,46.501 636.3017,59.4 C628.2007,87.601 615.6007,87.601 612.9007,87.601 C607.2007,87.601 600.5997,83.101 600.5997,76.501 C600.5997,72.601 601.8007,71.701 611.0997,61.501 C623.4007,48.601 623.9837,36.936 624.2837,30.336 C624.2837,25.236 630.1157,26.335 634.2007,32.4 C636.9007,36.601 638.1007,38.101 646.8017,38.101 L704.4017,38.101 C717.9017,38.101 721.5017,35.7 721.5017,23.7 C721.5017,20.101 721.2017,13.2 720.6017,9.9 C720.3017,8.7 717.6017,3 717.6017,1.8 C717.6017,1.2 717.9017,0 719.7017,0 C721.5017,0 742.2017,4.8 744.9017,5.4 C747.0017,5.7 750.3027,6.601 750.3027,9 C750.3027,10.5 745.5017,15.3 744.9017,16.2 C743.7017,18 743.1017,19.801 743.1017,23.7 C743.1017,33.9 744.9017,38.101 757.5027,38.101 L813.6027,38.101 C818.7027,38.101 823.2027,38.101 828.0027,36.9 C830.1027,36.301 869.1027,47.7 869.1027,55.2 C869.1027,59.4 865.8037,60.9 862.2037,60.9 C860.1027,60.9 851.4027,60.301 849.6027,60.301 C837.9027,60.301 832.8037,62.701 826.5027,66.001 C825.0027,66.601 815.4027,71.701 814.5027,71.701 C813.9027,71.701 813.0027,71.701 813.0027,70.801 C813.0027,69.301 818.1027,62.701 818.4027,62.4 C820.2027,60.301 824.7027,54.001 824.7027,49.801 C824.7027,45.9 822.6027,45.9 816.6027,45.9 L650.4007,45.9 Z" id="Fill-13"></path>
            <path d="M990.3013,138.002 C992.1013,138.602 992.1013,139.201 993.6013,144.302 C994.5013,147.002 997.8013,151.201 1001.4023,151.201 C1006.8013,151.201 1011.6023,145.502 1011.6023,139.201 C1011.6023,118.501 978.6013,101.701 978.3013,101.701 C978.0013,101.701 977.7013,102.001 977.7013,102.301 C977.7013,102.901 987.3013,121.201 987.3013,125.102 C987.3013,130.201 982.5013,130.201 957.0013,130.201 C954.9013,130.201 950.1013,130.201 950.1013,127.501 C950.1013,125.102 967.2003,106.801 970.2003,102.901 C994.2013,72.001 994.8013,71.4 1001.4023,68.4 C1006.8013,66.001 1007.4023,65.701 1007.4023,63.9 C1007.4023,59.4 985.5013,47.101 984.0013,47.101 C981.0013,47.101 980.7013,50.101 980.1013,54.601 C978.8333,63.684 968.7923,82.726 959.6093,97.916 C955.3513,93.707 938.7003,70.501 938.7003,68.101 C938.7003,63.601 969.0013,23.4 971.1013,22.5 C976.8013,19.801 978.3013,19.2 978.3013,16.8 C978.3013,13.8 975.3013,12.3 973.5013,11.4 C970.8013,9.9 954.0013,1.5 951.6013,1.5 C950.4013,1.5 950.1013,3.601 950.1013,4.5 C949.5003,9.601 949.5003,11.7 948.3013,16.8 C944.4013,35.101 932.1013,62.701 925.5003,62.701 C924.6013,62.701 906.6003,57.301 903.0003,57.301 C902.4013,57.301 900.9013,57.301 900.9013,58.201 C900.9013,59.4 904.2003,62.4 905.7003,63.9 C917.4013,75.001 919.5003,76.801 929.4013,89.701 C937.8013,100.501 945.9013,114.001 949.2003,114.001 C938.1013,130.201 935.1013,130.201 927.6013,130.201 C917.7003,130.201 914.1003,129.302 912.3003,128.701 C910.5003,128.401 903.3003,125.102 901.8003,125.102 C900.9013,125.102 899.1003,125.102 899.1003,127.201 C899.1003,127.802 903.0003,137.701 905.1003,143.102 C905.7003,144.901 907.5003,153.002 908.7003,154.202 C909.3003,155.102 911.1003,156.901 912.6003,156.901 C914.4013,156.901 921.0003,150.901 922.5003,150.302 C926.1013,148.802 942.3013,145.802 943.8013,145.802 C949.5003,145.802 949.5003,150.901 949.5003,154.502 C949.5003,201.902 948.9013,232.202 948.3013,255.003 C948.0003,256.803 947.7003,265.203 947.7003,267.003 C947.7003,276.303 950.1013,276.303 954.6013,276.303 C968.4013,276.303 969.0013,269.403 969.0013,254.703 C969.0013,244.202 968.4013,198.603 968.4013,189.302 C968.4013,181.802 968.4013,146.102 969.0013,144.602 C971.1013,138.302 988.2013,137.102 990.3013,138.002" id="Fill-15"></path>
            <path d="M1118.7026,177.9023 L1054.2016,177.9023 C1046.4016,177.9023 1046.1016,175.5023 1046.1016,168.6013 C1046.1016,161.7023 1046.1016,159.0023 1054.2016,159.0023 L1118.7026,159.0023 C1126.5026,159.0023 1126.8036,161.4013 1126.8036,168.3013 C1126.8036,175.2023 1126.8036,177.9023 1118.7026,177.9023 M1119.0026,205.5023 L1054.8026,205.5023 C1047.3026,205.5023 1047.3026,203.4023 1047.3026,193.5023 C1047.3026,186.6013 1049.1016,185.7023 1054.8026,185.7023 L1119.3026,185.7023 C1122.9026,185.7023 1126.5026,185.7023 1126.5026,192.3013 C1126.5026,204.0023 1126.5026,205.5023 1119.0026,205.5023 M1054.2016,132.6013 L1118.7026,132.6013 C1126.2026,132.6013 1126.5026,135.3013 1126.5026,142.2013 C1126.5026,149.1013 1125.9026,151.2013 1118.7026,151.2013 L1054.2016,151.2013 C1046.7016,151.2013 1046.4016,148.5023 1046.4016,141.6013 C1046.4016,134.7013 1047.0016,132.6013 1054.2016,132.6013 M1145.7776,121.8393 C1136.7686,117.510906 1136.5786,126.2503 1118.4026,124.5013 L1056.0026,124.5013 C1052.4016,124.5013 1047.6016,124.5013 1041.6016,121.2013 C1033.5016,117.0013 1025.7016,117.0013 1025.7016,118.2013 C1025.7016,121.5013 1027.2016,136.2013 1027.2016,139.2013 C1027.2016,140.7013 1028.1016,171.9023 1028.1016,175.2023 C1028.1016,182.1013 1026.6016,210.9853 1026.6016,217.2853 C1026.6016,220.5843 1026.9016,224.7853 1033.5016,224.7853 C1038.3026,224.7853 1045.5016,222.6853 1047.3026,217.2853 C1049.1016,212.7853 1050.3026,213.6023 1055.1016,213.6023 L1119.3026,213.6023 C1122.6026,213.6023 1124.7026,212.4853 1125.6026,215.7853 C1126.8036,219.9853 1127.7026,222.6853 1133.7026,222.6853 C1136.1026,222.6853 1146.0026,221.7853 1146.0026,211.8853 C1146.0026,205.8843 1145.4026,181.8013 1145.4026,176.4023 C1145.4026,173.1013 1146.3036,157.5023 1146.3036,154.5023 C1146.3036,144.0023 1148.3776,123.0893 1145.7776,121.8393" id="Fill-17"></path>
            <path d="M935.7007,175.2021 C933.3017,174.3021 921.9007,168.9011 918.9007,168.9011 C917.1007,168.9011 917.1007,169.8021 917.7007,171.9021 C918.6007,174.6011 918.9007,176.4021 918.9007,179.1011 C918.9007,200.4021 904.8007,243.6021 900.0007,254.4021 C897.3007,260.4021 897.3007,261.0031 897.9007,261.0031 C902.0997,261.0031 919.8007,237.0031 936.0007,197.7021 C938.1007,192.9021 939.3017,191.1021 942.3017,189.6011 C945.6007,187.5021 946.8017,186.9021 946.8017,184.2021 C946.8017,181.8021 945.9007,179.1011 935.7007,175.2021" id="Fill-19"></path>
            <path d="M1000.5015,226.502 C1012.2015,226.502 1012.8015,211.803 1012.8015,210.002 C1012.8015,198.603 1002.0015,188.702 992.1015,179.402 C982.5015,170.702 981.6015,169.502 980.4005,171.002 C979.8015,171.602 981.6015,175.802 981.6015,176.402 C990.0015,195.902 991.8015,202.802 993.0015,211.202 C994.2015,221.402 995.1015,226.502 1000.5015,226.502" id="Fill-21"></path>
            <path d="M1056.9019,222.002 C1056.6019,222.002 1053.0029,228.002 1052.7019,228.603 C1046.4019,239.402 1015.2019,257.402 1010.1019,260.402 C999.6009,266.703 989.4009,272.403 989.4009,273.303 C989.4009,273.903 991.2019,273.903 991.8009,273.903 C995.1009,273.903 1012.5019,269.103 1036.2019,259.503 C1041.9019,257.103 1069.8019,244.202 1071.9019,243.902 C1078.2029,243.603 1080.0029,243.603 1080.0029,240.303 C1080.0029,235.803 1059.0029,221.402 1056.9019,222.002" id="Fill-23"></path>
            <path d="M1094.1021,223.8027 C1094.1021,224.7017 1095.6021,225.6027 1096.5021,226.2017 C1112.7031,234.0027 1127.7031,246.9027 1139.7031,261.0027 C1146.0021,268.2027 1149.3031,268.8027 1152.3031,268.8027 C1156.8031,268.8027 1163.7041,266.4027 1163.7041,260.1027 C1163.7041,238.2017 1095.0021,221.7017 1094.1021,223.8027" id="Fill-25"></path>
            <path d="M1155.3775,89.7944 C1149.9875,90.9244 1136.1035,94.5014 1124.1035,94.5014 L1104.6025,94.5014 C1096.2025,94.5014 1096.2025,93.0014 1096.2025,78.3004 C1096.2025,72.0014 1097.7025,69.3004 1104.6025,69.3004 L1136.1335,69.3004 C1146.0335,69.3004 1152.3345,69.3004 1152.3345,65.1004 C1152.3345,61.8004 1149.0335,55.1984 1140.0075,58.1444 C1133.7255,60.1934 1118.7025,61.5014 1105.2025,61.5014 C1095.6025,61.5014 1095.6025,59.1004 1095.6025,45.0014 C1095.6025,39.0014 1100.7025,39.0014 1104.3025,39.0014 L1148.4335,39.0014 C1158.6335,39.0014 1164.6335,39.0014 1164.6335,34.8004 C1164.6335,32.7004 1165.8435,23.2254 1153.9725,28.1384 C1149.1325,30.1424 1130.7025,30.9004 1119.6035,30.9004 L1104.0025,30.9004 C1098.6025,30.9004 1095.3025,30.0004 1095.3025,23.7004 C1095.3025,20.1004 1096.2025,18.9004 1098.9025,16.2004 C1100.1025,15.0004 1102.5025,12.6004 1102.5025,10.2004 C1102.5025,5.1004 1080.6025,0.9004 1076.4015,0.9004 C1073.4015,0.9004 1072.8025,2.4004 1072.8025,4.7994 C1072.8025,6.2994 1074.3025,13.7994 1074.6025,15.6004 C1075.2025,18.9004 1075.2025,23.4004 1075.2025,24.6004 C1075.2025,30.9004 1070.4015,30.9004 1067.7015,30.9004 C1055.7015,30.9004 1054.2015,31.2004 1032.6025,30.3004 C1029.6025,30.3004 1014.9015,28.8004 1013.7015,28.8004 C1012.8015,28.8004 1012.5015,29.1004 1012.5015,29.7004 C1012.5015,30.0004 1012.5015,30.3004 1013.7015,31.5004 L1019.7015,38.4004 C1020.6025,39.9004 1021.2015,40.5014 1022.1025,40.5014 C1023.3015,40.5014 1027.5015,39.9004 1028.7015,39.6004 C1039.2015,39.0014 1059.6025,39.0014 1066.5025,39.0014 C1075.5025,39.0014 1075.5025,40.2004 1075.5025,54.6004 C1075.5025,61.5014 1070.1025,61.5014 1067.4015,61.5014 C1062.9015,61.5014 1039.2015,60.6004 1034.4015,60.3004 C1032.6025,60.3004 1023.6025,59.4004 1021.8015,59.4004 C1020.9015,59.4004 1020.6025,59.4004 1020.6025,60.0014 C1020.6025,60.6004 1020.9015,60.6004 1021.8015,62.1004 L1027.8015,69.0014 C1028.7015,70.2014 1029.3015,70.8004 1030.5015,70.8004 C1031.4015,70.8004 1035.6025,70.2014 1036.8025,70.2014 C1045.5015,69.6004 1058.1025,69.3004 1067.1025,69.3004 C1074.9015,69.3004 1075.5025,72.0014 1075.5025,79.8004 C1075.5025,91.5014 1075.5025,94.8004 1067.4015,94.8004 L1060.2015,94.8004 C1046.4015,94.8004 1032.9015,94.2014 1019.1025,93.6004 C1017.3015,93.6004 1008.0015,92.4014 1005.9015,92.4014 C1005.3015,92.4014 1004.7015,92.7014 1004.7015,93.3004 C1004.7015,93.6004 1005.0015,93.9014 1006.2015,95.1014 L1011.9015,102.0014 C1012.8015,103.5014 1013.4015,104.1014 1014.6025,104.1014 C1015.5015,104.1014 1020.0015,103.5014 1020.9015,103.2014 C1031.4015,102.6014 1052.1025,102.6014 1058.7015,102.6014 L1154.7335,102.6014 C1164.6335,102.6014 1170.6335,102.6014 1170.6335,98.4014 C1170.6335,96.0014 1165.8435,87.6004 1155.3775,89.7944" id="Fill-27"></path>
        </g>
    </g>
</svg>