<?xml version="1.0" encoding="UTF-8"?>
<svg width="1270px" height="270px" viewBox="0 0 1270 270" version="1.1" xmlns="http://www.w3.org/2000/svg" xmlns:xlink="http://www.w3.org/1999/xlink">
    <title>nav4</title>
    <defs>
        <polygon id="path-1" points="0 -1.13686838e-13 272.4038 -1.13686838e-13 272.4038 269.102 0 269.102"></polygon>
        <polygon id="path-3" points="0 -1.13686838e-13 209.970139 -1.13686838e-13 209.970139 213.601 0 213.601"></polygon>
    </defs>
    <g id="Page-1" stroke="none" stroke-width="1" fill="none" fill-rule="evenodd">
        <g id="Group-6" transform="translate(0.000000, 0.352300)">
            <g id="Group-31">
                <mask id="mask-2" fill="white">
                    <use xlink:href="#path-1"></use>
                </mask>
                <g id="Clip-30"></g>
                <path d="M109.8018,227.702 C109.8018,226.503 110.7008,226.202 111.6018,226.202 C113.1018,226.202 120.0018,227.102 121.5018,227.102 C145.5018,227.102 153.3018,225.303 155.7018,222.902 C158.1018,220.803 159.0018,218.102 159.3018,216.003 C169.2018,169.502 179.7018,111.001 184.5018,66.001 C185.7018,56.4 189.0018,22.801 189.0018,10.5 C189.0018,4.5 189.0018,2.7 191.7018,2.7 C192.9028,2.7 212.7018,9.9 215.4028,10.801 C222.9028,13.801 223.8028,14.1 223.8028,17.1 C223.8028,18.9 216.9028,24.6 216.3028,26.1 C213.0028,31.801 187.2018,139.802 182.4028,159.601 C181.2018,165.302 167.7018,216.902 167.7018,218.102 C167.7018,221.102 170.4028,223.202 173.4028,223.202 C177.6028,223.202 221.7018,217.503 229.5028,216.003 C231.3028,215.702 235.8028,214.803 235.8028,210.002 C235.8028,207.602 227.1028,186.002 213.6028,168.002 C210.0028,163.202 209.4028,162.601 209.4028,161.702 C209.4028,161.101 209.7018,160.502 210.3028,160.502 C211.8028,160.502 225.0028,171.902 229.5028,176.102 C248.7028,194.102 272.4038,221.102 272.4038,242.402 C272.4038,258.602 261.6028,262.803 257.1028,262.803 C248.1028,262.803 247.5028,255.003 246.0028,240.902 C245.1028,232.202 243.3028,222.602 235.5028,222.602 C232.8028,222.602 144.0018,246.902 139.2018,249.003 C133.5018,251.402 132.3018,253.503 129.3018,257.703 C128.7008,258.903 127.8018,260.102 126.3018,260.102 C122.1018,260.102 109.8018,231.303 109.8018,227.702 L109.8018,227.702 Z M95.1018,92.101 C85.2008,92.101 84.6018,94.501 84.6018,112.201 C84.6018,120.002 87.3008,121.502 90.3008,122.101 C101.1018,124.802 136.5018,133.502 136.5018,156.902 C136.5018,163.802 132.3018,174.002 124.8018,174.002 C120.3018,174.002 119.7008,172.502 114.0018,158.101 C107.1018,140.401 91.2008,128.401 87.9018,128.401 C85.5008,128.401 84.6018,130.502 84.6018,132.601 C84.6018,141.601 87.9018,236.703 87.9018,249.902 C87.9018,264.903 78.3008,269.102 69.3008,269.102 C64.5008,269.102 63.9018,265.503 63.9018,260.703 C63.9018,252.903 65.4018,214.202 65.4018,205.502 C65.7008,183.902 66.3008,147.002 66.3008,145.502 C66.3008,143.401 66.3008,140.101 63.0008,140.101 C60.9018,140.101 60.3008,141.002 54.9018,148.802 C46.8008,160.802 8.6998,205.803 1.1998,205.803 C0.3008,205.803 -0.0002,205.202 -0.0002,204.303 C-0.0002,203.102 16.8008,181.502 18.9008,178.502 C44.7008,140.401 58.8008,100.501 58.8008,98.401 C58.8008,93.601 55.5008,92.101 52.2008,92.101 C45.0008,92.101 34.8008,92.401 22.8008,92.701 C21.3008,92.701 11.1008,93.901 10.1998,93.901 C8.9998,93.901 8.4008,93.001 7.4998,91.801 L1.8008,84.901 C0.6008,83.401 0.3008,83.401 0.3008,82.801 C0.3008,82.201 1.1998,82.201 1.4998,82.201 C3.3008,82.201 12.9008,83.101 14.9998,83.401 C26.1008,83.701 39.9008,84.301 51.0008,84.301 L57.6008,84.301 C63.3008,84.301 64.8008,83.401 66.0008,80.701 C67.2008,78.901 67.2008,55.201 67.2008,51.9 C67.2008,42.6 65.7008,37.801 57.9018,37.801 C56.4018,37.801 28.1998,40.501 22.5008,40.501 C20.4008,40.501 12.9008,40.501 12.9008,39.001 C12.9008,37.801 15.9008,37.2 16.1998,36.9 C41.7008,31.501 68.7008,23.1 89.7008,11.1 C92.4018,9.6 104.4018,-1.13686838e-13 106.2008,-1.13686838e-13 C109.2008,-1.13686838e-13 132.6018,20.1 132.6018,22.501 C132.6018,24.301 130.5018,25.2 128.4018,25.2 C127.8018,25.2 121.5018,24.6 120.0018,24.6 C118.8018,24.6 94.2008,30.001 89.4018,33.6 C85.2008,36.6 85.2008,49.801 85.2008,63.901 C85.2008,79.501 85.2008,81.001 88.5008,83.101 C90.3008,84.301 93.0008,84.301 99.0008,84.301 C107.1018,84.301 108.3018,82.801 114.6018,75.001 C118.8018,69.6 121.2008,66.6 123.0018,66.6 C124.2008,66.6 148.5018,82.801 148.5018,88.201 C148.5018,92.101 142.5018,92.101 132.6018,92.101 L95.1018,92.101 Z" id="Fill-29" fill="#000000" mask="url(#mask-2)"></path>
            </g>
            <path d="M493.8057,63.6004 C493.8057,78.3004 460.5057,78.3004 456.9057,78.3004 C423.0047,78.3004 404.4057,60.0004 404.4057,56.1004 C404.4057,55.5004 404.7047,54.6004 406.5047,54.6004 C407.4057,54.6004 411.0047,55.8004 414.9057,56.7014 C421.8057,58.2014 429.9057,58.5004 435.3057,58.5004 C450.0057,58.5004 464.1057,55.5004 468.3057,54.0004 C477.3057,50.7014 478.2057,50.4004 481.2057,50.7014 C486.6057,51.6004 493.8057,56.7014 493.8057,63.6004 M507.9067,209.7024 C507.9067,221.4024 498.9067,225.0024 456.9057,225.0024 C427.5047,225.0024 416.4057,217.5024 410.1057,211.5014 C408.6057,210.0014 400.8047,202.2024 400.8047,196.5014 C400.8047,195.9024 400.8047,193.5014 402.3047,193.5014 C403.5047,193.5014 408.3047,197.1024 409.5047,197.7024 C418.2047,202.2024 430.5047,202.8024 441.6057,202.8024 C449.4057,202.8024 460.2057,202.8024 467.7057,201.9024 C471.9057,201.6024 492.9067,199.5014 494.1057,199.5014 C505.5057,199.5014 507.9067,206.1024 507.9067,209.7024 M333.6047,179.7024 C338.7037,179.7024 341.4047,174.9024 348.0047,156.3014 C349.8047,151.2024 350.7037,148.8014 352.2037,148.8014 C353.7037,148.8014 353.7037,151.8014 353.7037,152.4014 C353.7037,155.7024 346.8047,190.8014 346.8047,198.0014 C346.8047,203.1024 351.0047,212.1024 351.6047,213.6024 C353.7037,217.8024 355.2037,222.9024 355.2037,226.8024 C355.2037,232.8024 350.4047,237.0024 345.3047,237.0024 C326.7037,237.0024 312.9047,186.0014 312.9047,157.2024 C312.9047,138.0014 315.3037,129.3014 325.5037,91.8004 C330.6047,73.5004 330.6047,66.0004 330.6047,60.6004 C330.6047,51.0004 328.8047,42.9004 327.6047,39.3004 C327.3047,38.4004 325.8047,34.8004 325.8047,33.9004 C325.8047,33.0004 327.0037,32.4004 328.2037,32.4004 C342.0037,32.4004 354.6047,59.7014 354.6047,70.5004 C354.6047,73.8004 354.6047,74.1004 348.9047,84.3004 C345.6047,90.6014 325.8047,134.7014 325.8047,161.7024 C325.8047,170.7024 328.8047,179.7024 333.6047,179.7024" id="Fill-32" fill="#000000"></path>
            <path d="M538.5029,100.5008 C538.5029,97.2008 540.3029,95.7008 543.0029,95.7008 C546.0029,95.7008 558.6029,99.3018 561.3029,99.3018 C568.8029,99.3018 572.7029,97.5008 609.6039,82.5008 C624.0039,76.8008 665.1039,60.0008 693.6049,60.0008 C737.7049,60.0008 770.10709,94.2008 770.10709,134.1018 C770.4049,188.7018 714.3049,221.1028 649.8039,221.1028 C647.1039,221.1028 642.6039,221.1028 642.6039,217.2018 C642.6039,214.8028 643.8039,214.8028 654.9039,213.3028 C729.0049,202.8028 747.0049,150.0018 747.0049,123.3018 C747.0049,88.5008 718.8049,73.2008 698.4039,73.2008 C669.9039,73.2008 627.0039,96.0008 600.9029,114.0008 C585.9029,124.5018 581.4029,126.3018 573.3029,126.3018 C555.3029,126.3018 538.5029,109.2008 538.5029,100.5008" id="Fill-34" fill="#000000"></path>
            <path d="M996.9111,90.0008 C1012.2111,102.3018 1023.6111,123.6018 1023.6111,147.3018 C1023.6111,153.0018 1023.0111,167.1018 1008.6111,167.1018 C993.9111,167.1018 993.9111,150.9008 993.9111,147.0018 C993.9111,122.1018 993.9111,109.5008 978.0111,93.6018 C975.6101,91.2008 963.6101,81.9008 963.6101,80.1018 C963.6101,79.2008 964.8101,78.6008 966.3101,78.6008 C966.6101,78.6008 984.0111,79.5008 996.9111,90.0008 M850.5091,83.1018 C850.5091,85.5008 849.9091,86.4008 846.9091,95.1018 C842.7091,106.8018 839.7091,117.9008 839.7091,133.8018 C839.7091,164.1018 855.3091,186.0018 864.6091,186.0018 C869.7091,186.0018 870.9091,184.5018 879.9091,169.5018 C881.7101,166.5018 886.8091,159.3018 889.2101,159.3018 C890.1091,159.3018 890.7101,160.5018 890.7101,161.7018 C890.7101,162.9018 890.1091,166.8018 889.8091,167.7018 C886.5101,181.5018 885.9091,184.2018 885.9091,190.5018 C885.9091,195.6028 886.8091,199.5018 887.7101,202.5018 C888.6091,205.8028 890.1091,210.9018 890.1091,212.4018 C890.1091,218.4018 883.8091,221.7018 878.7101,221.7018 C859.5101,221.7018 821.7091,190.2018 821.7091,132.9008 C821.7091,124.5018 825.9091,87.6018 825.9091,79.8008 C825.9091,73.8008 824.7091,65.7008 823.8081,62.4008 C821.7091,54.8998 821.4091,54.0008 821.4091,52.2008 C821.4091,51.3008 822.6091,51.0008 823.2091,51.0008 C837.0091,51.0008 850.5091,75.0008 850.5091,83.1018" id="Fill-36" fill="#000000"></path>
            <g id="Group-40" transform="translate(1059.642861, 31.801000)">
                <mask id="mask-4" fill="white">
                    <use xlink:href="#path-3"></use>
                </mask>
                <g id="Clip-39"></g>
                <path d="M12.2682386,39.9 C25.1682386,39.9 29.6682386,38.7 70.7692386,27 C97.4692386,19.5 165.870239,-1.13686838e-13 185.970239,-1.13686838e-13 C196.470239,-1.13686838e-13 209.970239,4.2 209.970239,14.4 C209.970239,22.2 202.170239,25.5 197.970239,25.5 C194.070239,25.5 176.970239,22.2 173.370239,22.2 C135.269239,22.2 92.6692386,57.3 92.6692386,134.701 C92.6692386,185.101 111.569239,188.401 129.269239,188.401 C133.769239,188.401 155.370239,186.601 157.770239,186.601 C167.070239,186.601 172.770239,190.502 172.770239,197.702 C172.770239,213.601 139.769239,213.601 137.969239,213.601 C76.4692386,213.601 76.4692386,163.502 76.4692386,149.401 C76.4692386,136.201 76.7692386,72.6 120.269239,33.9 C121.469239,33 127.469239,28.2 127.469239,27.599 C127.469239,27 126.269239,27 125.669239,27 C108.569239,27 46.1682386,53.7 36.5692386,59.1 C32.3692386,61.5 29.3692386,63 26.0692386,63 C11.0682386,63 -3.03176143,42.9 0.568238566,38.7 C1.76823857,37.2 10.7682386,39.9 12.2682386,39.9" id="Fill-38" fill="#000000" mask="url(#mask-4)"></path>
            </g>
        </g>
    </g>
</svg>