<?xml version="1.0" encoding="UTF-8"?>
<svg width="329px" height="29px" viewBox="0 0 329 29" version="1.1" xmlns="http://www.w3.org/2000/svg" xmlns:xlink="http://www.w3.org/1999/xlink">
    <title>NPO法人地方創生協会</title>
    <g id="Page-1" stroke="none" stroke-width="1" fill="none" fill-rule="evenodd">
        <g id="NPO法人地方創生協会" transform="translate(0.170000, 0.962000)" fill="#0C0C0C" fill-rule="nonzero">
            <path d="M24.41,4.008 C24.41,3.738 25.26,3.588 24.96,3.588 L17.45,3.588 C17.12,3.588 16.97,3.738 16.97,3.978 C16.97,4.278 17.12,4.428 17.45,4.458 C18.26,4.518 18.89,4.638 19.25,4.848 C19.76,5.118 20.03,5.748 20.03,6.768 L20.03,21.228 L19.94,21.228 L5.64,3.888 C5.49,3.678 5.31,3.588 5.07,3.588 L0.48,3.588 C0.15,3.588 2.84217094e-14,3.738 2.84217094e-14,3.978 C2.84217094e-14,4.278 0.15,4.428 0.45,4.458 C1.41,4.548 2.04,4.698 2.34,4.848 C2.85,5.118 3.12,5.808 3.12,6.888 L3.12,21.528 C3.12,22.608 2.85,23.268 2.25,23.538 C1.89,23.718 1.32,23.808 0.57,23.868 C0.27,23.898 0.12,24.048 0.12,24.288 C0.12,24.588 0.27,24.738 0.6,24.738 L7.05,24.738 C7.38,24.738 7.53,24.618 7.53,24.378 C7.53,24.078 7.38,23.898 7.08,23.868 C6.33,23.808 5.73,23.688 5.37,23.478 C4.86,23.208 4.59,22.548 4.59,21.528 L4.59,6.018 L4.68,6.018 L20,24.738 C20.15,24.948 20.3,25.038 20.57,25.038 L21.02,25.038 C21.35,25.038 21.5,24.888 21.5,24.558 L21.5,6.768 C21.5,5.718 21.8,5.058 22.37,4.788 C22.7,4.638 24.21,4.518 24.96,4.458 C25.26,4.428 24.41,4.278 24.41,4.008 Z" id="Path"></path>
            <path d="M33.1207692,6.858 C33.1207692,5.658 33.5407692,4.968 34.3507692,4.728 C34.7707692,4.638 35.2507692,4.578 35.7907692,4.578 L36.7207692,4.578 C40.8607692,4.578 43.9607692,6.198 43.9607692,9.438 C43.9607692,12.648 40.6507692,14.238 36.0307692,14.238 L33.1207692,14.238 L33.1207692,6.858 Z M26.9907692,4.008 C26.9907692,4.278 27.1707692,4.428 27.4407692,4.458 C28.4907692,4.578 30.1807692,4.758 30.4807692,4.998 C30.8707692,5.268 31.0507692,5.868 31.0507692,6.858 L31.0507692,21.558 C31.0507692,22.608 30.7507692,23.268 30.1507692,23.538 C29.8207692,23.688 28.2507692,23.778 27.4707692,23.868 C27.1707692,23.898 26.9907692,24.048 26.9907692,24.288 C26.9907692,24.588 27.1707692,24.738 27.4707692,24.738 L36.8807692,24.738 C37.1807692,24.738 37.3307692,24.618 37.3307692,24.378 C37.3307692,24.078 37.1807692,23.898 36.8807692,23.868 C35.9507692,23.808 34.3207692,23.688 33.9607692,23.478 C33.3907692,23.178 33.1207692,22.548 33.1207692,21.558 L33.1207692,15.378 L36.9007692,15.378 C42.5107692,15.378 45.3007692,13.338 45.3007692,9.258 C45.3007692,7.908 44.8807692,6.738 44.0107692,5.778 C42.7207692,4.338 40.5007692,3.588 37.3807692,3.588 L27.4707692,3.588 C27.1707692,3.588 26.9907692,3.738 26.9907692,4.008 Z" id="Shape"></path>
            <path d="M60.5225019,3.888 C62.9170105,3.888 65.896471,4.788 67.3970298,6.558 C68.9933689,8.418 69.7915385,10.968 69.7915385,14.178 C69.7915385,17.178 69.0891493,19.578 67.652444,21.378 C66.1199585,23.358 63.0447177,24.378 60.5225019,24.378 C57.5852379,24.378 54.3503631,23.118 52.8498044,20.658 C51.7642938,18.858 51.2215385,16.698 51.2215385,14.058 C51.2215385,11.118 51.9239277,8.748 53.3287061,6.918 C54.8611916,4.908 57.9045057,3.888 60.5225019,3.888 Z M60.5222684,2.838 C57.596502,2.838 54.1111735,3.798 52.1292027,5.688 C49.8640932,7.878 48.7315385,10.698 48.7315385,14.118 C48.7315385,17.658 49.8640932,20.508 52.1606625,22.668 C54.1426334,24.558 57.6279618,25.518 60.5222684,25.518 C63.4480348,25.518 66.8704436,24.588 68.8524144,22.698 C71.1489837,20.538 72.2815385,17.658 72.2815385,14.058 C72.2815385,10.698 71.1489837,7.878 68.8838742,5.688 C66.9019034,3.798 63.4480348,2.838 60.5222684,2.838 Z" id="Shape"></path>
            <path d="M84.3123077,5.808 C84.0723077,5.658 83.8323077,5.748 83.7123077,6.078 C82.0923077,11.238 80.5923077,15.138 79.3023077,17.778 C78.9423077,18.468 78.3723077,18.828 77.4723077,18.828 C77.2623077,18.828 77.0223077,18.798 76.6923077,18.768 C76.3923077,18.738 76.2123077,18.828 76.2123077,19.068 C76.2123077,19.338 76.3623077,19.488 76.6323077,19.578 C78.0123077,19.968 78.7023077,20.988 78.7023077,22.698 C78.7023077,23.328 78.6423077,24.078 78.5223077,24.918 C78.4323077,25.668 78.3723077,26.088 78.3723077,26.118 C78.3723077,26.808 78.7323077,27.138 79.4823077,27.138 C80.4123077,27.138 80.8623077,26.448 80.8623077,25.158 C80.8623077,24.288 80.7123077,23.418 80.4723077,22.518 C80.3523077,22.038 80.2923077,21.648 80.2923077,21.348 C80.2923077,20.988 80.3823077,20.388 80.6223077,19.608 L80.7423077,19.188 L84.5223077,6.438 C84.6123077,6.198 84.5523077,5.988 84.3123077,5.808 Z M78.2523077,1.068 C78.1323077,1.278 78.2223077,1.428 78.4623077,1.608 C79.6623077,2.388 80.4123077,3.228 80.7723077,4.158 C81.0123077,4.788 81.3423077,5.118 81.7623077,5.118 C82.4523077,5.118 82.8123077,4.728 82.8123077,3.948 C82.8123077,2.628 81.4923077,1.578 78.8223077,0.858 C78.5223077,0.798 78.3423077,0.858 78.2523077,1.068 Z M76.0923077,7.518 C76.0023077,7.698 76.0623077,7.878 76.3023077,8.058 C77.3823077,8.928 78.1023077,9.918 78.4623077,10.998 C78.6123077,11.508 78.9423077,11.748 79.4223077,11.748 C80.1123077,11.748 80.4423077,11.358 80.4423077,10.608 C80.4423077,9.258 79.1823077,8.178 76.6623077,7.398 C76.3623077,7.308 76.1823077,7.338 76.0923077,7.518 Z M95.4323077,6.888 L104.452308,6.888 C104.722308,6.888 104.902308,6.828 104.992308,6.648 C105.112308,6.408 105.082308,6.228 104.932308,6.018 C104.422308,5.388 103.972308,4.878 103.582308,4.458 C103.372308,4.248 103.132308,4.278 102.922308,4.518 L101.842308,6.138 L95.4323077,6.138 L95.4323077,2.058 C96.3023077,1.728 97.7523077,1.428 97.7523077,1.158 C97.7523077,0.768 95.9123077,0.528 94.2023077,0.438 C93.8723077,0.408 93.6923077,0.588 93.6923077,0.888 L93.6923077,6.138 L86.1123077,6.138 C85.7823077,6.138 85.6023077,6.288 85.6923077,6.498 C85.7823077,6.768 85.9623077,6.888 86.2323077,6.888 L93.6923077,6.888 L93.6923077,13.428 L83.7423077,13.428 C83.4123077,13.428 83.2323077,13.578 83.3223077,13.818 C83.4423077,14.058 83.5923077,14.178 83.8623077,14.178 L91.8823077,14.178 C91.1323077,17.238 89.0523077,20.208 87.6123077,23.088 L86.8623077,23.118 L84.1023077,23.238 C83.7723077,23.238 83.6223077,23.448 83.7123077,23.778 C84.0723077,25.338 84.4023077,26.148 84.7623077,26.148 C85.0023077,26.148 85.2123077,25.788 85.4223077,25.038 C90.4623077,24.438 98.0223077,23.748 102.072308,22.998 C102.492308,23.808 102.822308,24.498 103.062308,25.068 C103.422308,25.968 103.782308,26.388 104.172308,26.388 C104.892308,26.388 105.252308,25.968 105.252308,25.128 C105.252308,24.498 104.922308,23.688 104.262308,22.728 C102.942308,20.838 102.022308,19.978 99.5023077,18.178 C99.2623077,18.028 99.0823077,17.998 98.9623077,18.148 C98.7523077,18.358 98.7523077,18.598 98.9623077,18.808 C100.552308,20.458 100.752308,20.928 101.562308,22.188 C98.7123077,22.548 92.6823077,22.908 89.4723077,22.998 L88.5723077,23.028 C90.2523077,20.418 92.7223077,17.568 94.0123077,14.538 C94.0123077,14.448 94.0723077,14.358 94.1623077,14.178 L105.012308,14.178 C105.252308,14.178 105.432308,14.088 105.552308,13.878 C105.702308,13.638 105.702308,13.428 105.522308,13.218 C105.012308,12.588 104.532308,12.048 104.022308,11.568 C103.812308,11.358 103.572308,11.388 103.392308,11.628 L102.042308,13.428 L95.4323077,13.428 L95.4323077,6.888 Z" id="Shape"></path>
            <path d="M122.833077,2.958 C123.703077,2.688 125.153077,2.418 125.153077,2.118 C125.153077,1.698 123.253077,1.428 121.453077,1.338 C121.093077,1.308 120.943077,1.488 120.943077,1.788 L120.943077,4.158 C120.943077,9.168 119.103077,13.368 117.483077,16.728 C115.683077,20.418 112.623077,23.388 108.273077,25.608 C108.003077,25.758 107.883077,25.938 108.033077,26.148 C108.183077,26.358 108.393077,26.448 108.663077,26.328 C112.683077,24.738 115.743077,22.548 117.783077,19.698 C119.763077,16.938 122.023077,13.308 122.593077,8.868 C122.953077,11.538 123.613077,13.908 124.573077,15.978 C126.283077,19.698 129.313077,22.968 133.693077,25.758 C133.963077,25.908 134.173077,25.848 134.353077,25.638 C134.623077,25.278 134.923077,24.948 135.343077,24.588 C135.643077,24.378 135.613077,24.138 135.283077,23.958 C126.973077,19.758 122.833077,13.098 122.833077,3.948 L122.833077,2.958 Z" id="Path"></path>
            <path d="M149.483846,9.108 C149.753846,9.108 149.903846,9.018 150.023846,8.838 C150.143846,8.598 150.143846,8.418 149.963846,8.178 C149.663846,7.758 149.273846,7.308 148.823846,6.798 C148.613846,6.558 148.343846,6.558 148.163846,6.858 L147.143846,8.358 L145.703846,8.358 L145.703846,2.208 C146.543846,1.878 146.963846,1.578 146.963846,1.338 C146.963846,0.978 146.153846,0.738 144.533846,0.648 C144.203846,0.618 144.023846,0.798 144.023846,1.098 L144.023846,8.358 L140.423846,8.358 C140.093846,8.358 139.913846,8.508 139.973846,8.718 C140.063846,8.988 140.243846,9.108 140.513846,9.108 L144.023846,9.108 L144.023846,19.908 C143.213846,20.148 141.953846,20.418 140.213846,20.778 C139.913846,20.838 139.763846,21.048 139.853846,21.348 C140.243846,22.788 140.633846,23.478 141.053846,23.478 C141.293846,23.478 141.473846,23.148 141.563846,22.458 C144.323846,21.468 147.053846,20.298 149.753846,18.948 C149.993846,18.828 150.113846,18.708 150.083846,18.528 C150.053846,18.198 149.843846,18.078 149.543846,18.168 C148.253846,18.618 146.993846,19.038 145.703846,19.428 L145.703846,9.108 L149.483846,9.108 Z M157.863846,9.348 L157.863846,20.478 C157.863846,20.778 158.013846,20.958 158.313846,20.958 L159.063846,20.958 C159.393846,20.958 159.543846,20.778 159.543846,20.478 L159.543846,8.808 L164.893846,7.428 L164.893846,16.098 C164.893846,16.728 164.533846,17.028 163.813846,17.028 C163.183846,17.028 162.463846,16.968 161.743846,16.908 C161.413846,16.878 161.233846,16.968 161.233846,17.178 C161.233846,17.448 161.383846,17.598 161.653846,17.658 C162.283846,17.778 162.763846,17.928 163.123846,18.078 C163.453846,18.228 163.663846,18.498 163.783846,18.888 C163.843846,19.188 163.993846,19.368 164.293846,19.338 C165.823846,19.218 166.603846,18.438 166.603846,16.968 L166.603846,7.698 L167.353846,7.128 C167.503846,7.038 167.563846,6.918 167.563846,6.798 C167.563846,6.528 167.053846,6.048 166.063846,5.328 C165.793846,5.118 165.553846,5.148 165.373846,5.418 L164.563846,6.618 L159.543846,7.908 L159.543846,1.848 C160.353846,1.518 160.773846,1.248 160.773846,0.978 C160.773846,0.588 159.963846,0.318 158.343846,0.258 C158.043846,0.258 157.863846,0.408 157.863846,0.708 L157.863846,8.448 L152.783846,9.738 L152.783846,3.828 C153.533846,3.498 153.923846,3.198 153.923846,2.958 C153.923846,2.598 153.113846,2.388 151.553846,2.328 C151.223846,2.298 151.043846,2.478 151.043846,2.778 L151.043846,10.278 L147.923846,11.298 C147.623846,11.388 147.503846,11.598 147.653846,11.838 C147.833846,12.048 148.013846,12.108 148.283846,12.048 L151.043846,11.178 L151.043846,23.238 C151.043846,24.408 151.283846,25.188 151.823846,25.548 C152.423846,25.968 154.703846,26.148 158.633846,26.148 C162.593846,26.148 167.023846,26.028 167.983846,25.758 C168.643846,25.578 169.093846,25.158 169.243846,24.558 C169.303846,24.258 169.153846,24.168 168.883846,24.018 C168.433846,23.778 168.193846,22.998 168.193846,21.708 C168.193846,21.528 168.223846,20.868 168.253846,19.788 C168.253846,19.488 168.163846,19.338 167.983846,19.248 C167.653846,19.128 167.443846,19.278 167.413846,19.608 C167.173846,21.768 166.843846,23.148 166.453846,23.748 C166.123846,24.258 162.143846,24.498 158.453846,24.498 C155.453846,24.498 153.743846,24.408 153.293846,24.228 C152.933846,24.078 152.783846,23.748 152.783846,23.208 L152.783846,10.668 L157.863846,9.348 Z" id="Shape"></path>
            <path d="M173.534615,6.018 C173.174615,6.018 173.024615,6.168 173.114615,6.378 C173.174615,6.648 173.354615,6.768 173.624615,6.768 L182.984615,6.768 C182.984615,7.278 182.984615,7.758 182.954615,8.268 L182.924615,8.748 L182.924615,9.318 C182.924615,12.348 182.384615,14.868 181.724615,16.878 C180.494615,20.718 177.914615,23.838 174.044615,26.238 C173.774615,26.388 173.714615,26.598 173.834615,26.838 C174.014615,27.078 174.224615,27.168 174.494615,27.018 C177.584615,25.548 179.954615,23.628 181.484615,21.288 C182.924615,19.128 183.884615,16.458 184.394615,13.278 L194.604615,13.278 C194.574615,17.538 194.244615,20.718 193.614615,22.818 C193.344615,23.808 192.594615,24.288 191.364615,24.288 C190.134615,24.288 187.544615,24.168 185.624615,23.898 C185.294615,23.868 185.084615,23.988 185.084615,24.258 C185.084615,24.528 185.234615,24.708 185.534615,24.738 C187.244615,25.038 189.384615,25.308 189.894615,25.488 C190.554615,25.728 191.004615,26.028 191.154615,26.418 C191.274615,26.688 191.394615,26.868 191.694615,26.838 C192.774615,26.778 193.584615,26.448 194.214615,25.848 C195.504615,24.588 196.224615,20.628 196.374615,13.848 L197.154615,13.368 C197.334615,13.248 197.424615,13.128 197.424615,12.978 C197.424615,12.708 196.944615,12.168 195.924615,11.358 C195.684615,11.178 195.444615,11.208 195.264615,11.418 L194.334615,12.528 L184.514615,12.528 C184.754615,10.938 184.874615,9.018 184.874615,6.768 L198.834615,6.768 C199.104615,6.768 199.224615,6.708 199.314615,6.558 C199.434615,6.318 199.434615,6.108 199.224615,5.898 C198.654615,5.238 198.114615,4.668 197.604615,4.188 C197.364615,3.978 197.154615,4.008 196.944615,4.278 L195.594615,6.018 L186.464615,6.018 L186.464615,1.908 C187.394615,1.578 187.844615,1.278 187.844615,0.978 C187.844615,0.588 186.974615,0.318 185.204615,0.228 C184.874615,0.198 184.694615,0.378 184.694615,0.678 L184.694615,6.018 L173.534615,6.018 Z" id="Path"></path>
            <path d="M223.965385,24.618 C223.965385,24.918 224.115385,25.068 224.415385,25.098 C225.615385,25.338 226.395385,25.488 226.845385,25.668 C227.325385,25.848 227.625385,26.148 227.745385,26.508 C227.835385,26.808 227.955385,26.958 228.255385,26.928 C228.735385,26.898 229.125385,26.838 229.425385,26.748 C230.385385,26.448 230.835385,25.728 230.835385,24.648 L230.835385,2.238 C231.615385,1.968 232.005385,1.728 232.005385,1.488 C232.005385,1.098 231.195385,0.828 229.605385,0.678 C229.305385,0.648 229.095385,0.828 229.095385,1.128 L229.095385,23.598 C229.095385,24.198 228.735385,24.528 227.955385,24.528 C226.845385,24.528 225.705385,24.438 224.475385,24.288 C224.145385,24.258 223.965385,24.378 223.965385,24.618 Z M224.355385,20.688 C224.655385,20.688 224.805385,20.538 224.805385,20.208 L224.805385,5.238 C225.585385,4.968 225.975385,4.728 225.975385,4.488 C225.975385,4.098 225.195385,3.828 223.635385,3.738 C223.305385,3.708 223.125385,3.858 223.125385,4.158 L223.125385,20.208 C223.125385,20.538 223.275385,20.688 223.605385,20.688 L224.355385,20.688 Z M210.365385,6.648 C210.035385,6.648 209.855385,6.798 209.945385,7.038 C210.035385,7.278 210.215385,7.398 210.455385,7.398 L216.365385,7.398 C216.605385,7.398 216.755385,7.338 216.875385,7.188 C217.025385,6.948 217.025385,6.738 216.815385,6.528 C216.485385,6.168 216.125385,5.838 215.795385,5.538 C215.555385,5.358 215.345385,5.388 215.135385,5.598 L214.265385,6.648 L210.365385,6.648 Z M213.425385,1.548 C214.265385,1.428 214.685385,1.248 214.685385,1.008 C214.685385,0.648 213.995385,0.318 212.615385,0.018 C212.315385,-0.042 212.105385,0.048 211.985385,0.288 C210.185385,4.068 207.695385,7.218 204.515385,9.678 C204.275385,9.888 204.215385,10.068 204.365385,10.278 C204.545385,10.518 204.755385,10.578 205.025385,10.398 C208.505385,8.088 211.145385,5.358 213.035385,2.208 C215.375385,3.558 217.385385,5.298 219.125385,7.518 C219.365385,7.818 219.635385,7.998 219.935385,7.998 C220.505385,7.998 220.775385,7.668 220.775385,7.068 C220.775385,6.438 220.265385,5.688 219.185385,4.818 C217.775385,3.648 215.855385,2.568 213.425385,1.578 L213.425385,1.548 Z M218.355385,20.508 L218.355385,24.858 L210.395385,24.858 L210.395385,20.508 L218.355385,20.508 Z M209.165385,16.008 C209.195385,15.738 209.195385,15.288 209.195385,14.718 L209.195385,13.428 L217.905385,13.428 L217.905385,16.008 L209.165385,16.008 Z M217.905385,10.308 L217.905385,12.678 L209.195385,12.678 L209.195385,10.308 L217.905385,10.308 Z M208.745385,26.748 C208.745385,27.048 208.925385,27.198 209.225385,27.198 L209.945385,27.198 C210.245385,27.198 210.395385,27.048 210.395385,26.748 L210.395385,25.608 L218.355385,25.608 L218.355385,26.328 C218.355385,26.658 218.505385,26.808 218.835385,26.808 L219.495385,26.808 C219.795385,26.808 219.975385,26.658 219.975385,26.328 L219.975385,20.958 L220.635385,20.508 C220.755385,20.418 220.785385,20.328 220.785385,20.238 C220.785385,19.968 220.335385,19.518 219.435385,18.858 C219.165385,18.678 218.925385,18.708 218.745385,18.948 L218.085385,19.758 L210.635385,19.758 C210.005385,19.458 209.405385,19.218 208.775385,18.978 C208.925385,18.318 209.045385,17.598 209.105385,16.758 L217.905385,16.758 L217.905385,17.298 C217.905385,17.598 218.085385,17.748 218.385385,17.748 L219.045385,17.748 C219.375385,17.748 219.525385,17.598 219.525385,17.298 L219.525385,10.758 L220.155385,10.338 C220.335385,10.218 220.425385,10.128 220.425385,10.008 C220.425385,9.768 219.975385,9.318 219.105385,8.598 C218.865385,8.388 218.625385,8.418 218.415385,8.658 L217.665385,9.558 L209.525385,9.558 C209.075385,9.348 208.565385,9.138 208.025385,8.928 C207.725385,8.778 207.485385,8.958 207.485385,9.288 L207.485385,14.808 C207.485385,19.008 206.375385,22.548 204.155385,25.518 C204.005385,25.758 203.975385,25.938 204.125385,26.088 C204.335385,26.298 204.575385,26.298 204.785385,26.088 C206.855385,24.108 208.145385,21.798 208.745385,19.128 L208.745385,26.748 Z" id="Shape"></path>
            <path d="M261.616154,16.458 C261.886154,16.458 262.036154,16.338 262.156154,16.128 C262.306154,15.888 262.276154,15.708 262.096154,15.498 C261.646154,14.928 261.196154,14.418 260.716154,13.938 C260.476154,13.698 260.236154,13.728 260.056154,13.998 L258.796154,15.708 L252.246154,15.708 L252.246154,8.688 L263.086154,8.688 C263.356154,8.688 263.506154,8.598 263.626154,8.418 C263.746154,8.178 263.746154,7.998 263.566154,7.788 C263.146154,7.248 262.666154,6.708 262.126154,6.168 C261.886154,5.928 261.646154,5.958 261.466154,6.228 L260.176154,7.938 L252.246154,7.938 L252.246154,2.418 C253.116154,2.088 253.566154,1.788 253.566154,1.518 C253.566154,1.128 252.666154,0.858 250.866154,0.738 C250.506154,0.708 250.356154,0.888 250.356154,1.188 L250.356154,7.938 L242.996154,7.938 C243.476154,6.648 243.896154,5.388 244.256154,4.128 C245.156154,3.978 245.606154,3.768 245.606154,3.468 C245.606154,3.108 244.766154,2.688 243.116154,2.238 C242.786154,2.148 242.576154,2.268 242.516154,2.568 C241.616154,7.398 240.056154,11.448 237.836154,14.778 C237.656154,15.048 237.656154,15.228 237.836154,15.348 C238.076154,15.528 238.286154,15.528 238.496154,15.288 C240.206154,13.308 241.586154,11.118 242.666154,8.688 L250.356154,8.688 L250.356154,15.708 L241.076154,15.708 C240.716154,15.708 240.536154,15.858 240.626154,16.098 C240.716154,16.338 240.896154,16.458 241.166154,16.458 L250.356154,16.458 L250.356154,24.558 L237.536154,24.558 C237.206154,24.558 237.026154,24.708 237.116154,24.948 C237.206154,25.188 237.386154,25.308 237.656154,25.308 L264.496154,25.308 C264.766154,25.308 264.916154,25.218 265.036154,25.038 C265.156154,24.798 265.156154,24.618 264.976154,24.408 C264.436154,23.718 263.926154,23.148 263.476154,22.668 C263.266154,22.458 262.996154,22.488 262.816154,22.728 L261.406154,24.558 L252.246154,24.558 L252.246154,16.458 L261.616154,16.458 Z" id="Path"></path>
            <path d="M277.486923,9.828 C277.726923,9.828 277.876923,9.768 277.996923,9.588 C278.116923,9.348 278.116923,9.138 277.966923,8.928 C277.636923,8.448 277.246923,7.968 276.856923,7.518 C276.646923,7.278 276.376923,7.278 276.196923,7.548 L275.176923,9.078 L273.946923,9.078 L273.946923,1.938 C274.816923,1.608 275.236923,1.278 275.236923,1.008 C275.236923,0.588 274.396923,0.348 272.776923,0.288 C272.446923,0.288 272.266923,0.438 272.266923,0.738 L272.266923,9.078 L268.846923,9.078 C268.486923,9.078 268.336923,9.228 268.396923,9.438 C268.486923,9.708 268.636923,9.828 268.936923,9.828 L272.266923,9.828 L272.266923,26.748 C272.266923,27.048 272.416923,27.198 272.746923,27.198 L273.466923,27.198 C273.796923,27.198 273.946923,27.048 273.946923,26.748 L273.946923,9.828 L277.486923,9.828 Z M285.936923,4.758 C285.306923,7.908 282.996923,10.278 279.096923,11.868 C278.796923,11.988 278.646923,12.138 278.736923,12.318 C278.886923,12.558 279.096923,12.648 279.366923,12.558 C284.346923,11.178 287.136923,8.538 287.736923,4.668 L293.736923,4.668 C293.706923,6.528 293.586923,7.848 293.346923,8.628 C293.166923,9.318 292.626923,9.678 291.726923,9.678 C291.186923,9.678 290.136923,9.618 288.576923,9.408 L288.456923,9.408 C288.126923,9.348 287.946923,9.408 287.946923,9.618 C287.946923,9.888 288.096923,10.068 288.396923,10.098 C289.716923,10.368 290.526923,10.578 290.886923,10.728 C291.306923,10.908 291.576923,11.178 291.696923,11.478 C291.786923,11.748 291.936923,11.898 292.236923,11.898 C293.046923,11.808 293.706923,11.478 294.216923,10.998 C294.906923,10.278 295.326923,8.328 295.416923,5.118 L296.106923,4.698 C296.256923,4.578 296.346923,4.488 296.346923,4.398 C296.346923,4.158 295.896923,3.678 294.966923,2.898 C294.726923,2.688 294.486923,2.718 294.276923,2.958 L293.526923,3.918 L287.826923,3.918 C287.886923,3.228 287.886923,2.838 287.886923,2.718 L287.886923,1.818 C288.666923,1.488 289.056923,1.218 289.056923,0.978 C289.056923,0.648 288.246923,0.408 286.656923,0.318 C286.326923,0.288 286.146923,0.468 286.146923,0.768 L286.146923,2.658 C286.146923,3.108 286.116923,3.558 286.056923,4.008 L280.086923,4.008 C279.756923,4.008 279.576923,4.158 279.666923,4.398 C279.786923,4.638 279.936923,4.758 280.206923,4.758 L285.936923,4.758 Z M286.826923,16.758 C286.706923,16.548 286.316923,16.188 285.596923,15.648 C285.326923,15.468 285.116923,15.498 284.936923,15.708 L284.186923,16.668 L280.846923,16.668 L280.846923,14.538 C281.536923,14.268 281.896923,13.998 281.896923,13.788 C281.896923,13.428 281.146923,13.188 279.676923,13.098 C279.346923,13.068 279.166923,13.248 279.166923,13.548 L279.166923,16.758 L275.956923,16.758 C275.596923,16.758 275.416923,16.908 275.506923,17.148 C275.596923,17.388 275.776923,17.508 276.046923,17.508 L279.136923,17.508 C278.896923,21.228 277.696923,24.228 275.536923,26.508 C275.326923,26.748 275.266923,26.928 275.386923,27.048 C275.596923,27.258 275.836923,27.288 276.046923,27.108 C278.986923,24.978 280.546923,21.738 280.816923,17.418 L284.456923,17.418 C284.456923,20.538 284.396923,22.608 284.186923,23.628 C284.066923,24.318 283.586923,24.678 282.836923,24.678 C282.416923,24.678 281.756923,24.618 280.826923,24.498 C280.496923,24.468 280.316923,24.558 280.316923,24.768 C280.316923,25.038 280.436923,25.188 280.736923,25.278 C281.336923,25.458 281.756923,25.608 281.996923,25.728 C282.296923,25.878 282.506923,26.148 282.596923,26.448 C282.686923,26.748 282.806923,26.898 283.106923,26.898 C284.126923,26.808 284.846923,26.448 285.266923,25.788 C285.716923,25.038 285.986923,22.368 286.016923,17.688 L286.316923,17.508 L290.976923,17.508 C290.706923,21.168 289.446923,24.078 287.166923,26.268 C286.926923,26.478 286.866923,26.658 287.016923,26.808 C287.226923,26.988 287.436923,27.018 287.676923,26.868 C290.676923,24.798 292.356923,21.648 292.656923,17.418 L295.326923,17.418 C295.326923,20.238 295.206923,22.308 294.966923,23.598 C294.816923,24.348 294.396923,24.708 293.676923,24.708 C293.286923,24.708 292.596923,24.648 291.636923,24.498 C291.306923,24.468 291.126923,24.558 291.126923,24.798 C291.126923,25.068 291.246923,25.248 291.546923,25.308 C292.236923,25.488 292.686923,25.638 292.866923,25.728 C293.136923,25.878 293.316923,26.118 293.406923,26.418 C293.496923,26.718 293.616923,26.868 293.916923,26.868 C295.266923,26.748 296.106923,26.088 296.436923,24.918 C296.736923,23.838 296.916923,21.468 296.946923,17.748 L297.576923,17.298 C297.756923,17.178 297.816923,17.058 297.816923,16.938 C297.816923,16.728 297.396923,16.278 296.556923,15.648 C296.316923,15.438 296.076923,15.468 295.896923,15.708 L295.146923,16.668 L292.716923,16.668 L292.716923,14.418 C293.406923,14.148 293.766923,13.908 293.766923,13.698 C293.766923,13.338 293.016923,13.098 291.546923,12.978 C291.216923,12.948 291.036923,13.098 291.036923,13.398 L291.036923,16.758 L286.826923,16.758 Z" id="Shape"></path>
            <path d="M307.807692,10.968 C307.477692,10.968 307.297692,11.118 307.387692,11.358 C307.507692,11.598 307.657692,11.718 307.927692,11.718 L321.497692,11.718 C321.737692,11.718 321.887692,11.658 322.007692,11.478 C322.127692,11.238 322.097692,11.028 321.917692,10.818 C321.497692,10.428 321.047692,10.008 320.537692,9.558 C320.327692,9.348 320.087692,9.378 319.877692,9.618 L318.767692,10.968 L307.807692,10.968 Z M308.437692,23.928 C307.447692,23.958 306.037692,23.988 304.267692,24.018 C303.697692,24.048 303.367692,24.258 303.457692,24.588 C303.877692,26.118 304.297692,26.868 304.717692,26.868 C304.927692,26.868 305.077692,26.508 305.257692,25.818 C311.017692,25.308 318.447692,24.768 323.577692,24.048 L324.207692,23.958 C324.867692,24.738 325.437692,25.548 325.857692,26.388 C326.067692,26.808 326.367692,27.018 326.757692,27.018 C327.447692,27.018 327.777692,26.628 327.777692,25.878 C327.777692,25.248 327.357692,24.468 326.547692,23.598 C325.197692,22.128 324.097692,21.718 321.157692,20.308 C320.887692,20.188 320.707692,20.188 320.617692,20.338 C320.437692,20.578 320.497692,20.818 320.737692,20.998 C322.297692,22.048 322.557692,22.128 323.517692,23.178 L322.587692,23.238 C318.807692,23.478 313.657692,23.718 311.197692,23.808 L309.517692,23.868 C309.577692,23.778 309.637692,23.688 309.757692,23.538 C310.867692,21.798 312.067692,19.668 313.357692,17.118 L327.597692,17.118 C327.837692,17.118 327.987692,17.028 328.107692,16.878 C328.257692,16.638 328.227692,16.398 328.047692,16.218 C327.597692,15.678 327.057692,15.168 326.487692,14.688 L326.517692,14.718 C326.307692,14.508 326.067692,14.538 325.857692,14.778 L324.537692,16.368 L303.097692,16.368 C302.707692,16.368 302.557692,16.548 302.677692,16.788 C302.827692,16.998 303.007692,17.118 303.247692,17.118 L311.107692,17.118 L311.077692,17.238 C311.077692,17.238 311.047692,17.268 311.047692,17.268 C311.047692,17.298 311.017692,17.388 310.957692,17.598 C310.387692,19.548 309.547692,21.648 308.437692,23.928 Z M314.857692,1.638 C315.697692,1.548 316.147692,1.368 316.147692,1.128 C316.147692,0.768 315.367692,0.438 313.807692,0.138 C313.537692,0.078 313.327692,0.168 313.207692,0.438 C310.657692,5.958 306.697692,10.278 301.327692,13.458 C301.057692,13.608 300.967692,13.788 301.117692,13.968 C301.267692,14.208 301.477692,14.268 301.747692,14.148 C307.297692,11.448 311.437692,7.638 314.227692,2.748 C314.287692,2.628 314.347692,2.538 314.437692,2.418 C316.957692,6.378 321.857692,9.798 327.077692,12.678 C327.347692,12.828 327.557692,12.738 327.737692,12.498 C327.977692,12.108 328.247692,11.748 328.547692,11.448 C328.817692,11.178 328.787692,10.938 328.457692,10.788 C323.447692,8.748 318.247692,5.808 315.037692,1.878 L314.857692,1.638 Z" id="Shape"></path>
        </g>
    </g>
</svg>