<?xml version="1.0" encoding="UTF-8"?>
<svg width="175px" height="55px" viewBox="0 0 175 55" version="1.1" xmlns="http://www.w3.org/2000/svg" xmlns:xlink="http://www.w3.org/1999/xlink">
    <title>Group 4</title>
    <defs>
        <path d="M0,0 L0,12 L4.01208241,12 C7.80169462,12 10.4210526,9.3774012 10.4210526,5.99961193 L10.4210526,5.99961193 L10.4210526,5.96701378 C10.4210526,2.5892245 7.80169462,0 4.01208241,0 L4.01208241,0 L0,0 Z M0.895213982,0.822715219 L4.01208241,0.822715219 C7.37046814,0.822715219 9.49155386,3.15503525 9.49155386,5.99961193 L9.49155386,5.99961193 L9.49155386,6.03453852 C9.49155386,8.89696656 7.37046814,11.1772848 4.01208241,11.1772848 L4.01208241,11.1772848 L0.895213982,11.1772848 L0.895213982,0.822715219 Z" id="path-1"></path>
        <path d="M0.503237743,3.0245023 L0.503237743,3.05666156 C0.503237743,4.80091884 1.72783485,5.90199081 4.75816739,6.46018377 L4.75816739,6.46018377 C7.62257169,6.98545176 8.32601392,7.52986217 8.32601392,8.74502297 L8.32601392,8.74502297 L8.32601392,8.77871363 C8.32601392,10.0949464 7.02741127,11.2274119 5.13442719,11.2274119 L5.13442719,11.2274119 C3.2811724,11.2274119 1.99892887,10.5222052 0.612298554,9.35528331 L0.612298554,9.35528331 L0,9.99387443 C1.51360826,11.2274119 3.06305078,12 5.08145479,12 L5.08145479,12 C7.51428989,12 9.26315789,10.5551302 9.26315789,8.69754977 L9.26315789,8.69754977 L9.26315789,8.66462481 C9.26315789,6.98545176 8.03778178,6.19601838 5.11884707,5.65390505 L5.11884707,5.65390505 C2.12590681,5.0949464 1.44038171,4.1914242 1.44038171,2.97473201 L1.44038171,2.97473201 L1.44038171,2.94257274 C1.44038171,1.74196018 2.66653683,0.772588055 4.52368664,0.772588055 L4.52368664,0.772588055 C5.91187497,0.772588055 7.10063781,1.13399694 8.29017966,2.0704441 L8.29017966,2.0704441 L8.88378207,1.39586524 C7.60465456,0.45941807 6.39797458,0 4.55952091,0 L4.55952091,0 C2.21705049,0 0.503237743,1.31393568 0.503237743,3.0245023 L0.503237743,3.0245023 Z" id="path-3"></path>
        <path d="M0,6.00155219 C0,9.258052 2.63081652,11.9084206 5.90872269,11.9976717 L5.90872269,11.9976717 L6.07698173,12 C9.37768936,12 12.0659026,9.40473419 12.1547497,6.16841288 L12.1547497,6.16841288 L12.1578947,6.00155219 C12.1578947,5.84478075 12.1523909,5.69188979 12.1390246,5.53977493 L12.1390246,5.53977493 L11.2969431,5.53977493 C11.3063782,5.63989135 11.3126683,5.74233605 11.315027,5.84478075 L11.315027,5.84478075 L11.3189583,6.00155219 C11.3189583,8.8032596 9.05611017,11.088863 6.23580568,11.1703531 L6.23580568,11.1703531 L6.07698173,11.1726814 C3.18355531,11.1726814 0.839722666,8.85603415 0.839722666,6.00155219 L0.839722666,6.00155219 C0.839722666,3.1951882 3.09942579,0.91346527 5.9213028,0.830422972 L5.9213028,0.830422972 L6.07698173,0.82887078 C6.73822401,0.82887078 7.37116104,0.949165697 7.95377761,1.16880093 L7.95377761,1.16880093 L8.6590503,0.567326348 C7.92389984,0.225844005 7.10855114,0.0271633683 6.24917205,0.00310438494 L6.24917205,0.00310438494 L6.07698173,0 C2.72202235,0 0,2.68684517 0,6.00155219 L0,6.00155219 Z" id="path-5"></path>
        <path d="M0,6 C0,9.31315483 2.76086066,12 6.16706552,12 L6.16706552,12 C9.57247267,12 12.3333333,9.31315483 12.3333333,6 L12.3333333,6 C12.3333333,2.68529298 9.57247267,0 6.16706552,0 L6.16706552,0 C2.76086066,0 0,2.68529298 0,6 L0,6 Z M0.850354656,6 C0.850354656,3.14318976 3.23150723,0.827318588 6.16706552,0.827318588 L6.16706552,0.827318588 C9.10342151,0.827318588 11.4837764,3.14318976 11.4837764,6 L11.4837764,6 C11.4837764,8.85681024 9.10342151,11.1726814 6.16706552,11.1726814 L6.16706552,11.1726814 C3.23150723,11.1726814 0.850354656,8.85681024 0.850354656,6 L0.850354656,6 Z" id="path-7"></path>
        <path d="M0.396123757,0.486169831 C-0.0403200289,0.497119602 -0.191050615,0.981099479 0.333131871,1.0467981 L0.333131871,1.0467981 L3.57946374,1.2285643 C6.20037617,1.59319168 6.51196104,3.82913491 6.51196104,8.08312093 L6.51196104,8.08312093 L6.51196104,30.9911368 C6.51196104,38.7074404 7.05751577,38.963665 3.43548229,39.4498348 L3.43548229,39.4498348 L2.07553245,39.586707 C1.75269903,39.6403609 1.65258693,39.9995133 2.01816484,39.9995133 L2.01816484,39.9995133 C5.04065054,40.0006083 8.29260669,39.9995133 10.914644,39.9995133 L10.914644,39.9995133 L21.0900834,39.9995133 C25.8977142,39.9995133 31.0180547,39.8024175 35.0754071,37.6759719 L35.0754071,37.6759719 C42.1226244,33.943195 45.9257596,27.4138466 46,19.792806 L46,19.792806 L46,19.3383905 C45.9212601,11.4162312 41.6771818,4.77191019 33.3273822,1.82204189 L33.3273822,1.82204189 C29.2700298,0.36572235 24.8369758,0 19.5929012,0 L19.5929012,0 C14.2869596,0 5.70319021,0.181766198 0.396123757,0.486169831 L0.396123757,0.486169831 Z M14.5355526,36.2163675 C13.4736894,34.758953 13.2869634,32.8131787 13.2869634,29.593946 L13.2869634,29.593946 L13.2869634,7.35386618 C13.2869634,4.61970837 13.4118223,3.09988016 13.911258,2.73415781 L13.911258,2.73415781 C14.4106937,2.36953044 16.4084364,1.88336061 20.091212,1.88336061 L20.091212,1.88336061 C36.4488552,1.88336061 39.7581789,13.0006631 39.7581789,19.6865932 L39.7581789,19.6865932 C39.7581789,30.9911368 34.3273784,38.7074404 22.2149385,38.7074404 L22.2149385,38.7074404 C18.2813202,38.7074404 15.9078759,38.1008231 14.5355526,36.2163675 L14.5355526,36.2163675 Z" id="path-9"></path>
        <path d="M13.5152342,0.00230086673 C11.8652279,0.0632738351 1.35918373,5.46110719 0.878318134,5.62331829 L0.878318134,5.62331829 C0.604862038,5.71305209 0.424102924,5.79703373 0.139059704,5.92473183 L0.139059704,5.92473183 C-0.0776194905,6.02136823 -0.00462061736,6.09499597 0.112409322,6.0581821 L0.112409322,6.0581821 L0.471610127,6.01906737 C0.471610127,6.01906737 4.6140065,5.33110822 6.16552223,5.13668498 L6.16552223,5.13668498 C6.44129576,5.10332241 6.72518026,5.11942848 6.99863636,5.16429538 L6.99863636,5.16429538 C9.05419193,5.50482365 9.19903096,6.80021162 9.19903096,10.3124847 L9.19903096,10.3124847 L9.19903096,29.1381763 C9.19903096,33.4005319 8.45861382,35.1089254 6.11569761,35.2745879 L6.11569761,35.2745879 L2.97211121,35.6105144 C2.83422445,35.6473283 2.82495475,35.9153792 2.99992031,35.9729009 L2.99992031,35.9729009 C5.26056795,36.0338739 9.31142605,35.9729009 11.3183157,35.9729009 L11.3183157,35.9729009 L18.8221364,35.9729009 C18.9774038,35.9729009 19.0770531,35.7036995 18.9229444,35.6105144 L18.9229444,35.6105144 L17.261351,35.3275078 C14.9740529,35.1606949 14.7631673,33.4005319 14.7631673,29.1381763 L14.7631673,29.1381763 L14.7631673,7.65383318 C14.7631673,4.49704403 15.1884147,1.71529615 14.9879575,0.73167562 L14.9879575,0.73167562 C14.9311806,0.453270746 14.6299154,0 13.6403751,0 L13.6403751,0 C13.5998202,0 13.5581065,0.00115043337 13.5152342,0.00230086673 L13.5152342,0.00230086673 Z M9.62311966,4.27616082 C9.62311966,3.55713997 10.2105868,2.97617112 10.9336232,2.97617112 L10.9336232,2.97617112 C11.6589771,2.97617112 12.2441268,3.55713997 12.2441268,4.27616082 L12.2441268,4.27616082 C12.2441268,4.99518167 11.6589771,5.57845139 10.9336232,5.57845139 L10.9336232,5.57845139 C10.2105868,5.57845139 9.62311966,4.99518167 9.62311966,4.27616082 L9.62311966,4.27616082 Z" id="path-11"></path>
        <path d="M2.64027127,0.102153918 L2.59408632,0.548269127 L2.43190196,5.38958896 L2.43190196,7.40551248 C2.43190196,8.63523875 2.40827245,9.53134843 2.29227304,10.1184102 L2.29227304,10.1184102 C1.99045976,11.5731337 1.17631576,11.8252858 0.0839879806,12.2442461 L0.0839879806,12.2442461 C-0.0545668699,12.3851927 -0.00945598831,12.8313079 0.130172931,12.9450996 L0.130172931,12.9450996 C0.608133461,12.8933761 1.61775795,12.9257033 2.59838259,12.9580305 L2.59838259,12.9580305 C3.71219174,12.9968231 4.78840848,13.0343226 5,12.9450996 L5,12.9450996 C4.93018554,12.6088968 3.99144958,10.5102157 3.99144958,8.71928944 L3.99144958,8.71928944 L3.99144958,3.45771614 C3.99144958,2.31204056 4.01507909,1.36032812 4.06126404,0.156463595 L4.06126404,0.156463595 C4.02044943,0.0581889403 3.5800813,0 3.19986101,0 L3.19986101,0 C2.92382538,0 2.67893774,0.0310341015 2.64027127,0.102153918 L2.64027127,0.102153918 Z" id="path-13"></path>
        <path d="M3.10508659,0.100859885 L3.05076247,0.548263988 L2.85999636,5.38953845 L2.85999636,7.40414999 C2.85999636,8.63515781 2.83220262,9.52996602 2.69702398,10.1183153 L2.69702398,10.1183153 C2.34075879,11.5730252 1.38313817,11.8238819 0.0983094579,12.2441314 L0.0983094579,12.2441314 C-0.0646629163,12.3850766 -0.0103387916,12.8311876 0.153896934,12.9449783 L0.153896934,12.9449783 C0.714825106,12.8932553 2.14367592,12.9255821 3.55483981,12.9592021 L3.55483981,12.9592021 C5.16434993,12.9967013 6.75111971,13.0342005 7,12.9449783 L7,12.9449783 C6.91661879,12.6074856 4.81313814,11.2316533 4.97737387,8.71920772 L4.97737387,8.71920772 L4.97737387,3.45768374 C4.97737387,2.31201889 5.00390425,1.36031537 5.05949173,0.156462129 L5.05949173,0.156462129 C5.01148437,0.0594814704 4.39749542,0 3.86941439,0 L3.86941439,0 C3.48788217,0 3.15056726,0.0310338107 3.10508659,0.100859885 L3.10508659,0.100859885 Z" id="path-15"></path>
    </defs>
    <g id="Page-1" stroke="none" stroke-width="1" fill="none" fill-rule="evenodd">
        <g id="Desktop" transform="translate(-36.000000, -22.000000)">
            <g id="Group-4" transform="translate(36.000000, 22.000000)">
                <g id="Group-11" transform="translate(82.000000, 17.000000)" fill="#231916">
                    <path d="M4.26995779,13.4908089 C4.26995779,16.110217 4.31983389,16.8593301 5.92030259,17.0334782 L6.59584669,17.1086659 C6.74602917,17.2336103 6.69559889,17.2336103 6.54597058,17.3076923 C5.12006824,17.2579357 4.29489584,17.2336103 3.2946029,17.2336103 C2.24443386,17.2336103 1.34389313,17.2579357 0.243847988,17.3076923 C0.0936655031,17.2336103 0.0437894009,17.2584886 0.193971886,17.1086659 L0.718779317,17.0334782 C2.16906553,16.8344518 2.21949581,16.110217 2.21949581,13.4908089 L2.21949581,4.28528648 C2.21949581,2.16454996 2.31536876,1.20645914 1.04408234,1.08538477 L0.143541605,1.05608366 C-0.0759132442,1.05995362 -0.0315789312,0.906261038 0.193971886,0.891886911 C1.51901367,0.717738839 3.06960626,0.692307692 5.14556047,0.692307692 C7.2209605,0.692307692 8.7715531,0.96707465 9.94696657,1.69020379 C11.097442,2.41388577 11.9475524,3.71142712 11.9475524,5.43245235 C11.9475524,7.7278898 10.5222043,8.69869619 9.44654301,9.22224611 C8.34649787,9.74634888 6.66622741,9.97135925 5.64099642,9.97135925 C5.46587588,9.89617151 5.82055039,9.69880369 5.97073287,9.6490471 C8.67180089,9.14926978 9.6466016,7.62837661 9.6466016,5.45733065 C9.6466016,3.03750173 8.22125344,1.46574627 5.6204918,1.46574627 C4.29489584,1.46574627 4.26995779,1.56581231 4.26995779,2.36412918 L4.26995779,13.4908089 Z" id="Fill-1"></path>
                    <path d="M20.3097413,8.9977886 C19.1020751,8.9977886 19.0513375,9.04809804 19.0513375,9.79610547 L19.0513375,13.4908089 C19.0513375,16.110217 19.1773452,16.8659643 20.5862891,17.015787 L21.3161298,17.0909747 C21.4666699,17.1904879 21.4170475,17.2330574 21.2659498,17.3076923 C19.9071859,17.2579357 19.0513375,17.2330574 18.0705966,17.2330574 C16.9883805,17.2330574 16.1330897,17.282814 15.1517912,17.3076923 C15.0006935,17.2330574 14.9505135,17.2407973 15.1016112,17.0909747 L15.5292566,17.015787 C16.9382005,16.7664512 16.9883805,16.110217 16.9883805,13.4908089 L16.9883805,4.509744 C16.9883805,1.89033586 16.8121928,1.05940077 15.5041666,0.959334736 L14.8495959,0.962651842 C14.6990558,0.862585807 14.7492358,0.76694258 14.9003335,0.692307692 C16.1330897,0.717185988 16.9883805,0.76694258 18.0705966,0.76694258 C19.0513375,0.76694258 19.9071859,0.742064284 20.9888445,0.692307692 C21.1399421,0.76694258 21.1901222,0.862585807 21.0395821,0.962651842 L20.5611991,0.959334736 C19.1020751,1.10860451 19.0513375,1.89033586 19.0513375,4.509744 L19.0513375,7.55540028 C19.0513375,8.32883886 19.1020751,8.35371716 20.3097413,8.35371716 L27.5055585,8.35371716 C28.7132247,8.35371716 28.7634047,8.32883886 28.7634047,7.55540028 L28.7634047,4.509744 C28.7634047,1.89033586 28.7132247,1.10860451 27.2290107,0.959334736 L26.7506277,0.909578144 C26.5995301,0.808959258 26.6502676,0.76694258 26.8008078,0.692307692 C27.9582939,0.742064284 28.8141423,0.76694258 29.8456208,0.76694258 C30.8269193,0.76694258 31.6822101,0.742064284 32.8146063,0.692307692 C32.9651464,0.76694258 33.015884,0.808959258 32.8647863,0.909578144 L32.3362233,0.959334736 C30.8770993,1.10860451 30.8269193,1.89033586 30.8269193,4.509744 L30.8269193,13.4908089 C30.8269193,16.110217 30.8770993,16.8416389 32.3362233,17.015787 L32.9406139,17.0909747 C33.091154,17.1904879 33.040974,17.2330574 32.8898763,17.3076923 C31.6822101,17.2579357 30.8269193,17.2330574 29.8456208,17.2330574 C28.8141423,17.2330574 27.9081139,17.2579357 26.8008078,17.3076923 C26.6502676,17.2330574 26.5995301,17.2407973 26.7506277,17.0909747 L27.2290107,17.015787 C28.7634047,16.7664512 28.7634047,16.110217 28.7634047,13.4908089 L28.7634047,9.79610547 C28.7634047,9.04809804 28.7132247,8.9977886 27.5055585,8.9977886 L20.3097413,8.9977886 Z" id="Fill-3"></path>
                    <path d="M51.6159175,10.0461543 C51.6159175,5.91986482 49.7915779,1.11297307 45.0180554,1.11297307 C42.4188976,1.11297307 39.0443678,3.24345755 39.0443678,8.72042102 C39.0443678,12.4221655 40.8443386,17.5787804 45.7673971,17.5787804 C48.7669792,17.5787804 51.6159175,14.9738696 51.6159175,10.0461543 M36.5454545,9.52129253 C36.5454545,4.51875536 40.2943783,0.692307692 45.4428485,0.692307692 C51.2160471,0.692307692 54.1153846,4.86903272 54.1153846,9.27133194 C54.1153846,14.3231961 50.2662164,18 45.4428485,18 C39.8945079,18 36.5454545,14.0228001 36.5454545,9.52129253" id="Fill-5"></path>
                    <path d="M65.3164472,13.5111313 C65.3164472,16.1165928 65.3664629,16.8408209 66.8208084,16.9645501 L67.6232826,17.0393375 C67.7738854,17.1388707 67.7238697,17.2340047 67.5732669,17.3076923 C66.1439292,17.2582006 65.2914393,17.2340047 64.2877909,17.2340047 C63.2846982,17.2340047 62.4072005,17.2582006 60.8022521,17.3076923 C60.6516493,17.2340047 60.6016336,17.1636166 60.8022521,17.0393375 L61.7047577,16.9645501 C63.1346511,16.8408209 63.2596903,16.1165928 63.2596903,13.5111313 L63.2596903,2.24297771 C63.2596903,1.47310728 63.2596903,1.44836144 62.5077876,1.44836144 L61.1284657,1.44836144 C60.0497937,1.44836144 58.1369709,1.49840302 57.5106631,2.06920696 C56.9082518,2.61526505 56.6576175,3.33674363 56.3819754,3.95703923 C56.2658278,4.09176656 56.1657964,4.05932202 56.2630492,3.78381839 C56.6642863,2.66640645 57.0405155,1.07882364 57.2161262,0.0862406899 C57.2366882,-0.0160420959 57.3700634,-0.0407879311 57.4078531,0.0862406899 C57.5584559,0.879757141 58.6704717,0.855011305 59.8241673,0.855011305 L69.9806894,0.855011305 C71.3350035,0.855011305 71.7384635,0.806069542 72.1146927,0.160478196 C72.239732,0.110986525 72.3380962,0.13573236 72.3881119,0.234715701 C72.1469251,1.12556577 71.9024038,2.92046369 72.0118827,4.00708081 C71.9118512,4.20504749 71.8407178,4.20504749 71.7156785,4.05657248 C71.6400993,3.43627688 71.4650443,2.34196105 71.0888151,2.06920696 C70.5119673,1.64742794 69.2032231,1.44836144 67.8239011,1.44836144 L66.0438978,1.44836144 C65.2914393,1.44836144 65.3164472,1.47310728 65.3164472,2.29246938 L65.3164472,13.5111313 Z" id="Fill-7"></path>
                    <path d="M90.2697637,10.0461543 C90.2697637,5.91986482 88.4454241,1.11297307 83.6719016,1.11297307 C81.0727438,1.11297307 77.698214,3.24345755 77.698214,8.72042102 C77.698214,12.4221655 79.4981847,17.5787804 84.4212433,17.5787804 C87.4208253,17.5787804 90.2697637,14.9738696 90.2697637,10.0461543 M75.1993007,9.52129253 C75.1993007,4.51875536 78.9482244,0.692307692 84.0966947,0.692307692 C89.8698932,0.692307692 92.7692308,4.86903272 92.7692308,9.27133194 C92.7692308,14.3231961 88.9200625,18 84.0966947,18 C78.548354,18 75.1993007,14.0228001 75.1993007,9.52129253" id="Fill-9"></path>
                </g>
                <g id="Group" transform="translate(83.000000, 42.000000)">
                    <g id="Group-3">
                        <mask id="mask-2" fill="white">
                            <use xlink:href="#path-1"></use>
                        </mask>
                        <g id="Clip-2"></g>
                        <polygon id="Fill-1" fill="#231916" mask="url(#mask-2)" points="-1.13673129 13.1580105 11.5577839 13.1580105 11.5577839 -1.15878662 -1.13673129 -1.15878662"></polygon>
                    </g>
                    <g id="Group-6" transform="translate(24.315789, 0.000000)">
                        <mask id="mask-4" fill="white">
                            <use xlink:href="#path-3"></use>
                        </mask>
                        <g id="Clip-5"></g>
                        <polygon id="Fill-4" fill="#231916" mask="url(#mask-4)" points="-1.16305565 13.143951 10.4262135 13.143951 10.4262135 -1.1431853 -1.16305565 -1.1431853"></polygon>
                    </g>
                    <g id="Group-12" transform="translate(41.105263, 0.000000)">
                        <mask id="mask-6" fill="white">
                            <use xlink:href="#path-5"></use>
                        </mask>
                        <g id="Clip-11"></g>
                        <polygon id="Fill-10" fill="#231916" mask="url(#mask-6)" points="-1.17309571 13.1587117 13.3302042 13.1587117 13.3302042 -1.15715949 -1.17309571 -1.15715949"></polygon>
                    </g>
                    <polygon id="Fill-13" fill="#231916" points="49.7894737 5.14285714 49.7894737 6.28571429 53.2131048 6.28571429 53.2631579 5.58123802 53.2631579 5.14285714"></polygon>
                    <polygon id="Fill-15" fill="#231916" points="55.5789474 11.7547377 56.4154358 11.7547377 56.4154358 2.05368346 66 12 66 0.0457926395 65.1651049 0.0457926395 65.1651049 9.94864498 55.5789474 0"></polygon>
                    <polygon id="Fill-16" fill="#231916" points="21.4210526 6.41717871 21.4210526 5.58282129 14.1370983 5.58282129 14.1370983 0.835133562 21.4141702 0.835133562 21.4141702 0 13.3157895 0 13.3157895 0.230515491 13.3157895 0.922838109 13.3157895 11.0763857 13.3157895 11.7687084 13.3157895 12 21.4141702 12 21.4141702 11.1648664 14.1370983 11.1648664 14.1370983 6.41717871"></polygon>
                    <polygon id="Fill-17" fill="#231916" points="21.4210526 6.41717871 21.4210526 5.58282129 14.1370983 5.58282129 14.1370983 0.835133562 21.4141702 0.835133562 21.4141702 0 13.3157895 0 13.3157895 0.230515491 13.3157895 0.922838109 13.3157895 11.0763857 13.3157895 11.7687084 13.3157895 12 21.4141702 12 21.4141702 11.1648664 14.1370983 11.1648664 14.1370983 6.41717871"></polygon>
                    <polygon id="Fill-18" fill="#231916" points="21.4210526 6.41717871 21.4210526 5.58282129 14.1370983 5.58282129 14.1370983 0.835133562 21.4141702 0.835133562 21.4141702 0 13.3157895 0 13.3157895 0.230515491 13.3157895 0.922838109 13.3157895 11.0763857 13.3157895 11.7687084 13.3157895 12 21.4141702 12 21.4141702 11.1648664 14.1370983 11.1648664 14.1370983 6.41717871"></polygon>
                    <polygon id="Fill-20" fill="#231916" points="37.0526316 12 37.6315789 12 37.6315789 0 37.0526316 0"></polygon>
                </g>
                <g id="Group-2" transform="translate(83.000000, -0.000000)">
                    <g id="Group-9">
                        <mask id="mask-8" fill="white">
                            <use xlink:href="#path-7"></use>
                        </mask>
                        <g id="Clip-8"></g>
                        <polygon id="Fill-7" fill="#231916" mask="url(#mask-8)" points="-1.19017744 13.1571595 13.5243085 13.1571595 13.5243085 -1.15871168 -1.19017744 -1.15871168"></polygon>
                    </g>
                    <polygon id="Fill-14" fill="#231916" points="14.6825397 11.7567516 15.6235737 11.7567516 15.6235737 2.13535185 25.2539683 12 25.2539683 0.143947655 24.3105337 0.143947655 24.3105337 9.86541792 14.6825397 0"></polygon>
                    <polygon id="Fill-19" fill="#231916" points="37 6.41717871 37 5.58282129 29.6109381 5.58282129 29.6109381 0.835133562 36.9930182 0.835133562 36.9930182 0 28.7777778 0 28.7777778 0.230515491 28.7777778 0.922838109 28.7777778 11.0763857 28.7777778 11.7687084 28.7777778 12 36.9930182 12 36.9930182 11.1648664 29.6109381 11.1648664 29.6109381 6.41717871"></polygon>
                </g>
                <g id="Group-13" transform="translate(0.000000, 2.000000)">
                    <g id="Group-3" transform="translate(14.000000, 0.000000)">
                        <mask id="mask-10" fill="white">
                            <use xlink:href="#path-9"></use>
                        </mask>
                        <g id="Clip-2"></g>
                        <polygon id="Fill-1" fill="#231916" mask="url(#mask-10)" points="-1.14267805 41.1131051 47.1439777 41.1131051 47.1439777 -1.11249673 -1.14267805 -1.11249673"></polygon>
                    </g>
                    <g id="Group-6" transform="translate(0.000000, 6.000000)">
                        <mask id="mask-12" fill="white">
                            <use xlink:href="#path-11"></use>
                        </mask>
                        <g id="Clip-5"></g>
                        <polygon id="Fill-4" fill="#231916" mask="url(#mask-12)" points="-1.25602987 37.2027142 20.2543048 37.2027142 20.2543048 -1.20565417 -1.25602987 -1.20565417"></polygon>
                    </g>
                    <g id="Group-9" transform="translate(6.000000, 39.000000)">
                        <mask id="mask-14" fill="white">
                            <use xlink:href="#path-13"></use>
                        </mask>
                        <g id="Clip-8"></g>
                        <polygon id="Fill-7" fill="#231916" mask="url(#mask-14)" points="-1.14689464 14.4256849 6.09017964 14.4256849 6.09017964 -1.38101752 -1.14689464 -1.38101752"></polygon>
                    </g>
                    <g id="Group-12" transform="translate(9.000000, 40.000000)">
                        <mask id="mask-16" fill="white">
                            <use xlink:href="#path-15"></use>
                        </mask>
                        <g id="Clip-11"></g>
                        <polygon id="Fill-10" fill="#231916" mask="url(#mask-16)" points="-1.34949163 14.4255497 8.28230201 14.4255497 8.28230201 -1.38100457 -1.34949163 -1.38100457"></polygon>
                    </g>
                </g>
            </g>
        </g>
    </g>
</svg>