<?xml version="1.0" encoding="UTF-8"?>
<svg width="330px" height="28px" viewBox="0 0 330 28" version="1.1" xmlns="http://www.w3.org/2000/svg" xmlns:xlink="http://www.w3.org/1999/xlink">
    <title>logo_ngo2</title>
    <defs>
        <path d="M18.45,0 C18.12,0 17.97,0.15 17.97,0.39 L17.97,0.39 C17.97,0.69 18.12,0.84 18.45,0.87 L18.45,0.87 C19.26,0.93 19.89,1.05 20.25,1.26 L20.25,1.26 C20.76,1.53 21.03,2.16 21.03,3.18 L21.03,3.18 L21.03,17.64 L20.94,17.64 L6.64,0.3 C6.49,0.09 6.31,0 6.07,0 L6.07,0 L0.48,0 C0.15,0 0,0.15 0,0.39 L0,0.39 C0,0.69 0.15,0.84 0.45,0.87 L0.45,0.87 C1.41,0.96 2.04,1.11 2.34,1.26 L2.34,1.26 C2.85,1.53 3.12,2.22 3.12,3.3 L3.12,3.3 L3.12,17.94 C3.202,19.863 2.331,20.109 0.57,20.28 L0.57,20.28 C0.27,20.309 0.12,20.46 0.12,20.7 L0.12,20.7 C0.12,21 0.27,21.15 0.6,21.15 L0.6,21.15 L8.05,21.15 C8.38,21.15 8.53,21.03 8.53,20.79 L8.53,20.79 C8.53,20.49 8.38,20.31 8.08,20.28 L8.08,20.28 C7.33,20.22 6.73,20.1 6.37,19.89 L6.37,19.89 C5.86,19.62 5.59,18.96 5.59,17.94 L5.59,17.94 L5.59,2.43 L5.68,2.43 L21,21.15 C21.15,21.36 21.3,21.45 21.57,21.45 L21.57,21.45 L23.02,21.45 C23.35,21.45 23.5,21.3 23.5,20.97 L23.5,20.97 L23.5,3.18 C23.5,2.13 23.8,1.47 24.37,1.2 L24.37,1.2 C24.7,1.05 25.21,0.93 25.96,0.87 L25.96,0.87 C26.26,0.84 26.41,0.69 26.41,0.42 L26.41,0.42 C26.41,0.15 26.26,0 25.96,0 L25.96,0 L18.45,0 Z" id="path-1"></path>
        <path d="M0.48,0 C0.18,0 0,0.15 0,0.42 L0,0.42 C0,0.69 0.18,0.84 0.45,0.87 L0.45,0.87 C1.5,0.99 2.19,1.17 2.49,1.41 L2.49,1.41 C2.88,1.68 3.06,2.28 3.06,3.27 L3.06,3.27 L3.06,17.97 C3.06,19.02 2.76,19.68 2.16,19.95 L2.16,19.95 C1.83,20.1 1.26,20.19 0.48,20.28 L0.48,20.28 C0.18,20.31 0,20.46 0,20.7 L0,20.7 C0,21 0.18,21.15 0.48,21.15 L0.48,21.15 L9.89,21.15 C10.19,21.15 10.34,21.03 10.34,20.79 L10.34,20.79 C10.34,20.49 10.19,20.31 9.89,20.28 L9.89,20.28 C8.959,20.22 7.33,20.1 6.97,19.89 L6.97,19.89 C6.4,19.59 6.13,18.96 6.13,17.97 L6.13,17.97 L6.13,11.79 L10.91,11.79 C16.519,11.79 19.31,9.75 19.31,5.67 L19.31,5.67 C19.31,4.32 18.89,3.15 18.02,2.19 L18.02,2.19 C16.73,0.75 13.51,0 10.39,0 L10.39,0 L0.48,0 Z M6.13,3.27 C6.13,2.07 6.55,1.38 7.36,1.14 L7.36,1.14 C7.78,1.05 8.26,0.99 8.8,0.99 L8.8,0.99 L9.73,0.99 C13.87,0.99 16.97,2.61 16.97,5.85 L16.97,5.85 C16.97,9.06 13.66,10.65 9.04,10.65 L9.04,10.65 L6.13,10.65 L6.13,3.27 Z" id="path-3"></path>
        <path d="M3.399,2.85 C1.133,5.04 -7.10542736e-15,7.86 -7.10542736e-15,11.28 L-7.10542736e-15,11.28 C-7.10542736e-15,14.82 1.133,17.67 3.43,19.83 L3.43,19.83 C5.412,21.72 8.897,22.68 11.791,22.68 L11.791,22.68 C14.717,22.68 18.14,21.75 20.122,19.86 L20.122,19.86 C22.418,17.7 23.551,14.82 23.551,11.22 L23.551,11.22 C23.551,7.86 22.418,5.04 20.153,2.85 L20.153,2.85 C18.171,0.96 14.717,0 11.791,0 L11.791,0 C8.865,0 5.38,0.96 3.399,2.85 L3.399,2.85 Z M4.626,17.77 C3.599,15.97 3.085,13.81 3.085,11.17 L3.085,11.17 C3.085,8.23 3.751,5.86 5.079,4.03 L5.079,4.03 C6.529,2.02 9.323,1 11.801,1 L11.801,1 C14.066,1 16.801,1.9 18.22,3.67 L18.22,3.67 C19.73,5.53 20.485,8.08 20.485,11.29 L20.485,11.29 C20.485,14.29 19.821,16.69 18.462,18.49 L18.462,18.49 C17.012,20.47 14.187,21.49 11.801,21.49 L11.801,21.49 C9.022,21.49 6.046,20.23 4.626,17.77 L4.626,17.77 Z" id="path-5"></path>
        <path d="M16.8666997,0.45 L16.8666997,5.7 L10.0606997,5.7 C9.72969967,5.7 9.54969967,5.85 9.63969967,6.06 L9.63969967,6.06 C9.72969967,6.33 9.90969967,6.45 10.1796997,6.45 L10.1796997,6.45 L16.8666997,6.45 L16.8666997,12.99 L7.68969967,12.99 C7.36069967,12.99 7.18069967,13.14 7.27069967,13.38 L7.27069967,13.38 C7.38969967,13.62 7.54069967,13.74 7.81069967,13.74 L7.81069967,13.74 L15.5466997,13.74 C14.7966997,16.8 12.9996997,19.77 11.5596997,22.65 L11.5596997,22.65 L10.8096997,22.68 L8.04969967,22.8 C7.72069967,22.8 7.56969967,23.01 7.65969967,23.34 L7.65969967,23.34 C8.01969967,24.9 8.35069967,25.71 8.71069967,25.71 L8.71069967,25.71 C8.94969967,25.71 9.16069967,25.35 9.36969967,24.6 L9.36969967,24.6 C14.4096997,24 21.9696997,23.31 26.0196997,22.56 L26.0196997,22.56 C26.4406997,23.37 26.7696997,24.06 27.0096997,24.63 L27.0096997,24.63 C27.3696997,25.53 27.7296997,25.95 28.1196997,25.95 L28.1196997,25.95 C28.8396997,25.95 29.1996997,25.53 29.1996997,24.69 L29.1996997,24.69 C29.1996997,24.06 28.8706997,23.25 28.2096997,22.29 L28.2096997,22.29 C26.8906997,20.4 25.9696997,19.54 23.4496997,17.74 L23.4496997,17.74 C23.2106997,17.59 23.0306997,17.56 22.9096997,17.71 L22.9096997,17.71 C22.6996997,17.92 22.6996997,18.16 22.9096997,18.37 L22.9096997,18.37 C24.4996997,20.02 24.6996997,20.49 25.5096997,21.75 L25.5096997,21.75 C22.6956997,22.105 16.7806997,22.461 13.5416997,22.556 L13.5416997,22.556 C15.2096997,19.956 16.2576997,17.117 17.5426997,14.1 L17.5426997,14.1 C17.5426997,14.01 17.6026997,13.92 17.6926997,13.74 L17.6926997,13.74 L28.9606997,13.74 C29.1996997,13.74 29.3796997,13.65 29.5006997,13.44 L29.5006997,13.44 C29.6496997,13.2 29.6496997,12.99 29.4696997,12.78 L29.4696997,12.78 C28.9606997,12.15 28.4796997,11.61 27.9706997,11.13 L27.9706997,11.13 C27.7596997,10.92 27.5206997,10.95 27.3406997,11.19 L27.3406997,11.19 L25.9906997,12.99 L19.3796997,12.99 L19.3796997,6.45 L28.3996997,6.45 C28.6696997,6.45 28.8496997,6.39 28.9396997,6.21 L28.9396997,6.21 C29.0606997,5.97 29.0296997,5.79 28.8806997,5.58 L28.8806997,5.58 C28.3696997,4.95 27.9196997,4.44 27.5306997,4.02 L27.5306997,4.02 C27.3196997,3.81 27.0806997,3.84 26.8696997,4.08 L26.8696997,4.08 L25.7896997,5.7 L19.3796997,5.7 L19.3796997,1.28 C20.3176997,0.97 20.8496997,0.726 20.8496997,0.521 L20.8496997,0.521 C20.8496997,0.271 19.8626997,0.013 18.1496997,0 L18.1496997,0 C18.1446997,0 18.1396997,0 18.1346997,0 L18.1346997,0 C17.6946997,0 16.8666997,0.153 16.8666997,0.45 L16.8666997,0.45 Z M2.19969967,0.63 C2.07969967,0.84 2.16969967,0.99 2.41069967,1.17 L2.41069967,1.17 C3.60969967,1.95 4.35969967,2.79 4.71969967,3.72 L4.71969967,3.72 C4.95969967,4.35 5.29069967,4.68 5.70969967,4.68 L5.70969967,4.68 C6.39969967,4.68 6.75969967,4.29 6.75969967,3.51 L6.75969967,3.51 C6.75969967,2.19 5.43969967,1.14 2.77069967,0.42 L2.77069967,0.42 C2.69769967,0.405 2.63169967,0.398 2.57269967,0.398 L2.57269967,0.398 C2.38769967,0.398 2.26769967,0.471 2.19969967,0.63 L2.19969967,0.63 Z M7.65969967,5.64 C6.03969967,10.8 4.53969967,14.7 3.24969967,17.34 L3.24969967,17.34 C2.88969967,18.03 2.32069967,18.39 1.42069967,18.39 L1.42069967,18.39 C1.20969967,18.39 0.970699669,18.36 0.639699669,18.33 L0.639699669,18.33 C0.340699669,18.3 0.160699669,18.39 0.160699669,18.63 L0.160699669,18.63 C0.160699669,18.9 0.309699669,19.05 0.579699669,19.14 L0.579699669,19.14 C1.96069967,19.53 2.64969967,20.55 2.64969967,22.26 L2.64969967,22.26 C2.64969967,22.89 2.59069967,23.64 2.46969967,24.48 L2.46969967,24.48 C2.37969967,25.23 2.32069967,25.65 2.32069967,25.68 L2.32069967,25.68 C2.32069967,26.37 2.68069967,26.7 3.42969967,26.7 L3.42969967,26.7 C4.35969967,26.7 4.80969967,26.01 4.80969967,24.72 L4.80969967,24.72 C4.80969967,23.85 4.66069967,22.98 4.41969967,22.08 L4.41969967,22.08 C4.30069967,21.6 4.23969967,21.21 4.23969967,20.91 L4.23969967,20.91 C4.23969967,20.55 4.32969967,19.95 4.57069967,19.17 L4.57069967,19.17 L4.68969967,18.75 L8.46969967,6 C8.55969967,5.76 8.49969967,5.55 8.26069967,5.37 L8.26069967,5.37 C8.18569967,5.323 8.11069967,5.3 8.03869967,5.3 L8.03869967,5.3 C7.88169967,5.3 7.74269967,5.413 7.65969967,5.64 L7.65969967,5.64 Z M0.0396996691,7.08 C-0.0503003309,7.26 0.00969966915,7.44 0.250699669,7.62 L0.250699669,7.62 C1.33069967,8.49 2.05069967,9.48 2.41069967,10.56 L2.41069967,10.56 C2.55969967,11.07 2.88969967,11.31 3.36969967,11.31 L3.36969967,11.31 C4.05969967,11.31 4.39069967,10.92 4.39069967,10.17 L4.39069967,10.17 C4.39069967,8.82 3.13069967,7.74 0.610699669,6.96 L0.610699669,6.96 C0.502699669,6.928 0.409699669,6.911 0.331699669,6.911 L0.331699669,6.911 C0.191699669,6.911 0.0976996691,6.964 0.0396996691,7.08 L0.0396996691,7.08 Z" id="path-7"></path>
        <path d="M12.9356625,0.453 L12.9356625,2.823 C12.9356625,7.833 11.3796625,12.033 9.75966254,15.393 L9.75966254,15.393 C7.95966254,19.083 5.04066254,22.081 0.690662542,24.302 L0.690662542,24.302 C0.420662542,24.451 -0.124337458,24.603 0.0256625419,24.813 L0.0256625419,24.813 C0.176662542,25.023 1.10266254,25.113 1.37266254,24.993 L1.37266254,24.993 C5.39266254,23.403 8.16866254,21.213 10.2086625,18.363 L10.2086625,18.363 C12.1306625,15.683 13.9416625,13.184 14.5336625,8.92 L14.5336625,8.92 C14.5516625,8.792 14.5856625,8.533 14.5856625,8.533 L14.5856625,8.533 C14.5856625,8.533 16.1606625,12.523 17.3956625,14.643 L17.3956625,14.643 C19.4576625,18.18 22.3056625,21.633 26.6856625,24.423 L26.6856625,24.423 C26.9556625,24.573 27.1656625,24.513 27.3456625,24.303 L27.3456625,24.303 C27.6156625,23.943 27.8026625,23.726 28.2216625,23.366 L28.2216625,23.366 C28.5226625,23.157 29.6066625,22.803 29.2756625,22.623 L29.2756625,22.623 C20.9666625,18.423 15.8256625,11.763 15.8256625,2.613 L15.8256625,2.613 L15.8256625,1.623 C16.6956625,1.353 18.1456625,1.083 18.1456625,0.783 L18.1456625,0.783 C18.1456625,0.363 15.2456625,0.093 13.4456625,0.003 L13.4456625,0.003 C13.4196625,0.001 13.3936625,0 13.3696625,0 L13.3696625,0 C13.0646625,0 12.9356625,0.175 12.9356625,0.453 L12.9356625,0.453 Z" id="path-9"></path>
        <path d="M18.0349394,0.45 L18.0349394,8.19 L13.8709394,9.48 L13.8709394,3.57 C14.6209394,3.24 15.0109394,2.94 15.0109394,2.7 L15.0109394,2.7 C15.0109394,2.34 13.5699394,2.13 12.0089394,2.07 L12.0089394,2.07 C11.6799394,2.04 11.4999394,2.22 11.4999394,2.52 L11.4999394,2.52 L11.4999394,10.02 L8.09593945,11.04 C7.79593945,11.13 7.67593945,11.34 7.82593945,11.58 L7.82593945,11.58 C8.00593945,11.79 8.18593945,11.85 8.45593945,11.79 L8.45593945,11.79 L11.4999394,10.92 L11.4999394,22.98 C11.4999394,24.15 11.7389394,24.93 12.2789394,25.29 L12.2789394,25.29 C12.8789394,25.71 14.8759394,25.89 18.8059394,25.89 L18.8059394,25.89 C22.7659394,25.89 27.1959394,25.77 28.1559394,25.5 L28.1559394,25.5 C28.8159394,25.32 29.2659394,24.9 29.4159394,24.3 L29.4159394,24.3 C29.4759394,24 29.3259394,23.91 29.0559394,23.76 L29.0559394,23.76 C28.6059394,23.52 28.3659394,22.74 28.3659394,21.45 L28.3659394,21.45 C28.3659394,21.27 28.3959394,20.61 28.4259394,19.53 L28.4259394,19.53 C28.4259394,19.23 28.3359394,19.08 28.1559394,18.99 L28.1559394,18.99 C27.8259394,18.87 27.6159394,19.02 27.5859394,19.35 L27.5859394,19.35 C27.3459394,21.51 27.0159394,22.89 26.6259394,23.49 L26.6259394,23.49 C26.2959394,24 22.3159394,24.24 18.6259394,24.24 L18.6259394,24.24 C15.6259394,24.24 14.8309394,24.15 14.3809394,23.97 L14.3809394,23.97 C14.0209394,23.82 13.8709394,23.49 13.8709394,22.95 L13.8709394,22.95 L13.8709394,10.41 L18.0349394,9.09 L18.0349394,20.22 C18.0349394,20.52 18.1859394,20.7 18.4849394,20.7 L18.4849394,20.7 L20.0659394,20.7 C20.3959394,20.7 20.5459394,20.52 20.5459394,20.22 L20.5459394,20.22 L20.5459394,8.55 L25.0659394,7.17 L25.0659394,15.84 C25.0659394,16.47 24.7059394,16.77 23.9859394,16.77 L23.9859394,16.77 C23.3559394,16.77 22.6359394,16.71 21.9159394,16.65 L21.9159394,16.65 C21.5859394,16.62 21.5559394,17.34 21.8259394,17.4 L21.8259394,17.4 C22.4559394,17.52 22.9359394,17.67 23.2959394,17.82 L23.2959394,17.82 C23.6259394,17.97 23.8359394,18.24 23.9559394,18.63 L23.9559394,18.63 C24.0159394,18.93 24.1659394,19.11 24.4659394,19.08 L24.4659394,19.08 C25.9959394,18.96 27.4929394,18.18 27.4929394,16.71 L27.4929394,16.71 L27.4929394,7.44 L28.2419394,6.87 C28.3929394,6.78 28.4519394,6.66 28.4519394,6.54 L28.4519394,6.54 C28.4519394,6.27 27.2259394,5.79 26.2359394,5.07 L26.2359394,5.07 C25.9659394,4.86 25.7259394,4.89 25.5459394,5.16 L25.5459394,5.16 L24.7359394,6.36 L20.5459394,7.65 L20.5459394,1.59 C21.3559394,1.26 21.9459394,0.99 21.9459394,0.72 L21.9459394,0.72 C21.9459394,0.347 19.6819394,0.044 18.5159394,0 L18.5159394,0 C18.2149394,0 18.0349394,0.15 18.0349394,0.45 L18.0349394,0.45 Z M3.47993945,0.84 L3.47993945,8.1 L0.595939445,8.1 C0.265939445,8.1 0.0859394453,8.25 0.145939445,8.46 L0.145939445,8.46 C0.235939445,8.73 0.415939445,8.85 0.685939445,8.85 L0.685939445,8.85 L3.47993945,8.85 L3.47993945,19.65 C2.66993945,19.89 2.12593945,20.16 0.385939445,20.52 L0.385939445,20.52 C0.0859394453,20.58 -0.0640605547,20.79 0.0259394453,21.09 L0.0259394453,21.09 C0.415939445,22.53 0.805939445,23.22 1.22593945,23.22 L1.22593945,23.22 C1.46593945,23.22 1.64593945,22.89 1.73593945,22.2 L1.73593945,22.2 C4.49593945,21.21 7.22493945,20.04 9.92593945,18.69 L9.92593945,18.69 C10.1659394,18.57 10.5689394,18.45 10.5389394,18.27 L10.5389394,18.27 C10.5099394,17.94 10.0159394,17.82 9.71593945,17.91 L9.71593945,17.91 C8.42593945,18.36 7.16593945,18.78 5.87593945,19.17 L5.87593945,19.17 L5.87593945,8.85 L9.65593945,8.85 C9.92593945,8.85 10.0759394,8.76 10.1949394,8.58 L10.1949394,8.58 C10.2959394,8.379 10.3809394,8.284 10.4439394,8.245 L10.4439394,8.245 C10.3749394,8.2 10.2749394,8.105 10.1359394,7.92 L10.1359394,7.92 C9.83493945,7.5 9.44593945,7.05 8.99593945,6.54 L8.99593945,6.54 C8.78593945,6.3 8.51593945,6.3 8.33593945,6.6 L8.33593945,6.6 L7.31593945,8.1 L5.87593945,8.1 L5.87593945,1.95 C6.71593945,1.62 7.13593945,1.32 7.13593945,1.08 L7.13593945,1.08 C7.13593945,0.72 5.60893945,0.48 3.98893945,0.39 L3.98893945,0.39 C3.96493945,0.388 3.94193945,0.387 3.91993945,0.387 L3.91993945,0.387 C3.63493945,0.387 3.47993945,0.562 3.47993945,0.84 L3.47993945,0.84 Z M10.4439394,8.245 C10.5319394,8.302 10.5679394,8.276 10.5619394,8.251 L10.5619394,8.251 C10.5579394,8.236 10.5409394,8.221 10.5139394,8.221 L10.5139394,8.221 C10.4949394,8.221 10.4719394,8.228 10.4439394,8.245 L10.4439394,8.245 Z" id="path-11"></path>
        <path d="M10.8886085,0.45 L10.8886085,5.79 L0.444608469,5.79 C0.0846084688,5.79 -0.0643915312,5.94 0.0256084688,6.15 L0.0256084688,6.15 C0.0846084688,6.42 0.264608469,6.54 0.534608469,6.54 L0.534608469,6.54 L9.15160847,6.54 L9.15160847,9.09 C9.15160847,10.811 8.29560847,14.64 7.63460847,16.65 L7.63460847,16.65 C6.40560847,20.49 4.91060847,23.61 1.04060847,26.01 L1.04060847,26.01 C0.770608469,26.16 0.624608469,26.37 0.745608469,26.61 L0.745608469,26.61 C0.925608469,26.85 1.13560847,26.884 1.40560847,26.733 L1.40560847,26.733 C4.49460847,25.264 6.86560847,23.4 8.39560847,21.06 L8.39560847,21.06 C9.83560847,18.9 10.7946085,16.23 11.3056085,13.05 L11.3056085,13.05 L21.5156085,13.05 C21.4846085,17.31 21.1556085,20.49 20.5256085,22.59 L20.5256085,22.59 C20.2556085,23.58 19.5046085,24.06 18.2756085,24.06 L18.2756085,24.06 C17.0456085,24.06 14.4556085,23.94 12.5356085,23.67 L12.5356085,23.67 C12.2056085,23.64 11.9956085,23.675 11.9956085,23.945 L11.9956085,23.945 C11.9956085,24.215 12.1446085,24.31 12.4456085,24.34 L12.4456085,24.34 C14.1556085,24.64 16.2956085,24.91 16.8046085,25.09 L16.8046085,25.09 C17.4656085,25.33 17.9156085,25.8 18.0646085,26.19 L18.0646085,26.19 C18.1856085,26.46 18.3056085,26.64 18.6046085,26.61 L18.6046085,26.61 C19.6846085,26.55 21.2116085,26.22 21.8416085,25.62 L21.8416085,25.62 C23.1316085,24.36 23.8516085,20.4 24.0016085,13.62 L24.0016085,13.62 L24.8956085,13.14 C25.0756085,13.02 25.1656085,12.9 25.1656085,12.75 L25.1656085,12.75 C25.1656085,12.48 24.8556085,11.94 23.8346085,11.13 L23.8346085,11.13 C23.5956085,10.95 23.3556085,10.98 23.1756085,11.19 L23.1756085,11.19 L21.2456085,12.3 L11.4246085,12.3 C11.6656085,10.71 11.7846085,8.79 11.7846085,6.54 L11.7846085,6.54 L25.7456085,6.54 C26.0156085,6.54 26.1356085,6.48 26.2256085,6.33 L26.2256085,6.33 C26.3446085,6.09 26.3446085,5.88 26.1356085,5.67 L26.1356085,5.67 C25.5656085,5.01 25.0256085,4.44 24.5156085,3.96 L24.5156085,3.96 C24.2746085,3.75 24.0656085,3.78 23.8556085,4.05 L23.8556085,4.05 L22.5056085,5.79 L13.3756085,5.79 L13.2336085,1.113 C14.1636085,0.783 14.8686085,0.738 14.8686085,0.438 L14.8686085,0.438 C14.8686085,0.152 13.8876085,0.007 12.1146085,0 L12.1146085,0 C12.1076085,0 12.1006085,0 12.0926085,0 L12.0926085,0 C11.2586085,0 10.8886085,0.153 10.8886085,0.45 L10.8886085,0.45 Z" id="path-13"></path>
        <path d="M8.84095863,0.288 C7.04095863,4.068 4.55095863,7.218 1.37095863,9.678 L1.37095863,9.678 C1.12995863,9.888 1.06995863,10.068 1.22095863,10.278 L1.22095863,10.278 C1.40095863,10.518 1.60995863,10.578 1.87995863,10.398 L1.87995863,10.398 C5.36095863,8.088 7.99995863,5.358 9.88995863,2.208 L9.88995863,2.208 C12.2299586,3.558 14.2409586,5.298 15.9809586,7.518 L15.9809586,7.518 C16.2209586,7.818 16.4909586,7.998 16.7909586,7.998 L16.7909586,7.998 C17.3599586,7.998 17.6299586,7.668 17.6299586,7.068 L17.6299586,7.068 C17.6299586,6.438 17.1209586,5.688 16.0409586,4.818 L16.0409586,4.818 C14.6309586,3.648 12.7109586,2.568 10.2809586,1.578 L10.2809586,1.578 L10.2809586,1.548 C11.1209586,1.428 11.3419586,1.163 11.3419586,0.923 L11.3419586,0.923 C11.3419586,0.563 10.8499586,0.318 9.47095863,0.018 L9.47095863,0.018 C9.41095863,0.006 9.35395863,0 9.30095863,0 L9.30095863,0 C9.08995863,0 8.93595863,0.096 8.84095863,0.288 L8.84095863,0.288 Z M25.9509586,1.128 L25.9509586,23.598 C25.9509586,24.198 25.5909586,24.528 24.8099586,24.528 L24.8099586,24.528 C23.7009586,24.528 22.5599586,24.438 21.3299586,24.288 L21.3299586,24.288 C21.0009586,24.258 20.8209586,24.378 20.8209586,24.618 L20.8209586,24.618 C20.8209586,24.918 20.9699586,25.068 21.2709586,25.098 L21.2709586,25.098 C22.4699586,25.338 23.2509586,25.488 23.7009586,25.668 L23.7009586,25.668 C24.1799586,25.848 24.4799586,26.148 24.6009586,26.508 L24.6009586,26.508 C24.6909586,26.808 24.8099586,26.958 25.1099586,26.928 L25.1099586,26.928 C25.5909586,26.898 25.9799586,26.838 26.2799586,26.748 L26.2799586,26.748 C27.2399586,26.448 28.0669586,25.728 28.0669586,24.648 L28.0669586,24.648 L28.0669586,2.238 C28.8469586,1.968 29.2929586,1.728 29.2929586,1.488 L29.2929586,1.488 C29.2929586,1.098 28.0499586,0.828 26.4599586,0.678 L26.4599586,0.678 C26.4389586,0.676 26.4169586,0.675 26.3969586,0.675 L26.3969586,0.675 C26.1309586,0.675 25.9509586,0.85 25.9509586,1.128 L25.9509586,1.128 Z M19.9799586,4.158 L19.9799586,20.208 C19.9799586,20.538 20.1299586,20.688 20.4609586,20.688 L20.4609586,20.688 L21.4169586,20.688 C21.7169586,20.688 22.1789586,20.538 22.1789586,20.208 L22.1789586,20.208 L22.1789586,5.238 C22.9579586,4.968 23.8299586,4.728 23.8299586,4.488 L23.8299586,4.488 C23.8299586,4.098 22.0499586,3.828 20.4899586,3.738 L20.4899586,3.738 C20.4629586,3.735 20.4369586,3.734 20.4109586,3.734 L20.4109586,3.734 C20.1309586,3.734 19.9799586,3.883 19.9799586,4.158 L19.9799586,4.158 Z M11.9909586,5.598 L11.1209586,6.648 L7.22095863,6.648 C6.89095863,6.648 6.70995863,6.798 6.80095863,7.038 L6.80095863,7.038 C6.89095863,7.278 7.06995863,7.398 7.31095863,7.398 L7.31095863,7.398 L13.2199586,7.398 C13.4599586,7.398 13.6109586,7.338 13.7309586,7.188 L13.7309586,7.188 C13.8809586,6.948 13.8809586,6.738 13.6699586,6.528 L13.6699586,6.528 C13.3409586,6.168 12.9809586,5.838 12.6509586,5.538 L12.6509586,5.538 C12.5439586,5.458 12.4439586,5.42 12.3469586,5.42 L12.3469586,5.42 C12.2249586,5.42 12.1079586,5.481 11.9909586,5.598 L11.9909586,5.598 Z M15.2699586,8.658 L14.5209586,9.558 L6.37995863,9.558 C5.92995863,9.348 5.42095863,9.138 4.88095863,8.928 L4.88095863,8.928 C4.57995863,8.778 3.90795863,8.958 3.90795863,9.288 L3.90795863,9.288 L3.90795863,14.808 C3.90795863,19.008 2.22995863,23.285 0.00995862656,26.255 L0.00995862656,26.255 C-0.139041373,26.495 1.42995863,25.731 1.64095863,25.521 L1.64095863,25.521 C3.71095863,23.541 5.00095863,21.798 5.60095863,19.128 L5.60095863,19.128 L5.60095863,26.748 C5.60095863,27.048 5.78095863,27.198 6.08095863,27.198 L6.08095863,27.198 L6.80095863,27.198 C7.09995863,27.198 7.68295863,27.048 7.68295863,26.748 L7.68295863,26.748 L7.68295863,25.608 L14.6429586,25.608 L14.6429586,26.328 C14.6429586,26.629 15.8319586,26.78 16.2939586,26.805 L16.2939586,26.805 C16.5479586,26.78 16.6969586,26.629 16.6969586,26.328 L16.6969586,26.328 L16.6969586,20.958 L17.3569586,20.508 C17.4759586,20.418 17.5069586,20.328 17.5069586,20.238 L17.5069586,20.238 C17.5069586,19.968 17.0569586,19.518 16.1569586,18.858 L16.1569586,18.858 C15.8869586,18.678 15.4969586,18.708 15.3169586,18.948 L15.3169586,18.948 L14.6569586,19.758 L7.49095863,19.758 C6.86095863,19.458 6.26095863,19.218 5.63095863,18.978 L5.63095863,18.978 C5.78095863,18.318 5.90095863,17.598 5.96095863,16.758 L5.96095863,16.758 L14.7599586,16.758 L14.7599586,17.298 C14.7599586,17.598 14.9399586,17.748 15.2409586,17.748 L15.2409586,17.748 L16.8999586,17.748 C17.2309586,17.748 16.8139586,17.598 16.8139586,17.298 L16.8139586,17.298 L16.8139586,10.758 L17.4439586,10.338 C17.6239586,10.218 17.7139586,10.128 17.7139586,10.008 L17.7139586,10.008 C17.7139586,9.768 17.2639586,9.318 16.3939586,8.598 L16.3939586,8.598 C16.2849586,8.503 16.0899586,8.458 15.8879586,8.458 L15.8879586,8.458 C15.6409586,8.458 15.3859586,8.526 15.2699586,8.658 L15.2699586,8.658 Z M6.05095863,12.679 L14.7599586,12.679 L14.7599586,10.308 L6.05095863,10.308 L6.05095863,12.679 Z M6.05095863,14.718 L6.05095863,13.428 L14.7599586,13.428 L14.7599586,16.008 L6.01995863,16.008 C6.05095863,15.738 6.05095863,15.288 6.05095863,14.718 L6.05095863,14.718 Z M7.68295863,24.858 L14.6429586,24.858 L14.6429586,20.508 L7.68295863,20.508 L7.68295863,24.858 Z M16.2159586,26.808 L16.4069586,26.808 C16.3779586,26.808 16.3389586,26.807 16.2939586,26.805 L16.2939586,26.805 C16.2689586,26.807 16.2429586,26.808 16.2159586,26.808 L16.2159586,26.808 Z" id="path-15"></path>
        <path d="M12.2630941,0.453 L12.2630941,7.203 L5.90209414,7.203 C6.38209414,5.913 6.80209414,4.653 7.16209414,3.393 L7.16209414,3.393 C8.06209414,3.243 8.51209414,3.033 8.51209414,2.733 L8.51209414,2.733 C8.51209414,2.373 6.67309414,1.953 5.02209414,1.503 L5.02209414,1.503 C4.69309414,1.413 4.48209414,1.533 4.42309414,1.833 L4.42309414,1.833 C3.52309414,6.663 2.96209414,10.713 0.743094136,14.043 L0.743094136,14.043 C0.563094136,14.313 0.563094136,14.493 0.743094136,14.613 L0.743094136,14.613 C0.982094136,14.793 1.19209414,14.595 1.40209414,14.354 L1.40209414,14.354 C3.11209414,12.375 4.49209414,10.383 5.57209414,7.953 L5.57209414,7.953 L12.2630941,7.953 L12.2630941,14.973 L3.98309414,14.973 C3.62309414,14.973 3.44209414,15.123 3.53309414,15.363 L3.53309414,15.363 C3.62309414,15.603 3.80209414,15.723 4.07309414,15.723 L4.07309414,15.723 L12.2630941,15.723 L12.2630941,23.823 L0.442094136,23.823 C0.113094136,23.823 -0.0669058641,23.973 0.0230941359,24.213 L0.0230941359,24.213 C0.113094136,24.453 0.293094136,24.573 0.563094136,24.573 L0.563094136,24.573 L27.4020941,24.573 C27.6720941,24.573 27.8230941,24.483 27.9420941,24.303 L27.9420941,24.303 C28.0620941,24.063 28.0620941,23.883 27.8820941,23.673 L27.8820941,23.673 C27.3420941,22.983 26.8330941,22.413 26.3830941,21.933 L26.3830941,21.933 C26.1720941,21.723 25.9020941,21.753 25.7220941,21.993 L25.7220941,21.993 L24.3130941,23.823 L15.1520941,23.823 L15.1520941,15.723 L24.5220941,15.723 C24.7920941,15.723 24.9430941,15.603 25.0620941,15.393 L25.0620941,15.393 C25.2130941,15.153 25.1820941,14.973 25.0020941,14.763 L25.0020941,14.763 C24.5520941,14.193 24.1020941,13.683 23.6220941,13.203 L23.6220941,13.203 C23.3820941,12.963 23.1430941,12.993 22.9630941,13.263 L22.9630941,13.263 L21.7030941,14.973 L15.1520941,14.973 L15.1520941,7.953 L25.9920941,7.953 C26.2620941,7.953 26.4120941,7.863 26.5320941,7.683 L26.5320941,7.683 C26.6530941,7.443 26.6530941,7.263 26.4730941,7.053 L26.4730941,7.053 C26.0520941,6.513 25.5730941,5.973 25.0330941,5.433 L25.0330941,5.433 C24.7920941,5.193 24.5520941,5.223 24.3720941,5.493 L24.3720941,5.493 L23.0820941,7.203 L15.1520941,7.203 L15.1520941,1.683 C16.0220941,1.353 16.3300941,1.053 16.3300941,0.783 L16.3300941,0.783 C16.3300941,0.393 14.5720941,0.123 12.7720941,0.003 L12.7720941,0.003 C12.7460941,0.001 12.7210941,0 12.6970941,0 L12.6970941,0 C12.3910941,0 12.2630941,0.175 12.2630941,0.453 L12.2630941,0.453 Z" id="path-17"></path>
        <path d="M2.88285714,0.45 L2.88285714,8.79 L0.462857143,8.79 C0.102857143,8.79 -0.0471428571,8.94 0.0128571429,9.15 L0.0128571429,9.15 C0.102857143,9.42 0.252857143,9.54 0.552857143,9.54 L0.552857143,9.54 L2.88285714,9.54 L2.88285714,26.46 C2.88285714,26.76 4.03285714,26.91 4.36285714,26.91 L4.36285714,26.91 L5.08285714,26.91 C5.41285714,26.91 5.56285714,26.76 5.56285714,26.46 L5.56285714,26.46 L5.56285714,9.54 L9.10285714,9.54 C9.34285714,9.54 9.49285714,9.48 9.61285714,9.3 L9.61285714,9.3 C9.73285714,9.06 9.73285714,8.85 9.58285714,8.64 L9.58285714,8.64 C9.25285714,8.16 8.86285714,7.68 8.47285714,7.23 L8.47285714,7.23 C8.26285714,6.99 7.99285714,6.99 7.81285714,7.26 L7.81285714,7.26 L6.79285714,8.79 L5.56285714,8.79 L5.56285714,1.65 C6.43285714,1.32 6.85285714,0.99 6.85285714,0.72 L6.85285714,0.72 C6.85285714,0.3 6.01285714,0.06 4.39285714,0 L4.39285714,0 C4.06285714,0 2.88285714,0.15 2.88285714,0.45 L2.88285714,0.45 Z M16.7628571,0.48 L16.7628571,2.37 C16.7628571,2.82 16.7328571,3.27 16.6728571,3.72 L16.6728571,3.72 L11.7028571,3.72 C11.3728571,3.72 11.1928571,3.87 11.2828571,4.11 L11.2828571,4.11 C11.4028571,4.35 11.5528571,4.47 11.8228571,4.47 L11.8228571,4.47 L16.5528571,4.47 C15.9228571,7.62 14.6128571,9.99 10.7128571,11.58 L10.7128571,11.58 C10.4128571,11.7 10.2628571,11.85 10.3528571,12.03 L10.3528571,12.03 C10.5028571,12.27 10.7128571,12.36 10.9828571,12.27 L10.9828571,12.27 C15.9628571,10.89 18.7528571,8.25 19.3528571,4.38 L19.3528571,4.38 L25.3528571,4.38 C25.3228571,6.24 25.2028571,7.56 24.9628571,8.34 L24.9628571,8.34 C24.7828571,9.03 24.2428571,9.39 23.3428571,9.39 L23.3428571,9.39 C22.8028571,9.39 21.7528571,9.33 20.1928571,9.12 L20.1928571,9.12 L20.0728571,9.12 C19.7428571,9.06 19.5628571,9.12 19.5628571,9.33 L19.5628571,9.33 C19.5628571,9.6 19.7128571,9.78 20.0128571,9.81 L20.0128571,9.81 C21.3328571,10.08 22.1428571,10.29 22.5028571,10.44 L22.5028571,10.44 C22.9228571,10.62 23.1928571,10.89 23.3128571,11.19 L23.3128571,11.19 C23.4028571,11.46 23.5528571,11.61 23.8528571,11.61 L23.8528571,11.61 C24.6628571,11.52 25.7558571,11.19 26.2658571,10.71 L26.2658571,10.71 C26.9558571,9.99 27.3758571,8.04 27.4658571,4.83 L27.4658571,4.83 L28.1558571,4.41 C28.3058571,4.29 28.3958571,4.2 28.3958571,4.11 L28.3958571,4.11 C28.3958571,3.87 27.9458571,3.39 27.0158571,2.61 L27.0158571,2.61 C26.7758571,2.4 26.1028571,2.43 25.8928571,2.67 L25.8928571,2.67 L25.1428571,3.63 L19.4428571,3.63 C19.5028571,2.94 19.5028571,2.55 19.5028571,2.43 L19.5028571,2.43 L19.5028571,1.53 C20.2828571,1.2 20.6728571,0.93 20.6728571,0.69 L20.6728571,0.69 C20.6728571,0.36 18.8628571,0.12 17.2728571,0.03 L17.2728571,0.03 C17.2488571,0.028 17.2258571,0.027 17.2038571,0.027 L17.2038571,0.027 C16.9178571,0.027 16.7628571,0.202 16.7628571,0.48 L16.7628571,0.48 Z M21.6518571,13.11 L21.6518571,16.47 L18.0458571,16.47 C17.9258571,16.26 18.0818571,16.098 17.3618571,15.558 L17.3618571,15.558 C17.0918571,15.378 16.7328571,15.21 16.5528571,15.42 L16.5528571,15.42 L16.0288571,16.38 L12.1788571,16.38 L12.1788571,14.25 C12.8688571,13.98 13.2288571,13.71 13.2288571,13.5 L13.2288571,13.5 C13.2288571,13.14 12.7628571,12.9 11.2928571,12.81 L11.2928571,12.81 C10.9628571,12.78 9.78285714,12.96 9.78285714,13.26 L9.78285714,13.26 L9.78285714,16.47 L7.57285714,16.47 C7.21285714,16.47 7.03285714,16.62 7.12285714,16.86 L7.12285714,16.86 C7.21285714,17.1 7.39285714,17.22 7.66285714,17.22 L7.66285714,17.22 L9.75285714,17.22 C9.51285714,20.94 9.31285714,23.94 7.15285714,26.22 L7.15285714,26.22 C6.94285714,26.46 6.88285714,26.64 7.00285714,26.76 L7.00285714,26.76 C7.21285714,26.97 7.25385714,27 7.46385714,26.82 L7.46385714,26.82 C10.4038571,24.69 11.8788571,21.45 12.1488571,17.13 L12.1488571,17.13 L16.0728571,17.13 C16.0728571,20.25 16.0128571,22.32 15.8018571,23.34 L15.8018571,23.34 C15.6828571,24.03 15.2028571,24.39 14.4528571,24.39 L14.4528571,24.39 C14.0328571,24.39 13.3728571,24.33 12.4428571,24.21 L12.4428571,24.21 C12.1128571,24.18 11.9318571,24.27 11.9318571,24.48 L11.9318571,24.48 C11.9318571,24.75 12.0528571,24.9 12.3528571,24.99 L12.3528571,24.99 C12.9528571,25.17 13.3728571,25.32 13.6128571,25.44 L13.6128571,25.44 C13.9128571,25.59 14.1228571,25.86 14.2128571,26.16 L14.2128571,26.16 C14.3028571,26.46 14.4228571,26.61 14.7228571,26.61 L14.7228571,26.61 C15.7428571,26.52 16.8958571,26.16 17.3158571,25.5 L17.3158571,25.5 C17.7658571,24.75 18.3198571,22.08 18.0658571,17.4 L18.0658571,17.4 L18.1028571,17.22 L21.5928571,17.22 C21.3228571,20.88 21.0628571,23.79 18.7828571,25.98 L18.7828571,25.98 C18.5428571,26.19 18.4828571,26.37 18.6328571,26.52 L18.6328571,26.52 C18.8428571,26.7 19.0528571,26.73 19.2928571,26.58 L19.2928571,26.58 C22.2928571,24.51 23.6888571,21.36 23.9898571,17.13 L23.9898571,17.13 L27.2258571,17.13 C27.2258571,19.95 27.1068571,22.02 26.8658571,23.31 L26.8658571,23.31 C26.7168571,24.06 26.0128571,24.42 25.2928571,24.42 L25.2928571,24.42 C24.9028571,24.42 24.2128571,24.36 23.2528571,24.21 L23.2528571,24.21 C22.9228571,24.18 22.7428571,24.27 22.7428571,24.51 L22.7428571,24.51 C22.7428571,24.78 22.8628571,24.96 23.1628571,25.02 L23.1628571,25.02 C23.8528571,25.2 24.3028571,25.35 24.4828571,25.44 L24.4828571,25.44 C24.7528571,25.59 25.2158571,25.83 25.3068571,26.13 L25.3068571,26.13 C25.3968571,26.43 25.5158571,26.58 25.8168571,26.58 L25.8168571,26.58 C27.1658571,26.46 28.4388571,25.8 28.7698571,24.63 L28.7698571,24.63 C29.0688571,23.55 29.2488571,21.18 29.2788571,17.46 L29.2788571,17.46 L29.6258571,17.01 C29.8058571,16.89 29.8658571,16.77 29.8658571,16.65 L29.8658571,16.65 C29.8658571,16.44 29.4458571,15.99 28.6058571,15.36 L28.6058571,15.36 C28.3658571,15.15 27.6928571,15.18 27.5128571,15.42 L27.5128571,15.42 L26.7628571,16.38 L24.0488571,16.38 L24.0488571,14.13 C24.7398571,13.86 25.0998571,13.62 25.0998571,13.41 L25.0998571,13.41 C25.0998571,13.05 23.6328571,12.81 22.1628571,12.69 L22.1628571,12.69 C22.1348571,12.688 22.1088571,12.686 22.0828571,12.686 L22.0828571,12.686 C21.8038571,12.686 21.6518571,12.835 21.6518571,13.11 L21.6518571,13.11 Z" id="path-19"></path>
        <path d="M12.2548393,0.318 C9.70383927,5.838 5.74383927,10.158 0.374839269,13.338 L0.374839269,13.338 C0.104839269,13.488 -0.0991607307,13.696 0.0508392693,13.876 L0.0508392693,13.876 C0.200839269,14.116 0.410839269,14.007 0.680839269,13.886 L0.680839269,13.886 C6.23083927,11.186 10.4848393,8.518 13.2748393,3.628 L13.2748393,3.628 C13.3348393,3.508 13.3938393,3.418 13.4838393,3.298 L13.4838393,3.298 C16.0038393,7.258 20.9048393,9.678 26.1248393,12.558 L26.1248393,12.558 C26.3948393,12.708 26.6038393,12.618 26.7848393,12.378 L26.7848393,12.378 C27.0248393,11.988 27.2948393,11.628 27.5948393,11.328 L27.5948393,11.328 C27.8648393,11.058 27.8348393,10.818 27.5048393,10.668 L27.5048393,10.668 C22.4948393,8.628 17.2948393,5.688 14.0848393,1.758 L14.0848393,1.758 L13.9048393,1.518 C14.7438393,1.428 14.9108393,1.248 14.9108393,1.008 L14.9108393,1.008 C14.9108393,0.648 14.4148393,0.318 12.8538393,0.018 L12.8538393,0.018 C12.8018393,0.006 12.7508393,0 12.7038393,0 L12.7038393,0 C12.5058393,0 12.3508393,0.101 12.2548393,0.318 L12.2548393,0.318 Z M18.9248393,9.498 L17.8148393,10.848 L6.85483927,10.848 C6.52483927,10.848 6.34483927,10.998 6.43483927,11.238 L6.43483927,11.238 C6.55383927,11.478 6.70483927,11.598 6.97483927,11.598 L6.97483927,11.598 L20.5448393,11.598 C20.7848393,11.598 20.9348393,11.538 21.0548393,11.358 L21.0548393,11.358 C21.1748393,11.118 21.1448393,10.908 20.9648393,10.698 L20.9648393,10.698 C20.5448393,10.308 20.0948393,9.888 19.5848393,9.438 L19.5848393,9.438 C19.4898393,9.344 19.3888393,9.298 19.2878393,9.298 L19.2878393,9.298 C19.1648393,9.298 19.0398393,9.366 18.9248393,9.498 L18.9248393,9.498 Z M24.9038393,14.658 L23.5848393,16.248 L2.14383927,16.248 C1.75483927,16.248 1.60383927,16.428 1.72483927,16.668 L1.72483927,16.668 C1.87383927,16.878 2.05383927,16.998 2.29483927,16.998 L2.29483927,16.998 L9.15383927,16.998 L9.12483927,17.118 L9.09483927,17.148 C9.09483927,17.178 9.06383927,17.268 9.00483927,17.478 L9.00483927,17.478 C8.43383927,19.428 7.59483927,21.528 6.48483927,23.808 L6.48483927,23.808 C5.49483927,23.838 5.08483927,23.868 3.31383927,23.898 L3.31383927,23.898 C2.74483927,23.928 2.41383927,24.138 2.50383927,24.468 L2.50383927,24.468 C2.92483927,25.998 3.34483927,26.464 3.76383927,26.464 L3.76383927,26.464 C3.97483927,26.464 4.12383927,26.388 4.30383927,25.698 L4.30383927,25.698 C10.0638393,25.188 17.4948393,24.648 22.6248393,23.928 L22.6248393,23.928 L23.2548393,23.838 C23.9138393,24.618 24.4848393,25.428 24.9038393,26.268 L24.9038393,26.268 C25.1148393,26.688 25.4148393,26.898 25.8038393,26.898 L25.8038393,26.898 C26.4948393,26.898 26.8248393,26.508 26.8248393,25.758 L26.8248393,25.758 C26.8248393,25.128 26.4048393,24.348 25.5948393,23.478 L25.5948393,23.478 C24.2448393,22.008 23.1448393,21.598 20.2048393,20.188 L20.2048393,20.188 C19.9348393,20.068 19.7548393,20.068 19.6648393,20.218 L19.6648393,20.218 C19.4848393,20.458 19.5448393,20.698 19.7838393,20.878 L19.7838393,20.878 C21.3448393,21.928 21.6048393,22.008 22.5638393,23.058 L22.5638393,23.058 L21.6348393,23.118 C17.8548393,23.358 12.7048393,23.598 10.2438393,23.688 L10.2438393,23.688 L8.28083927,23.748 C8.34083927,23.658 10.8308393,19.548 12.1208393,16.998 L12.1208393,16.998 L26.6448393,16.998 C26.8838393,16.998 27.0348393,16.908 27.1538393,16.758 L27.1538393,16.758 C27.3048393,16.518 27.2748393,16.278 27.0948393,16.098 L27.0948393,16.098 C26.6448393,15.558 26.1048393,15.048 25.5338393,14.568 L25.5338393,14.568 L25.5538393,14.587 C25.4618393,14.5 25.3658393,14.458 25.2678393,14.458 L25.2678393,14.458 C25.1448393,14.458 25.0198393,14.526 24.9038393,14.658 L24.9038393,14.658 Z" id="path-21"></path>
    </defs>
    <g id="Page-1" stroke="none" stroke-width="1" fill="none" fill-rule="evenodd">
        <g id="Group-34" transform="translate(0.000000, 0.000000)">
            <g id="Group-3" transform="translate(0.000000, 3.588000)">
                <mask id="mask-2" fill="white">
                    <use xlink:href="#path-1"></use>
                </mask>
                <g id="Clip-2"></g>
                <polygon id="Fill-1" fill="#0D0D0D" mask="url(#mask-2)" points="-1 22.45 27.41 22.45 27.41 -1 -1 -1"></polygon>
            </g>
            <g id="Group-6" transform="translate(28.161000, 3.588000)">
                <mask id="mask-4" fill="white">
                    <use xlink:href="#path-3"></use>
                </mask>
                <g id="Clip-5"></g>
                <polygon id="Fill-4" fill="#0D0D0D" mask="url(#mask-4)" points="-1 22.15 20.31 22.15 20.31 -1 -1 -1"></polygon>
            </g>
            <g id="Group-9" transform="translate(49.731000, 2.838000)">
                <mask id="mask-6" fill="white">
                    <use xlink:href="#path-5"></use>
                </mask>
                <g id="Clip-8"></g>
                <polygon id="Fill-7" fill="#0D0D0D" mask="url(#mask-6)" points="-0.999 23.68 24.551 23.68 24.551 -1 -0.999 -1"></polygon>
            </g>
            <g id="Group-12" transform="translate(77.052300, 0.438000)">
                <mask id="mask-8" fill="white">
                    <use xlink:href="#path-7"></use>
                </mask>
                <g id="Clip-11"></g>
                <polygon id="Fill-10" fill="#0D0D0D" mask="url(#mask-8)" points="-0.823200331 -1.03 30.8767997 -1.03 30.6497997 27.7 -1.05020033 27.7"></polygon>
            </g>
            <g id="Group-15" transform="translate(108.007337, 1.335000)">
                <mask id="mask-10" fill="white">
                    <use xlink:href="#path-9"></use>
                </mask>
                <g id="Clip-14"></g>
                <polygon id="Fill-13" fill="#0D0D0D" mask="url(#mask-10)" points="-1.12433746 26.113 30.6056625 26.113 30.6056625 -1.027 -1.12433746 -1.027"></polygon>
            </g>
            <g id="Group-18" transform="translate(140.828061, 0.258000)">
                <mask id="mask-12" fill="white">
                    <use xlink:href="#path-11"></use>
                </mask>
                <g id="Clip-17"></g>
                <polygon id="Fill-16" fill="#0D0D0D" mask="url(#mask-12)" points="-0.497360555 -1 31.0426394 -1 30.7596394 26.89 -0.780360555 26.89"></polygon>
            </g>
            <g id="Group-21" transform="translate(174.089392, 0.228000)">
                <mask id="mask-14" fill="white">
                    <use xlink:href="#path-13"></use>
                </mask>
                <g id="Clip-20"></g>
                <polygon id="Fill-19" fill="#0D0D0D" mask="url(#mask-14)" points="-1.51839153 -1.03 26.7216085 -1.03 27.1746085 27.94 -1.06439153 27.94"></polygon>
            </g>
            <g id="Group-24" transform="translate(204.145041, 0.000000)">
                <mask id="mask-16" fill="white">
                    <use xlink:href="#path-15"></use>
                </mask>
                <g id="Clip-23"></g>
                <polygon id="Fill-22" fill="#0D0D0D" mask="url(#mask-16)" points="-1.13964137 -0.962 30.2933586 -0.962 30.2363586 28.198 -1.70664137 28.198"></polygon>
            </g>
            <g id="Group-27" transform="translate(238.093906, 0.735000)">
                <mask id="mask-18" fill="white">
                    <use xlink:href="#path-17"></use>
                </mask>
                <g id="Clip-26"></g>
                <polygon id="Fill-25" fill="#0D0D0D" mask="url(#mask-18)" points="-1.06790586 25.573 29.0620941 25.573 29.0620941 -1.027 -1.06790586 -1.027"></polygon>
            </g>
            <g id="Group-30" transform="translate(269.384143, 0.288000)">
                <mask id="mask-20" fill="white">
                    <use xlink:href="#path-19"></use>
                </mask>
                <g id="Clip-29"></g>
                <polygon id="Fill-28" fill="#0D0D0D" mask="url(#mask-20)" points="-1.04724286 -1 31.4327571 -1 31.1497571 28 -1.04724286 28"></polygon>
            </g>
            <g id="Group-33" transform="translate(301.953161, 0.120000)">
                <mask id="mask-22" fill="white">
                    <use xlink:href="#path-21"></use>
                </mask>
                <g id="Clip-32"></g>
                <polygon id="Fill-31" fill="#0D0D0D" mask="url(#mask-22)" points="-0.985160731 27.898 28.8648393 27.898 28.8648393 -1.042 -0.985160731 -1.042"></polygon>
            </g>
        </g>
    </g>
</svg>