<?xml version="1.0" encoding="UTF-8"?>
<svg width="326px" height="28px" viewBox="0 0 326 28" version="1.1" xmlns="http://www.w3.org/2000/svg" xmlns:xlink="http://www.w3.org/1999/xlink">
    <title>NPO法人地方創生協会</title>
    <g id="Page-1" stroke="none" stroke-width="1" fill="none" fill-rule="evenodd">
        <g id="NPO法人地方創生協会" transform="translate(0.871000, 0.495000)" fill="#0C0C0C" fill-rule="nonzero">
            <g id="Group" transform="translate(-0.000000, 1.000000)">
                <polygon id="Path" points="3.50127811 4.46818874 17.2180867 25.505 21.4437672 25.505 21.4437672 0.242508264 17.9424891 0.242508264 17.9424891 19.8305148 4.91989941 0.242508264 -1.89514997e-14 0.242508264 -1.89514997e-14 25.505 3.50127811 25.505"></polygon>
                <path d="M31.8445615,25.2624917 L31.8445615,15.8910565 L38.6493642,15.8910565 C43.0259618,15.8910565 46.6781571,12.5864911 46.6781571,7.00255621 C46.6781571,1.59972189 42.7241275,0 37.170376,0 L28.101816,0 L28.101816,25.2624917 L31.8445615,25.2624917 Z M31.8445615,12.782163 L31.8445615,3.22962722 L34.1988692,3.22962722 C37.4317548,3.22962722 41.4129661,2.50478522 42.6156864,6.12561422 C42.7267647,6.46001905 42.8141436,7.87229875 42.8750447,8.28483167 C43.5953639,13.1641396 37.5492302,12.782163 34.5610704,12.782163 L31.8445615,12.782163 Z" id="Shape"></path>
                <path d="M48.9179759,12.5830588 C48.9179759,19.6119993 53.42035,25.2916344 61.2965289,25.2916344 C69.988567,25.2916344 73.6750819,18.6392442 73.6750819,12.5830588 C73.6750819,6.36997739 69.831671,0 61.2965289,0 C52.7613868,0 48.9179759,6.36997739 48.9179759,12.5516796 L48.9179759,12.5830588 Z M53.028651,12.5203004 C53.028651,6.40135659 56.6524074,3.38895349 61.2965289,3.38895349 C65.9720295,3.38895349 69.5644068,6.36997739 69.5644068,12.5203004 C69.5644068,19.2668282 65.5013416,21.8399225 61.2965289,21.8399225 C57.217233,21.8399225 53.028651,19.392345 53.028651,12.5516796 L53.028651,12.5203004 Z" id="Shape"></path>
            </g>
            <path d="M86.2742308,3.886 C85.0562308,2.697 83.3742308,1.537 81.2862308,0.377 L79.4882308,2.465 C81.4022308,3.654 82.9972308,4.872 84.0992308,6.119 L86.2742308,3.886 Z M85.2012308,11.687 C83.9542308,10.411 82.2142308,9.193 79.9812308,7.975 L78.1832308,10.063 C80.2132308,11.281 81.8952308,12.586 82.9972308,13.891 L85.2012308,11.687 Z M102.919231,24.447 C103.354231,25.288 103.702231,26.129 103.992231,26.941 L107.037231,25.491 C105.877231,22.736 104.021231,19.749 101.382231,16.53 L98.7432308,17.806 C99.7872308,19.198 100.715231,20.532 101.527231,21.866 C99.2072308,22.069 94.5392308,22.301 92.0452308,22.475 C93.2632308,19.923 95.3652308,17.284 96.1772308,15.109 L108.124231,15.109 L108.124231,12.18 L98.7432308,12.18 L98.7432308,7.772 L107.384231,7.772 L107.384231,4.901 L98.7432308,4.901 L98.7432308,0 L95.5242308,0 L95.5242308,4.901 L87.3182308,4.901 L87.3182308,7.772 L95.5242308,7.772 L95.5242308,12.18 L85.5202308,12.18 L85.5202308,15.109 L92.6972308,15.109 C91.9432308,17.342 89.8412308,20.155 88.6812308,22.736 C87.6082308,22.794 86.6802308,22.881 85.8682308,22.91 L86.5642308,26.1 C90.2182308,25.723 98.4242308,25.027 102.919231,24.447 Z M85.7232308,17.197 L83.4032308,15.457 C82.1852308,18.56 80.0682308,22.765 78.6762308,24.911 L81.4022308,26.709 C82.7362308,24.389 84.6212308,20.271 85.7232308,17.197 Z" id="Shape"></path>
            <path d="M126.284308,0.145 L122.949308,0.087 C122.804308,7.482 120.253308,18.937 109.262308,24.447 L111.814308,26.912 C117.788308,23.635 122.862308,18.502 124.486308,13.224 C126.806308,19.604 131.489308,24.128 136.680308,26.912 L139.377308,24.012 C132.649308,20.967 127.531308,14.964 125.965308,5.452 C126.139308,3.567 126.226308,1.769 126.284308,0.145 Z" id="Path"></path>
            <path d="M165.396385,5.075 L161.380385,6.351 L161.380385,0.029 L158.335385,0.029 L158.335385,7.656 L154.377385,8.932 L154.377385,2.726 L151.274385,2.726 L151.274385,10.237 L147.997385,11.658 L149.099385,14.384 L151.274385,13.456 L151.274385,20.3 C151.274385,25.23 152.434385,26.361 156.320385,26.448 C158.118385,26.506 162.670385,26.506 164.584385,26.448 C168.296385,26.361 168.905385,25.723 169.340385,20.909 L166.353385,20.358 C166.237385,23.142 166.063385,23.345 164.323385,23.374 C162.641385,23.403 158.205385,23.403 156.581385,23.374 C154.928385,23.316 154.377385,22.881 154.377385,20.271 L154.377385,12.18 L158.335385,10.933 L158.335385,20.097 L161.380385,20.097 L161.380385,9.657 L165.396385,8.41 C165.396385,13.369 165.338385,15.863 165.106385,16.153 C165.048385,16.24 164.932385,16.269 164.758385,16.269 C164.410385,16.269 163.685385,16.269 163.221385,16.211 L163.569385,19.198 C164.207385,19.227 165.367385,19.227 165.831385,19.227 C166.556385,19.198 167.049385,19.053 167.426385,18.734 C168.354385,17.98 168.383385,13.775 168.412385,5.423 L165.396385,5.075 Z M140.196385,19.314 L141.008385,22.562 C143.357385,21.808 147.359385,20.445 150.027385,19.43 L149.766385,16.733 C148.867385,16.994 147.852385,17.284 146.750385,17.603 L146.750385,9.309 L149.476385,9.309 L149.476385,6.438 L146.750385,6.438 L146.750385,0 L143.705385,0 L143.705385,6.438 L140.660385,6.438 L140.660385,9.309 L143.705385,9.309 L143.705385,18.415 C142.342385,18.763 141.095385,19.082 140.196385,19.314 Z" id="Shape"></path>
            <path d="M193.053462,10.991 L183.571462,10.991 C183.745462,9.802 183.861462,8.642 183.977462,7.482 L198.216462,7.482 L198.216462,4.553 L186.471462,4.553 L186.471462,0.029 L183.165462,0.029 L183.165462,4.553 L171.739462,4.553 L171.739462,7.482 L180.700462,7.482 C180.265462,13.775 178.902462,20.967 171.710462,24.679 L174.436462,26.912 C179.598462,23.954 181.889462,19.082 183.020462,14.007 L192.908462,14.007 C192.560462,20.039 192.096462,23.142 191.545462,23.606 C191.313462,23.751 189.081462,23.809 188.733462,23.838 C187.892462,23.867 188.123462,23.838 187.021462,23.751 L187.572462,26.883 C188.732462,26.912 188.704462,26.97 189.603462,26.941 C190.618462,26.912 193.401462,26.709 193.981462,26.303 C195.286462,25.375 195.895462,20.242 196.388462,10.991 L194.329462,10.991 L193.053462,10.991 Z" id="Path"></path>
            <path d="M226.612538,1.029 L226.612538,22.91 C226.612538,23.49 226.438538,23.809 225.800538,23.867 C225.307538,23.925 223.944538,23.896 222.900538,23.838 L223.538538,26.912 C224.814538,26.97 226.525538,26.97 227.279538,26.854 C229.135538,26.564 229.686538,25.433 229.686538,23.461 L229.686538,1.029 L226.612538,1.029 Z M214.882538,6.206 C216.129538,7.105 218.347538,7.83 219.594538,8.468 L220.783538,6.264 L220.783538,19.981 L223.741538,19.981 L223.741538,2.248 L220.783538,2.248 L220.783538,5.626 C218.231538,4.466 214.592538,2.755 212.301538,0.029 L209.952538,0.029 C207.719538,2.871 204.993538,4.872 202.267538,6.003 L203.659538,8.642 C205.022538,8.004 206.356538,7.192 207.632538,6.206 L207.632538,7.337 L214.882538,7.337 L214.882538,6.206 Z M208.647538,5.336 C209.488538,4.611 210.300538,3.741 211.112538,2.784 C212.011538,3.77 212.881538,4.611 213.780538,5.336 L208.647538,5.336 Z M214.650538,13.659 L214.650538,15.08 L207.516538,15.08 C207.545538,14.616 207.545538,14.152 207.545538,13.659 L214.650538,13.659 Z M207.545538,12.006 L207.545538,10.614 L214.650538,10.614 L214.650538,12.006 L207.545538,12.006 Z M215.143538,26.042 L215.143538,26.941 L218.130538,26.941 L218.130538,18.415 L207.168538,18.415 C207.255538,17.951 207.313538,17.487 207.371538,17.052 L217.608538,17.052 L217.608538,8.671 L207.545538,8.671 L206.037538,8.671 L204.645538,8.671 L204.645538,13.543 C204.645538,17.081 204.123538,20.532 202.209538,23.635 C202.963538,24.244 203.688538,24.853 204.587538,25.578 C205.312538,24.36 205.863538,23.113 206.298538,21.837 L206.298538,26.941 L209.169538,26.941 L209.169538,26.042 L215.143538,26.042 Z M209.169538,23.577 L209.169538,20.851 L215.143538,20.851 L215.143538,23.577 L209.169538,23.577 Z" id="Shape"></path>
            <path d="M234.129615,22.881 L234.129615,25.839 L262.287615,25.839 L262.287615,22.881 L251.006615,22.881 L251.006615,16.994 L259.691615,16.994 L259.691615,14.036 L251.006615,14.036 L251.006615,8.845 L260.663615,8.845 L260.663615,5.887 L251.006615,5.887 L251.006615,0 L247.700615,0 L247.700615,5.887 L241.118615,5.887 C241.582615,4.553 241.959615,3.19 242.249615,1.798 L239.030615,1.189 C238.218615,5.336 236.478615,9.222 233.897615,12.441 L236.826615,13.949 C238.015615,12.354 239.059615,10.643 239.900615,8.845 L247.700615,8.845 L247.700615,14.036 L238.131615,14.036 L238.131615,16.994 L247.700615,16.994 L247.700615,22.881 L234.129615,22.881 Z" id="Path"></path>
            <path d="M279.519692,14.442 L277.837692,14.442 C277.895692,13.572 277.924692,12.673 277.953692,11.774 L276.648692,11.716 C280.099692,10.353 281.955692,8.294 282.999692,5.597 L288.045692,5.597 C287.842692,7.337 286.639692,8.12 286.320692,8.265 C286.233692,8.323 286.117692,8.352 285.914692,8.352 C285.421692,8.352 285.377692,8.352 284.710692,8.294 L285.087692,10.933 C285.841692,10.962 287.204692,10.962 287.784692,10.962 C288.480692,10.933 289.060692,10.846 289.466692,10.643 C290.452692,10.15 290.887692,7.946 291.206692,2.987 L289.582692,2.987 L288.248692,2.987 L283.724692,2.987 C283.898692,2.088 284.014692,1.131 284.130692,0.116 L281.201692,0.029 C281.114692,1.073 280.998692,2.088 280.766692,2.987 L274.705692,2.987 L274.705692,5.597 L279.838692,5.597 C278.881692,7.366 276.286692,8.729 273.560692,9.686 L273.560692,7.134 L270.892692,7.134 L270.892692,0.029 L267.876692,0.029 L267.876692,7.134 L264.860692,7.134 L264.860692,9.947 L267.876692,9.947 L267.876692,26.941 L270.892692,26.941 L270.892692,9.947 L273.502692,9.947 L276.445692,11.716 L275.285692,11.687 C275.285692,12.615 275.256692,13.543 275.198692,14.442 L271.907692,14.442 L271.907692,16.965 L275.024692,16.965 C274.676692,20.474 272.893692,23.374 271.095692,25.288 L273.299692,26.883 C275.387692,24.592 277.257692,21.141 277.663692,16.965 L279.461692,16.965 C279.316692,21.605 279.113692,23.896 278.765692,24.157 C278.678692,24.244 278.533692,24.273 278.359692,24.273 C277.982692,24.302 277.112692,24.273 276.619692,24.244 L276.938692,26.796 C277.576692,26.825 278.736692,26.825 279.229692,26.825 C279.896692,26.796 280.389692,26.651 280.766692,26.39 C281.723692,25.723 281.984692,21.866 282.187692,14.442 L280.766692,14.442 L279.519692,14.442 Z M290.350692,14.442 L287.378692,14.442 C287.436692,13.572 287.465692,12.673 287.494692,11.774 L284.855692,11.687 C284.826692,12.615 284.797692,13.543 284.768692,14.442 L282.622692,14.442 L282.622692,16.965 L284.594692,16.965 C284.217692,20.561 283.434692,23.548 281.549692,25.491 L283.840692,26.941 C285.928692,24.65 286.798692,21.17 287.204692,16.965 L290.292692,16.965 C290.176692,21.605 290.031692,23.867 289.712692,24.157 C289.625692,24.244 289.480692,24.273 289.277692,24.273 C288.900692,24.273 288.059692,24.273 287.537692,24.244 L287.885692,26.912 C288.552692,26.912 289.712692,26.941 290.205692,26.912 C290.872692,26.883 291.423692,26.767 291.800692,26.506 C292.728692,25.81 292.931692,21.924 293.134692,14.442 L291.423692,14.442 L290.350692,14.442 Z" id="Shape"></path>
            <path d="M317.254769,9.773 C318.559769,10.527 320.864769,11.194 322.198769,11.745 L324.199769,8.99 C319.791769,7.366 315.470769,4.582 311.787769,0.029 L308.771769,0.029 C305.262769,4.582 300.057769,7.482 295.707769,8.99 L297.563769,11.716 C298.984769,11.136 300.376769,10.411 301.710769,9.57 L301.710769,11.281 L317.254769,11.281 L317.254769,9.773 Z M303.392769,8.439 C305.422769,6.989 308.365769,5.162 310.250769,2.9 C312.222769,5.162 314.194769,6.989 316.253769,8.439 L303.392769,8.439 Z M297.215769,23.084 L297.911769,26.216 C302.783769,25.81 312.309769,25.114 318.051769,24.534 C318.631769,25.346 319.153769,26.187 319.588769,26.97 L322.401769,25.259 C320.777769,22.678 318.428769,19.923 315.325769,17.052 L312.860769,18.589 C314.049769,19.749 315.151769,20.909 316.108769,22.04 C313.005769,22.272 308.322769,22.504 304.900769,22.707 C306.060769,20.561 308.133769,18.357 308.974769,16.501 L322.575769,16.501 L322.575769,13.659 L297.244769,13.659 L297.244769,16.501 L305.494769,16.501 C304.740769,18.386 302.667769,20.706 301.565769,22.881 C299.912769,22.968 298.433769,23.026 297.215769,23.084 Z" id="Shape"></path>
        </g>
    </g>
</svg>